<?xml version="1.0" standalone="no"?>
<!DOCTYPE svg PUBLIC "-//W3C//DTD SVG 1.1//EN" "http://www.w3.org/Graphics/SVG/1.1/DTD/svg11.dtd" >
<svg xmlns="http://www.w3.org/2000/svg" xmlns:xlink="http://www.w3.org/1999/xlink" version="1.1">
<metadata>
Created by FontForge 20161003 at Wed Nov  8 22:26:47 2017
 By www-data
Copyright (c) 2012, Pablo Impallari (www.impallari.com|impallari@gmail.com), Rodrigo Fuenzalida (www.rfuenzalida.com), with Reserved Font Name Poetsen.
</metadata>
<defs>
<font id="PoetsenOneRegular" horiz-adv-x="619" >
  <font-face 
    font-family="PoetsenOneRegular"
    font-weight="400"
    font-stretch="normal"
    units-per-em="1000"
    panose-1="2 1 8 3 3 0 0 13 2 3"
    ascent="800"
    descent="-200"
    x-height="550"
    cap-height="710"
    bbox="-174 -200 1197 1000"
    underline-thickness="50"
    underline-position="-150"
    unicode-range="U+0020-FB04"
  />
<missing-glyph horiz-adv-x="648" 
d="M534 1000q45 0 64.5 -22t19.5 -63q0 -10 -3 -59.5t-7.5 -120.5t-10.5 -155t-11.5 -162.5t-10.5 -143t-7 -96.5q-4 -53 -8 -109t-7.5 -104.5t-5.5 -85t-2 -49.5q0 -15 -16 -15h-418q-44 0 -62.5 23t-18.5 62q0 7 1.5 37.5t4.5 76t7 103t8 118.5t8.5 122.5t8.5 115.5t7 97
t5 67q4 52 8 108.5t7.5 105t5.5 85t2 49.5q0 15 16 15h415zM405 -72l66 959h-228q-2 -30 -6.5 -98.5t-11 -158.5t-13.5 -192t-14 -199t-12.5 -179t-9.5 -132h229z" />
    <glyph glyph-name="f_f" unicode="ff" horiz-adv-x="755" 
d="M551 346q-2 -30 -5 -65t-6 -70.5t-5.5 -69.5t-4.5 -60t-3.5 -43t-1.5 -18q-1 -12 -5 -16t-17 -4h-36q-54 0 -75.5 25.5t-21.5 76.5q0 6 1.5 30t4 57.5t5.5 74.5l6 82h-139q-2 -30 -5 -65t-6 -70.5t-5.5 -69.5t-4.5 -60t-3.5 -43t-1.5 -18q-1 -12 -5 -16t-17 -4h-36
q-27 0 -45.5 4t-30 15t-16.5 31t-5 52q2 39 6 80q2 35 5.5 78t6.5 86h-48q-11 0 -11 11l3 54q1 12 3.5 24.5t9 22t19.5 16t35 7.5q0 8 1 11q6 65 28 109.5t55.5 72t77 39.5t91.5 12q41 0 72.5 -6t55.5 -17q30 26 70.5 37t91.5 11q50 0 85.5 -9t57.5 -25t32 -38t10 -47
q0 -52 -32.5 -74t-87.5 -22q-15 0 -20.5 2.5t-5.5 11.5q0 33 -6 52t-33 19q-20 0 -34 -12t-23 -31.5t-13.5 -44.5t-7.5 -51h115q16 0 16 -14l-4 -54q-2 -30 -16.5 -48.5t-59.5 -18.5h-61zM349 591q-21 0 -36.5 -8.5t-26 -23.5t-16.5 -35t-10 -43h138l4 40q0 32 -11 51
t-42 19z" />
    <glyph glyph-name="f_i" unicode="fi" horiz-adv-x="577" 
d="M454 0q-31 0 -50.5 6.5t-31 18.5t-16 29.5t-4.5 40.5q0 13 0.5 26.5t2.5 39t5.5 69t8.5 116.5h-121q-2 -30 -5 -65t-6 -70.5t-5.5 -69.5t-4.5 -60t-3.5 -43t-1.5 -18q-1 -12 -5 -16t-17 -4h-36q-27 0 -45.5 4t-30 15t-16.5 31t-5 52q3 37 6 78q2 35 5 78.5t7 87.5h-48
q-11 0 -11 11l3 54q1 12 3.5 24.5t9 22t19.5 16t34 7.5l4 40q6 65 26.5 109.5t53 72t77 39.5t100.5 12q55 0 94 -9.5t64 -26.5t36 -39.5t11 -47.5q0 -52 -32.5 -74t-87.5 -22q-15 0 -20.5 2.5t-5.5 11.5q0 16 -1.5 29.5t-7.5 22.5t-18 14t-32 5q-25 0 -42 -12t-28 -31.5
t-17 -44.5t-10 -51h181q30 0 49 -6.5t30 -18.5t15.5 -28.5t4.5 -37.5q0 -15 -1 -34t-4 -58t-8 -104.5t-14 -173.5q-1 -12 -5 -16t-17 -4h-36z" />
    <glyph glyph-name="f_l" unicode="fl" horiz-adv-x="614" 
d="M469 -9q-60 0 -88 32.5t-28 91.5q0 1 2.5 29t6 72t7.5 97.5t7.5 104.5t6 94.5t2.5 67.5q0 23 -7.5 31.5t-27.5 8.5q-24 0 -40 -10.5t-26 -29t-15.5 -44t-9.5 -55.5h44q16 0 16 -14l-4 -54q-2 -30 -19 -48.5t-48 -18.5q-9 -110 -14 -174t-7.5 -97t-3.5 -43t-1 -12
q-1 -12 -5 -16t-17 -4h-36q-27 0 -45.5 4t-30 15t-16.5 31t-5 52q3 37 6 78q2 35 5 78.5t7 87.5h-48q-11 0 -11 11l3 54q1 12 3.5 24.5t9 22t19.5 16t34 7.5l4 40q7 66 26 111t51.5 72t79 38.5t108.5 11.5q57 0 94 -9t58 -27.5t29.5 -46.5t8.5 -66q0 -23 -2 -56.5
t-5.5 -72.5t-7 -81t-7 -81t-5.5 -73t-2 -57q0 -30 9.5 -43t20.5 -17t20.5 -5t9.5 -7q0 -23 -5 -44.5t-18.5 -38.5t-36 -27.5t-56.5 -10.5z" />
    <glyph glyph-name="f_f_i" unicode="ffi" horiz-adv-x="880" 
d="M757 0q-31 0 -50.5 6.5t-31 18.5t-16 29.5t-4.5 40.5q0 13 0.5 26.5t2.5 39t5.5 69t8.5 116.5h-121q-2 -30 -5 -65t-6 -70.5t-5.5 -69.5t-4.5 -60t-3.5 -43t-1.5 -18q-1 -12 -5 -16t-17 -4h-36q-27 0 -45.5 4t-30 15t-16.5 31t-5 52q3 37 6 78q2 35 5 78.5t7 87.5h-140
q-2 -30 -5 -65t-6 -70.5t-5.5 -69.5t-4.5 -60t-3.5 -43t-1.5 -18q-1 -12 -5 -16t-17 -4h-36q-27 0 -45.5 4t-30 15t-16.5 31t-5 52q2 39 6 80q2 35 5.5 78t6.5 86h-48q-11 0 -11 11l3 54q1 12 3.5 24.5t9 22t19.5 16t35 7.5q0 8 1 11q6 65 28 109.5t55.5 72t77 39.5t91.5 12
q80 0 130 -25q33 29 78 41.5t102 12.5q55 0 94 -9.5t64 -26.5t36 -39.5t11 -47.5q0 -52 -32.5 -74t-87.5 -22q-15 0 -20.5 2.5t-5.5 11.5q0 16 -1.5 29.5t-7.5 22.5t-18 14t-32 5q-25 0 -42 -12t-28 -31.5t-17 -44.5t-10 -51h181q30 0 49 -6.5t30 -18.5t15.5 -28.5
t4.5 -37.5q0 -15 -1 -34t-4 -58t-8 -104.5t-14 -173.5q-1 -12 -5 -16t-17 -4h-36zM349 591q-21 0 -36.5 -8.5t-26 -23.5t-16.5 -35t-10 -43h138l4 40q0 32 -11 51t-42 19z" />
    <glyph glyph-name="f_f_l" unicode="ffl" horiz-adv-x="917" 
d="M772 -9q-60 0 -88 32.5t-28 91.5q0 1 2.5 29t6 72t7.5 97.5t7.5 104.5t6 94.5t2.5 67.5q0 23 -7.5 31.5t-27.5 8.5q-24 0 -40 -10.5t-26 -29t-15.5 -44t-9.5 -55.5h44q16 0 16 -14l-4 -54q-2 -30 -19 -48.5t-48 -18.5q-9 -110 -14 -174t-7.5 -97t-3.5 -43t-1 -12
q-1 -12 -5 -16t-17 -4h-36q-27 0 -45.5 4t-30 15t-16.5 31t-5 52q3 37 6 78q2 35 5 78.5t7 87.5h-140q-2 -30 -5 -65t-6 -70.5t-5.5 -69.5t-4.5 -60t-3.5 -43t-1.5 -18q-1 -12 -5 -16t-17 -4h-36q-27 0 -45.5 4t-30 15t-16.5 31t-5 52q2 39 6 80q2 35 5.5 78t6.5 86h-48
q-11 0 -11 11l3 54q1 12 3.5 24.5t9 22t19.5 16t35 7.5q0 8 1 11q6 65 28 109.5t55.5 72t77 39.5t91.5 12q41 0 72.5 -6t55.5 -17q32 28 79.5 40t110.5 12q57 0 94 -9t58 -27.5t29.5 -46.5t8.5 -66q0 -23 -2 -56.5t-5.5 -72.5t-7 -81t-7 -81t-5.5 -73t-2 -57q0 -30 9.5 -43
t20.5 -17t20.5 -5t9.5 -7q0 -23 -5 -44.5t-18.5 -38.5t-36 -27.5t-56.5 -10.5zM349 591q-21 0 -36.5 -8.5t-26 -23.5t-16.5 -35t-10 -43h138l4 40q0 32 -11 51t-42 19z" />
    <glyph glyph-name="f_b" unicode="fb" horiz-adv-x="929" 
d="M569 606q0 -8 -0.5 -17.5t-1.5 -24.5t-2.5 -37t-4.5 -55q26 45 59 66.5t87 21.5q91 0 139.5 -60t48.5 -179q0 -31 -4.5 -68t-16 -73.5t-32.5 -71t-53.5 -60.5t-78.5 -42t-109 -16q-77 0 -121.5 22.5t-68 55t-30 69t-6.5 64.5q0 30 4 80t9 104t9 104.5t4 83.5
q0 22 -5.5 34.5t-31.5 12.5q-27 0 -44.5 -10.5t-29.5 -29t-19 -44t-11 -55.5h44q16 0 16 -14l-4 -54q-2 -30 -19 -48.5t-48 -18.5q-9 -110 -14 -174t-7.5 -97t-3.5 -43t-1 -12q-1 -12 -5 -16t-17 -4h-36q-27 0 -45.5 4t-30 15t-16.5 31t-5 52q3 37 6 78q2 35 5 78.5t7 87.5
h-48q-11 0 -11 11l3 54q1 12 3.5 24.5t9 22t19.5 16t34 7.5l4 40q7 66 27 111t54.5 72t84 38.5t114.5 11.5q57 0 94 -9t58 -27.5t29.5 -46.5t8.5 -65zM646 427q-35 0 -55.5 -19t-31.5 -46.5t-14 -57.5t-3 -52q0 -69 18.5 -99t56.5 -30q36 0 57 23t31.5 53.5t13.5 62t3 49.5
q0 57 -17 86.5t-59 29.5z" />
    <glyph glyph-name="f_f_b" unicode="ffb" horiz-adv-x="1232" 
d="M248 346q-2 -30 -5 -65t-6 -70.5t-5.5 -69.5t-4.5 -60t-3.5 -43t-1.5 -18q-1 -12 -5 -16t-17 -4h-36q-27 0 -45.5 4t-30 15t-16.5 31t-5 52q2 39 6 80q2 35 5.5 78t6.5 86h-48q-11 0 -11 11l3 54q1 12 3.5 24.5t9 22t19.5 16t35 7.5q0 8 1 11q6 65 28 109.5t55.5 72
t77 39.5t91.5 12q80 0 130 -25q35 29 85 41.5t118 12.5q57 0 94 -9t58 -27.5t29.5 -46.5t8.5 -65q0 -9 -0.5 -18.5t-1.5 -24.5t-2.5 -37t-4.5 -54q26 45 59 66.5t87 21.5q91 0 139.5 -60t48.5 -179q0 -31 -4.5 -68t-16 -73.5t-32.5 -71t-53.5 -60.5t-78.5 -42t-109 -16
q-77 0 -121.5 22.5t-68 55t-30 69t-6.5 64.5q0 30 4 80t9 104t9 104.5t4 83.5q0 22 -5.5 34.5t-31.5 12.5q-27 0 -44.5 -10.5t-29.5 -29t-19 -44t-11 -55.5h44q16 0 16 -14l-4 -54q-2 -30 -19 -48.5t-48 -18.5q-9 -110 -14 -174t-7.5 -97t-3.5 -43t-1 -12q-1 -12 -5 -16
t-17 -4h-36q-27 0 -45.5 4t-30 15t-16.5 31t-5 52q3 37 6 78q2 35 5 78.5t7 87.5h-140zM949 427q-35 0 -55.5 -19t-31.5 -46.5t-14 -57.5t-3 -52q0 -69 18.5 -99t56.5 -30q36 0 57 23t31.5 53.5t13.5 62t3 49.5q0 57 -17 86.5t-59 29.5zM349 591q-21 0 -36.5 -8.5t-26 -23.5
t-16.5 -35t-10 -43h138l4 40q0 32 -11 51t-42 19z" />
    <glyph glyph-name=".notdef" horiz-adv-x="648" 
d="M534 1000q45 0 64.5 -22t19.5 -63q0 -10 -3 -59.5t-7.5 -120.5t-10.5 -155t-11.5 -162.5t-10.5 -143t-7 -96.5q-4 -53 -8 -109t-7.5 -104.5t-5.5 -85t-2 -49.5q0 -15 -16 -15h-418q-44 0 -62.5 23t-18.5 62q0 7 1.5 37.5t4.5 76t7 103t8 118.5t8.5 122.5t8.5 115.5t7 97
t5 67q4 52 8 108.5t7.5 105t5.5 85t2 49.5q0 15 16 15h415zM405 -72l66 959h-228q-2 -30 -6.5 -98.5t-11 -158.5t-13.5 -192t-14 -199t-12.5 -179t-9.5 -132h229z" />
    <glyph glyph-name=".null" horiz-adv-x="0" 
 />
    <glyph glyph-name="nonmarkingreturn" horiz-adv-x="309" 
 />
    <glyph glyph-name="space" unicode=" " horiz-adv-x="215" 
 />
    <glyph glyph-name="exclam" unicode="!" horiz-adv-x="295" 
d="M127 178q42 0 60 -20.5t18 -57.5q0 -16 -4 -35t-14.5 -35.5t-30 -28t-50.5 -11.5q-45 0 -61 23.5t-16 58.5q0 20 5 39t16 34t30 24t47 9zM149 248q-25 0 -41 6t-25 18.5t-12.5 31t-3.5 42.5q0 9 0.5 19.5t2 26.5t3 40t4.5 61.5t7 90.5t9 127q1 22 5 26q3 3 16 3h59
q55 0 78.5 -21.5t23.5 -50.5q0 -18 -3.5 -47.5t-9.5 -65.5t-13.5 -75.5t-15 -78t-14.5 -73.5l-12 -60q-2 -12 -6.5 -16t-15.5 -4h-36z" />
    <glyph glyph-name="quotedbl" unicode="&#x22;" horiz-adv-x="416" 
d="M106 454q-27 0 -36 13.5t-9 39.5q0 7 1 19.5t2.5 36t4.5 62.5t7 99q1 12 2.5 14t9.5 2h62q30 0 43 -12t13 -27t-4.5 -46t-10.5 -66t-12.5 -69t-10.5 -55q-2 -7 -3.5 -9t-8.5 -2h-50zM301 454q-27 0 -36 13.5t-9 39.5q0 7 1 19.5t2.5 36t4.5 62.5t7 99q1 12 2.5 14t9.5 2
h62q30 0 43 -12t13 -27t-4.5 -46t-10.5 -66t-12.5 -69t-10.5 -55q-2 -7 -3.5 -9t-8.5 -2h-50z" />
    <glyph glyph-name="numbersign" unicode="#" horiz-adv-x="690" 
d="M470 0q-32 0 -51 6.5t-29.5 18.5t-14 29.5t-3.5 40.5l9 85h-119l-20 -160q-3 -20 -22 -20q-32 0 -51 6.5t-29.5 18.5t-14 29.5t-3.5 40.5l9 85h-99q-11 0 -11 11q0 19 4 37.5t13 32t24 22t37 8.5h46q6 52 15 118h-96q-11 0 -11 11q0 44 17 72t61 28h42q5 38 10 78.5
t10 82.5q3 29 26 29q58 0 78 -22t20 -61q0 -2 -3.5 -30.5t-9.5 -76.5h119q5 38 10 78.5t10 82.5q3 29 26 29q58 0 78 -22t20 -61q0 -2 -3.5 -30.5t-9.5 -76.5h104q6 0 11 -3.5t5 -10.5l-3 -30q-3 -30 -19 -48.5t-61 -18.5h-50l-15 -118h100q6 0 11 -3.5t5 -10.5l-3 -30
q-3 -30 -19 -48.5t-61 -18.5h-47l-20 -160q-3 -20 -22 -20zM276 291h119q6 52 15 118h-119z" />
    <glyph glyph-name="dollar" unicode="$" horiz-adv-x="528" 
d="M48 483q0 54 17 94t45.5 68t65 44.5t76.5 24.5q2 16 2.5 33.5t3 31.5t7.5 23t15 9q50 0 67.5 -24.5t17.5 -69.5q70 -11 104.5 -49.5t34.5 -95.5q0 -56 -31 -85.5t-89 -29.5q-18 0 -23 3.5t-5 14.5q0 10 -1.5 26t-7.5 31t-19 25.5t-36 10.5q-32 0 -57 -19.5t-25 -50.5
q0 -27 20.5 -44t51.5 -31.5t67.5 -29.5t67.5 -39.5t51.5 -61t20.5 -92.5q0 -80 -46 -137t-138 -70l-8 -77q-2 -12 -5.5 -16t-16.5 -4q-25 0 -41 6.5t-25 19t-12.5 31t-3.5 42.5q-38 6 -69 18.5t-53 27t-34.5 30t-12.5 29.5q0 66 7.5 95t27.5 29q14 0 29.5 -12t35.5 -27
t46.5 -27t61.5 -12q14 0 27.5 2.5t24 8.5t17 16t6.5 24q0 25 -19 40t-48 27.5t-62.5 26t-62.5 37t-48 60.5t-19 95z" />
    <glyph glyph-name="percent" unicode="%" horiz-adv-x="781" 
d="M179 -13q-25 0 -30 9.5t-5 27.5q0 11 5.5 25.5t15.5 32.5q8 15 41.5 69.5t84 135.5t114 182.5t132.5 211.5q14 22 27 25.5t28 3.5q28 0 34 -9.5t6 -27.5q0 -11 -5.5 -24.5t-13.5 -29.5q-5 -10 -23 -39t-45.5 -73t-63 -101t-76 -121.5t-85 -135t-89.5 -142.5
q-8 -12 -23 -16t-29 -4zM214 720q69 0 99 -36t30 -101q0 -27 -6.5 -60.5t-24.5 -62.5t-50.5 -49t-84.5 -20q-39 0 -65 11t-41 30.5t-21.5 45.5t-6.5 56q0 35 8.5 68.5t28 59.5t52.5 42t82 16zM204 635q-19 0 -30.5 -10.5t-17.5 -25.5t-7.5 -31t-1.5 -28q0 -64 39 -64
q16 0 26.5 11.5t16.5 28t8 34t2 29.5q0 26 -8 41t-27 15zM615 319q69 0 99 -36t30 -101q0 -27 -6.5 -60.5t-24.5 -62.5t-50.5 -49t-84.5 -20q-39 0 -65 11t-41 30.5t-21.5 45.5t-6.5 56q0 35 8.5 68.5t28 59.5t52.5 42t82 16zM605 234q-19 0 -30.5 -10.5t-17.5 -25.5
t-7.5 -31t-1.5 -28q0 -64 39 -64q16 0 26.5 11.5t16.5 28t8 34t2 29.5q0 26 -8 41t-27 15z" />
    <glyph glyph-name="ampersand" unicode="&#x26;" horiz-adv-x="679" 
d="M336 573q-21 0 -37 -8t-26.5 -21t-16 -28.5t-5.5 -31.5q0 -30 18.5 -50.5t54.5 -20.5h332q6 0 11 -3.5t6 -10.5l-2 -42q-1 -15 -4.5 -25.5t-13 -16.5t-26 -8.5t-42.5 -2.5q-6 -81 -30.5 -140t-65 -97.5t-96.5 -57.5t-124 -19q-123 0 -183.5 53t-60.5 149q0 72 33 118.5
t93 74.5q-31 23 -48 58t-17 74t17.5 75.5t51.5 65t84.5 46t117.5 17.5q52 0 88.5 -10.5t60 -29t34 -43t10.5 -52.5q0 -51 -33 -76t-96 -25q-11 0 -13 2t-5 10q-4 45 -23 60.5t-44 15.5zM210 221q0 -35 23.5 -60t65.5 -25q47 0 80 39t44 129h-131q-40 0 -61 -25t-21 -58z" />
    <glyph glyph-name="quotesingle" unicode="'" horiz-adv-x="221" 
d="M106 454q-27 0 -36 13.5t-9 39.5q0 7 1 19.5t2.5 36t4.5 62.5t7 99q1 12 2.5 14t9.5 2h62q30 0 43 -12t13 -27t-4.5 -46t-10.5 -66t-12.5 -69t-10.5 -55q-2 -7 -3.5 -9t-8.5 -2h-50z" />
    <glyph glyph-name="parenleft" unicode="(" horiz-adv-x="410" 
d="M324 581q-29 0 -52.5 -28t-40 -80t-25.5 -126.5t-9 -167.5q0 -110 14.5 -159.5t50.5 -49.5q16 0 30 6t22 6t12.5 -9.5t4.5 -35.5q0 -25 -4.5 -47t-16 -39t-31.5 -27t-52 -10q-47 0 -83.5 21t-61.5 66t-38.5 116t-13.5 172q0 129 22 230.5t62 172t96 107.5t124 37
q56 0 75 -15t19 -44q0 -5 -3.5 -22.5t-9 -37t-12 -34.5t-13.5 -15q-9 0 -27.5 6.5t-38.5 6.5z" />
    <glyph glyph-name="parenright" unicode=")" horiz-adv-x="419" 
d="M80 -31q29 0 52.5 28t40 80t25.5 126.5t9 167.5q0 110 -14.5 159.5t-50.5 49.5q-16 0 -30 -6t-22 -6t-12.5 9.5t-4.5 35.5q0 24 4.5 46.5t16 39.5t31.5 27t52 10q46 0 84.5 -21t65.5 -66t42 -116t15 -172q0 -129 -23.5 -230.5t-65.5 -172t-99.5 -107.5t-125.5 -37
q-56 0 -75 15t-19 44q0 5 3.5 22.5t9 37t12 34.5t13.5 15q9 0 27.5 -6.5t38.5 -6.5z" />
    <glyph glyph-name="asterisk" unicode="*" horiz-adv-x="464" 
d="M294 521q26 -32 46 -52t20 -40q0 -12 -8.5 -26t-22 -26.5t-30 -21t-32.5 -8.5q-18 0 -26 11t-10.5 30.5t-2.5 46t-1 56.5q-14 -21 -24 -39t-20 -31t-20.5 -20.5t-25.5 -7.5t-30 6.5t-27 16t-19.5 21.5t-7.5 23q0 13 11 24t29 20t41 18t47 20q-33 8 -55 12t-36 10t-20 16
t-6 29q0 21 6 37.5t15.5 28t20 17.5t19.5 6q11 0 21.5 -8t22 -20.5t24.5 -29.5t28 -35q-3 13 -5 35t-2 34q0 76 85 76q35 0 46 -11.5t11 -25.5q0 -23 -18.5 -49.5t-47.5 -70.5q38 15 62.5 28.5t39.5 13.5q10 0 21 -7t19 -18.5t13.5 -27t5.5 -32.5q0 -32 -16.5 -41t-32.5 -9
q-20 0 -46 7t-62 14z" />
    <glyph glyph-name="plus" unicode="+" horiz-adv-x="481" 
d="M266 103q-30 0 -50 6.5t-31 18.5t-15.5 29.5t-4.5 40.5q0 15 1 30t4 48h-133q-11 0 -11 11v4v6t0.5 11t1.5 20t3.5 25.5t10 22.5t21.5 16t37 6h80q2 29 5 64t6 80q1 22 4.5 25.5t18.5 3.5q31 0 50.5 -6t31 -18t16 -29t4.5 -38q0 -14 -1 -31t-4 -51h131q6 0 11 -3.5
t5 -10.5l-3 -41q-2 -30 -16.5 -48.5t-59.5 -18.5h-79l-12 -153q-1 -12 -5 -16t-17 -4z" />
    <glyph glyph-name="comma" unicode="," horiz-adv-x="259" 
d="M95 -10q-41 0 -57.5 20t-16.5 49q0 61 27.5 90t78.5 29q22 0 36.5 -8t23 -22.5t12 -34t3.5 -42.5q0 -48 -10.5 -94t-28.5 -82t-43 -58t-54 -22q-15 0 -24.5 5.5t-14.5 14.5t-6.5 20t-1.5 21q0 6 11.5 16t25.5 24t26 32.5t13 41.5z" />
    <glyph glyph-name="hyphen" unicode="-" horiz-adv-x="462" 
d="M59 209q-11 0 -11 11l3 54q1 13 3.5 25.5t10 22.5t21.5 16t37 6h272q6 0 11 -3.5t5 -10.5l-4 -54q-2 -30 -16.5 -48.5t-59.5 -18.5h-272z" />
    <glyph glyph-name="period" unicode="." horiz-adv-x="251" 
d="M120 178q42 0 60 -20.5t18 -57.5q0 -15 -4 -34.5t-14.5 -36t-29.5 -28t-50 -11.5q-46 0 -62 23.5t-16 58.5q0 20 5 39t16 34t30 24t47 9z" />
    <glyph glyph-name="slash" unicode="/" horiz-adv-x="329" 
d="M84 -10q-14 0 -26 1t-21.5 6.5t-15 15.5t-5.5 28q0 13 3.5 32.5t11.5 51t22 78t35 113.5t49.5 156.5t66.5 208.5q7 21 16.5 25t21.5 4q25 0 40.5 -3.5t23 -10t10 -16t2.5 -21.5q0 -13 -2.5 -29.5t-9.5 -44t-19.5 -70.5t-33 -108.5t-50 -158.5t-69.5 -220
q-9 -27 -19 -32.5t-31 -5.5z" />
    <glyph glyph-name="zero" unicode="0" horiz-adv-x="658" 
d="M378 721q66 0 112 -20.5t75 -60t42.5 -96t13.5 -128.5q0 -40 -5 -87t-18 -94.5t-36 -91.5t-59 -78t-86.5 -54.5t-119.5 -20.5q-74 0 -122.5 25t-78 67.5t-41.5 100.5t-12 124q0 78 16.5 152.5t55.5 132.5t103.5 93.5t159.5 35.5zM357 566q-28 0 -48.5 -12.5t-35 -33.5
t-23 -47t-13.5 -53.5t-6.5 -53t-1.5 -45.5q0 -91 22.5 -133t64.5 -42q37 0 60.5 29.5t36.5 71t17.5 86t4.5 75.5q0 73 -18 115.5t-60 42.5z" />
    <glyph glyph-name="one" unicode="1" horiz-adv-x="385" 
d="M117 676q17 10 35.5 22t20.5 12h60q55 0 79 -23.5t24 -60.5q0 -11 -1.5 -41.5t-4.5 -73.5t-6.5 -95.5t-7 -105.5t-7 -104t-6.5 -91.5l-5 -67.5t-3 -32q-1 -8 -4 -11.5t-12 -3.5h-55q-60 0 -82 24t-22 76q0 21 3 64.5t7.5 101.5t10 127t11.5 141q-11 -12 -23.5 -17
t-24.5 -5q-19 0 -33.5 10t-24.5 24t-15 30.5t-5 29.5q0 5 2.5 9t11.5 11t27 18.5t50 31.5z" />
    <glyph glyph-name="two" unicode="2" horiz-adv-x="579" 
d="M547 533q0 -48 -17.5 -92.5t-44.5 -84t-60.5 -74t-66 -62t-60.5 -48t-43 -32.5h254q6 0 11 -3t5 -11l-4 -59q-2 -30 -16.5 -48.5t-59.5 -18.5h-328q-51 0 -71.5 16.5t-20.5 56.5v60q0 5 2.5 12t4.5 11q9 17 37.5 42t65 54t77 62t74 67t55.5 67.5t22 64.5q0 25 -17 42.5
t-55 17.5q-24 0 -39.5 -13t-25 -32.5t-14 -43t-6.5 -43.5q-2 -10 -6.5 -14t-25.5 -4q-111 0 -111 107q0 52 22.5 88t59.5 59t82.5 33.5t92.5 10.5q67 0 111 -17.5t70 -45t36 -61t10 -64.5z" />
    <glyph glyph-name="three" unicode="3" horiz-adv-x="565" 
d="M288 573q-22 0 -46.5 -9.5t-35.5 -36.5q-3 -8 -5 -10t-13 -2q-58 0 -84 21t-26 56q0 29 17.5 53t48 41t72 26t90.5 9q64 0 106 -15.5t66.5 -40t34 -56.5t9.5 -65q0 -50 -20.5 -88.5t-71.5 -70.5q45 -22 67.5 -54t22.5 -80q0 -41 -17 -87t-55 -84.5t-99.5 -64
t-150.5 -25.5q-51 0 -87 9.5t-58.5 25.5t-32.5 38t-10 47q0 48 32.5 71t88.5 23q14 0 15.5 -2t3.5 -10q4 -15 13 -24t20.5 -14t23.5 -6.5t22 -1.5q32 0 52.5 11t32 26t16 32t4.5 29q0 32 -20.5 47.5t-43.5 16.5l-143 6q-16 0 -16 14l3 28q3 31 18 48t59 19l90 4
q33 2 52.5 22.5t19.5 58.5q0 65 -65 65z" />
    <glyph glyph-name="four" unicode="4" horiz-adv-x="599" 
d="M106 192q-39 0 -62.5 13.5t-23.5 45.5q0 12 3.5 27.5t10 40t17 60.5t25.5 89q10 35 17.5 63.5t12.5 52.5t7.5 44.5t2.5 40.5q0 12 2.5 26.5t13.5 14.5h45q57 0 78.5 -20t21.5 -68q0 -18 -3 -41t-10.5 -57t-19 -81t-28.5 -113h134q3 35 6.5 77.5t6.5 82.5t5.5 72.5
t3.5 47.5q2 35 2 55t1.5 30t5 12.5t11.5 2.5h55q32 0 51.5 -6.5t30.5 -18.5t15 -29.5t4 -40.5t-2.5 -74.5t-7 -116t-9 -133.5t-9 -128t-7.5 -100t-4 -48q-1 -8 -4 -11.5t-12 -3.5h-55q-55 0 -79.5 22t-24.5 63q0 8 1 32t4 75h-233z" />
    <glyph glyph-name="five" unicode="5" horiz-adv-x="561" 
d="M240 -10q-42 0 -81.5 8t-70.5 23.5t-49.5 39t-18.5 55.5q0 41 31.5 64.5t89.5 23.5q8 0 12 -2t6 -10q3 -14 13 -23t23 -14t26.5 -7t24.5 -2q30 0 50.5 10.5t33 27t18 37t5.5 39.5q0 15 -3.5 29.5t-11 25.5t-20 18t-31.5 7q-18 0 -32.5 -8t-21.5 -29q-4 -16 -15 -16h-55
q-29 0 -47.5 5t-29 14.5t-14.5 24t-4 33.5q0 24 4.5 70.5t11 97.5t12.5 96.5t9 66.5q1 15 17 15h382q6 0 11 -3t5 -11l-4 -59q-2 -30 -16.5 -48.5t-59.5 -18.5h-181l-21 -152q14 13 40.5 20.5t58.5 7.5q43 0 78 -14.5t59 -40t37 -61.5t13 -79q0 -47 -16 -93.5t-50.5 -84
t-88.5 -60.5t-129 -23z" />
    <glyph glyph-name="six" unicode="6" horiz-adv-x="616" 
d="M361 566q-38 0 -62.5 -19t-39 -46.5t-20.5 -58t-6 -53.5q0 -14 4 -19q3 3 13 17t29 29.5t47.5 27.5t69.5 12q34 0 66.5 -9.5t58 -32t41.5 -59t16 -90.5q0 -57 -19 -107t-56.5 -87.5t-93.5 -59t-129 -21.5q-74 0 -120 24t-72 64.5t-35.5 95t-9.5 115.5q0 86 17 164.5
t55.5 138t101.5 94.5t155 35q106 0 154 -34t48 -86q0 -47 -31.5 -70t-90.5 -23q-8 0 -12.5 2t-4.5 10q0 19 -15 32.5t-59 13.5zM325 336q-26 0 -44 -12t-28.5 -29.5t-15 -38t-4.5 -36.5q0 -34 15.5 -54t44.5 -20q28 0 47 13t30.5 32.5t16.5 40.5t5 38q0 29 -15 47.5
t-52 18.5z" />
    <glyph glyph-name="seven" unicode="7" horiz-adv-x="492" 
d="M211 15q-7 -15 -21 -15h-36q-50 0 -81.5 16t-31.5 48q0 10 4.5 23.5t15 35.5t28.5 55.5t45 83.5q37 69 63 117t42.5 80.5t26.5 52t15.5 31t7.5 17t5 10.5h-238q-8 0 -9.5 3t-1.5 11l3 56q1 13 3.5 25.5t10 22.5t21.5 16t37 6h372q6 0 11 -3t5 -11l-4 -54q-2 -17 -5 -26
t-7 -17q-48 -96 -82 -165t-59.5 -120t-43.5 -88.5t-33.5 -70.5t-30 -66t-32.5 -74z" />
    <glyph glyph-name="eight" unicode="8" horiz-adv-x="603" 
d="M560 258q0 -41 -16 -88t-51 -87t-90.5 -66.5t-134.5 -26.5q-57 0 -101 14.5t-74 40.5t-45.5 62t-15.5 78q0 56 26.5 102.5t80.5 81.5q-28 12 -47.5 43.5t-19.5 82.5q0 39 14 79t45.5 72t81.5 52.5t122 20.5q61 0 103 -15t67.5 -40t36.5 -57.5t11 -66.5q0 -40 -16.5 -77
t-63.5 -68q45 -23 66 -56t21 -81zM311 332q-29 0 -46.5 -12t-26.5 -29.5t-12 -36.5t-3 -32q0 -76 62 -76q26 0 42.5 13t25.5 31.5t12.5 39t3.5 35.5q0 39 -16 53t-42 14zM329 579q-22 0 -36 -10.5t-22 -25t-11 -31t-3 -28.5q0 -32 13.5 -46t38.5 -14q23 0 37.5 10.5t23 25.5
t11.5 32t3 31q0 24 -13 40t-42 16z" />
    <glyph glyph-name="nine" unicode="9" horiz-adv-x="608" 
d="M229 145q47 0 78.5 20t50 49t26.5 61t8 57q0 14 -4 19q-4 -5 -14.5 -19t-29 -29t-47.5 -26.5t-69 -11.5q-33 0 -65.5 9.5t-58 32t-41.5 59t-16 90.5q0 55 18 103t53 84t88 57t122 21q75 0 122.5 -24.5t74.5 -65t37 -94.5t10 -112q0 -87 -19 -166t-61 -139t-109 -95
t-164 -35q-48 0 -82 9t-55.5 25t-31 37.5t-9.5 47.5q0 48 31.5 71t90.5 23q11 0 13 -2t4 -10q5 -27 13.5 -36.5t35.5 -9.5zM296 385q25 0 42 11t26.5 27t13.5 34t4 33q0 35 -18 55t-48 20q-24 0 -40 -12t-25.5 -29.5t-13.5 -37t-4 -33.5q0 -30 15 -49t48 -19z" />
    <glyph glyph-name="colon" unicode=":" horiz-adv-x="279" 
d="M131 178q42 0 60 -20.5t18 -57.5q0 -15 -4 -34.5t-14.5 -36t-29.5 -28t-50 -11.5q-46 0 -62 23.5t-16 58.5q0 20 5 39t16 34t30 24t47 9zM156 474q42 0 60 -20.5t18 -57.5q0 -15 -4 -34.5t-14.5 -36t-29.5 -28t-50 -11.5q-46 0 -62 23.5t-16 58.5q0 20 5 39t16 34t30 24
t47 9z" />
    <glyph glyph-name="semicolon" unicode=";" horiz-adv-x="283" 
d="M155 474q42 0 60 -20.5t18 -57.5q0 -15 -4 -34.5t-14.5 -36t-29.5 -28t-50 -11.5q-46 0 -62 23.5t-16 58.5q0 20 5 39t16 34t30 24t47 9zM108 -10q-41 0 -57.5 20t-16.5 49q0 61 27.5 90t78.5 29q22 0 36.5 -8t23 -22.5t12 -34t3.5 -42.5q0 -48 -10.5 -94t-28.5 -82
t-43 -58t-54 -22q-15 0 -24.5 5.5t-14.5 14.5t-6.5 20t-1.5 21q0 6 11.5 16t25.5 24t26 32.5t13 41.5z" />
    <glyph glyph-name="less" unicode="&#x3c;" horiz-adv-x="429" 
d="M158 345q25 -13 37 -19t19.5 -10t14 -7t20 -10t39 -19.5t71.5 -34.5q10 -6 10 -20q0 -9 -2 -27t-7.5 -36.5t-14.5 -32t-24 -13.5q-13 0 -37 10t-53.5 26.5t-60.5 36t-58.5 38.5t-48 34.5t-27.5 24.5q-6 8 -7 13.5t-1 11.5l4 61q1 14 5.5 21t14.5 15q11 8 37 23.5t59 34
t70 38t70.5 35t59.5 25.5t37 10q12 0 12 -13q0 -37 -3 -60t-10 -37.5t-17 -23t-24 -16.5q-15 -8 -31.5 -16t-38 -17t-50 -20t-65.5 -26z" />
    <glyph glyph-name="equal" unicode="=" horiz-adv-x="543" 
d="M93 354q-11 0 -11 11l3 54q1 13 3.5 25.5t10 22.5t21.5 16t37 6h322q16 0 16 -14l-4 -54q-2 -30 -16.5 -48.5t-59.5 -18.5h-322zM57 94q-11 0 -11 11l3 54q1 13 3.5 25.5t10 22.5t21.5 16t37 6h322q16 0 16 -14l-4 -54q-2 -30 -16.5 -48.5t-59.5 -18.5h-322z" />
    <glyph glyph-name="greater" unicode="&#x3e;" horiz-adv-x="431" 
d="M277 345q-25 13 -37 19t-19.5 10t-14 7t-20 10t-39.5 19.5t-71 34.5q-10 6 -10 20q0 9 2 27t7.5 36.5t14.5 32t24 13.5q13 0 37 -10t53.5 -26.5t60.5 -36t58.5 -38.5t48 -35t27.5 -24q6 -8 7 -13.5t1 -11.5l-4 -61q-1 -14 -5.5 -21t-14.5 -15q-11 -8 -37 -23.5t-59 -34
t-70 -38t-70.5 -35t-59.5 -25.5t-37 -10q-12 0 -12 13q0 37 3 60t10 37.5t17 23t24 16.5q15 8 31.5 16t38 17t49.5 20t66 26z" />
    <glyph glyph-name="question" unicode="?" horiz-adv-x="528" 
d="M235 178q42 0 60 -20.5t18 -57.5q0 -16 -4 -35t-14.5 -35.5t-30 -28t-50.5 -11.5q-45 0 -61 23.5t-16 58.5q0 20 5 39t16 34t30 24t47 9zM310 268q-7 -14 -12 -17t-13 -3h-36q-39 0 -56 16.5t-17 40.5q0 23 12.5 44.5t31.5 41.5t40.5 39.5t40.5 39t31.5 40t12.5 43.5
q0 24 -15.5 44.5t-50.5 20.5q-27 0 -43.5 -11t-26.5 -28t-15 -37.5t-9 -40.5q-2 -11 -6.5 -14.5t-22.5 -3.5q-61 0 -86.5 21.5t-25.5 66.5q0 47 22.5 81t59 56t83 32.5t94.5 10.5q57 0 97.5 -14.5t66.5 -39t38.5 -57t12.5 -67.5q0 -53 -26 -94t-61 -76t-69.5 -67t-51.5 -68z
" />
    <glyph glyph-name="at" unicode="@" horiz-adv-x="799" 
d="M416 368q-30 0 -46 -19.5t-23.5 -43.5t-9 -46t-1.5 -27q0 -38 11 -54.5t34 -16.5q22 0 37.5 13.5t25.5 34.5t14 46t4 47q0 33 -10 49.5t-36 16.5zM348 -109q-81 0 -141 24t-99.5 67.5t-59 105t-19.5 135.5q0 84 25 157t76.5 127t129.5 84.5t183 30.5q96 0 159.5 -25
t101 -66.5t53 -95t15.5 -110.5q0 -54 -12.5 -100.5t-38.5 -81t-66.5 -54t-97.5 -19.5q-23 0 -43.5 3.5t-36.5 10.5t-25 18.5t-9 26.5q-19 -24 -44 -41t-67 -17q-53 0 -84 36.5t-31 123.5q0 109 47 168t129 59q38 0 56 -13.5t26 -44.5q0 6 1.5 15t3.5 17t5 13.5t7 5.5h31
q31 0 46 -12.5t15 -35.5q0 -12 -4 -38.5t-8.5 -57.5t-8 -61t-3.5 -49q0 -4 0.5 -10.5t3.5 -13t9 -11t17 -4.5q17 0 30 12.5t21.5 33.5t12.5 48t4 56q0 47 -12 85.5t-38 66t-68 42.5t-103 15q-79 0 -134 -24.5t-89 -65.5t-49 -94t-15 -110q0 -117 57 -171.5t155 -54.5
q31 0 51.5 4.5t34.5 10t23.5 10t19.5 4.5q8 0 12 -4.5t4 -17.5q0 -6 -2 -23.5t-12 -35.5q-5 -9 -14 -19t-25.5 -17.5t-42 -12.5t-63.5 -5z" />
    <glyph glyph-name="A" unicode="A" 
d="M366 710q25 0 41.5 -9.5t27.5 -25t18 -35.5t12 -41q40 -162 66 -267t41 -169.5t21 -95.5t6 -43q0 -14 -6.5 -19t-20.5 -5h-51q-43 0 -68.5 10.5t-39 30.5t-19.5 48.5t-10 64.5h-174l-33 -138q-5 -16 -23 -16h-53q-16 0 -33 3.5t-30.5 11.5t-22.5 20.5t-9 30.5q0 22 14 72
t35.5 113.5t48 133t51.5 131.5t45.5 109t31.5 66q8 14 14.5 16.5t24.5 2.5h95zM246 299h115l-42 264z" />
    <glyph glyph-name="B" unicode="B" horiz-adv-x="605" 
d="M248 -10q-59 0 -97 7.5t-60.5 22t-31 36.5t-8.5 52q0 9 1 25.5t3 46.5t5.5 77.5t9.5 119.5q7 89 11 141t6 80.5t2.5 40t0.5 19.5q0 16 0.5 26t2 15.5t5 8t10.5 2.5q59 4 100.5 6t72.5 2q76 0 130.5 -12.5t88.5 -35.5t50 -57t16 -77q0 -24 -5 -49.5t-17 -48.5t-32.5 -40.5
t-51.5 -25.5q58 -18 82 -59.5t24 -98.5q0 -46 -15 -86.5t-52 -71t-98 -48.5t-153 -18zM305 300q-11 0 -27 -1.5t-33 -4.5l-11 -163q36 -11 65 -11q31 0 50 9t29.5 22.5t14 30t3.5 30.5q0 37 -20.5 62.5t-70.5 25.5zM263 575q-2 -26 -3.5 -61t-4.5 -76q32 -8 57 -8q30 0 48 7
t28.5 18t14 24t3.5 25q0 31 -20.5 53.5t-70.5 22.5q-11 0 -24.5 -1.5t-27.5 -3.5z" />
    <glyph glyph-name="C" unicode="C" horiz-adv-x="617" 
d="M351 146q41 0 69.5 12t48.5 27t35.5 27t31.5 12q20 0 20 -30q0 -16 -4 -38.5t-11 -50.5q-4 -17 -19.5 -37t-42.5 -37.5t-66.5 -29t-90.5 -11.5t-102 15t-91 51t-65 97t-25 153q0 33 4.5 76.5t17.5 89.5t36.5 90.5t60.5 79.5t90.5 56.5t127.5 21.5q59 0 102.5 -14
t72 -38.5t42 -57.5t13.5 -70q0 -64 -37.5 -93.5t-106.5 -29.5q-22 0 -27.5 3.5t-5.5 14.5q-1 34 -2 59t-7 41.5t-18.5 24t-34.5 7.5q-32 0 -54.5 -13.5t-38 -35t-25 -48.5t-15 -55t-7 -54t-1.5 -45q0 -92 30.5 -131t94.5 -39z" />
    <glyph glyph-name="D" unicode="D" horiz-adv-x="666" 
d="M92 695q1 8 6.5 11.5t10.5 3.5q68 0 127.5 4.5t93.5 4.5q85 0 142.5 -17t93 -53t50.5 -93t15 -137q0 -81 -16.5 -158.5t-57.5 -137.5t-110.5 -96.5t-175.5 -36.5q-49 0 -89.5 2t-69.5 12t-45 30t-16 55q0 13 1.5 39t4 62t6 79.5t7.5 91.5q8 99 12.5 158t6 92.5t2 50.5
t1.5 33zM278 148q56 0 89.5 24t51.5 61t24 81t6 83q0 42 -5.5 73.5t-19 52.5t-37.5 31.5t-60 10.5q-11 0 -28 -1t-41 -3q-2 -37 -5 -87.5t-6.5 -106t-7.5 -112t-8 -104.5q15 -2 27 -2.5t20 -0.5z" />
    <glyph glyph-name="E" unicode="E" horiz-adv-x="501" 
d="M155 0q-56 0 -80 22t-24 63q0 20 3 68.5t8 110.5t10 131t10 130t8 107t3 63q0 15 16 15h352q6 0 11 -3t5 -11l-4 -59q-2 -30 -16.5 -48.5t-59.5 -18.5h-138l-10 -141h142q6 0 11 -3t5 -11l-4 -59q-2 -30 -16.5 -48.5t-59.5 -18.5h-87l-11 -149h220q6 0 11 -3.5t5 -10.5
l-4 -59q-2 -30 -16.5 -48.5t-59.5 -18.5h-230z" />
    <glyph glyph-name="F" unicode="F" horiz-adv-x="464" 
d="M240 289l-19 -274q-1 -8 -1.5 -11.5t-9.5 -3.5h-55q-56 0 -80 22t-24 63q0 20 3 68.5t8 110.5t10 131t10 130t8 107t3 63q0 15 16 15h352q6 0 11 -3t5 -11l-4 -59q-2 -30 -16.5 -48.5t-59.5 -18.5h-138l-10 -141h142q6 0 11 -3t5 -11l-4 -59q-2 -30 -16.5 -48.5
t-59.5 -18.5h-87z" />
    <glyph glyph-name="G" unicode="G" horiz-adv-x="640" 
d="M495 0q-52 0 -74.5 21.5t-24.5 53.5q-11 -34 -46.5 -59.5t-102.5 -25.5q-39 0 -76 15.5t-66 51.5t-46.5 96t-17.5 149q0 34 4 78.5t16.5 91t36 91t62 79.5t94.5 56.5t134 21.5q51 0 91.5 -11t69 -31t44 -49t15.5 -65q0 -58 -38 -87.5t-107 -29.5q-22 0 -26.5 3.5
t-5.5 14.5q-2 18 -2.5 36t-5 33t-15.5 24t-35 9q-49 0 -78 -28t-44 -68t-19 -82.5t-4 -71.5q0 -48 6 -80.5t17.5 -53t27.5 -29t37 -8.5q38 0 64 16t31 58l6 56q3 29 8 47.5t24 18.5h55q25 0 40.5 -5.5t24 -18t11.5 -32.5t3 -49q0 -20 -1.5 -53t-4 -67t-5.5 -62.5t-5 -39.5
q-2 -9 -5 -12t-12 -3h-55z" />
    <glyph glyph-name="H" unicode="H" horiz-adv-x="674" 
d="M515 0q-56 0 -80 22t-24 63q0 22 4 78l9 126h-178l-20 -274q-1 -8 -4 -11.5t-12 -3.5h-55q-56 0 -80 22t-24 63q0 20 3 68.5t8 110.5t10 131t10 130t8 107t3 63q0 15 16 15h55q61 0 82 -26t21 -77q0 -8 -3 -56.5t-8 -116.5h179q3 44 6.5 86t6 77t4 60.5t1.5 37.5
q0 15 16 15h55q61 0 82 -26t21 -77q0 -5 -1.5 -32t-4.5 -68t-6.5 -91.5t-7 -103.5t-7 -103.5t-6.5 -91.5t-5 -68.5t-3 -33.5q-1 -8 -4 -11.5t-12 -3.5h-55z" />
    <glyph glyph-name="I" unicode="I" horiz-adv-x="314" 
d="M155 0q-56 0 -80 22t-24 63q0 20 3 68.5t8 110.5t10 131t10 130t8 107t3 63q0 15 16 15h55q61 0 82 -26t21 -77q0 -5 -1.5 -32t-4.5 -68t-6.5 -91.5t-7 -103.5t-7 -103.5t-6.5 -91.5t-5 -68.5t-3 -33.5q-1 -8 -4 -11.5t-12 -3.5h-55z" />
    <glyph glyph-name="J" unicode="J" horiz-adv-x="479" 
d="M165 146q22 0 35.5 16t22.5 43t14.5 62.5t10.5 75.5q2 18 4 42.5t4.5 63t6 96t8.5 141.5q1 14 3 19t13 5h55q34 0 53.5 -6t29.5 -15t12 -19.5t2 -20.5t-1 -46t-3 -83.5t-5.5 -99.5t-7.5 -94q-6 -57 -18.5 -116.5t-40.5 -108.5t-74.5 -80t-120.5 -31q-41 0 -73.5 10
t-55 27.5t-34.5 41t-12 49.5q0 24 9.5 43.5t25.5 32.5t36.5 20t42.5 7q6 0 8.5 -11.5t7 -26t13.5 -26t29 -11.5z" />
    <glyph glyph-name="K" unicode="K" horiz-adv-x="623" 
d="M598 65q0 -8 -9.5 -20.5t-26 -24.5t-38 -21t-45.5 -9q-37 0 -65 23.5t-50.5 64.5t-41.5 97.5t-39 122.5l-38 -25l-19 -258q-1 -8 -4 -11.5t-12 -3.5h-55q-57 0 -80.5 22.5t-23.5 66.5q0 14 1.5 42.5t4.5 67t6.5 84.5t7.5 94q7 96 11.5 152t6.5 88.5t3 48t1 29.5
q0 15 16 15h55q32 0 51.5 -6.5t30.5 -18.5t15 -29.5t4 -40.5t-2.5 -74.5t-7.5 -115.5q34 42 81.5 104t115.5 153q3 4 8.5 10.5t12 12.5t14 10.5t14.5 4.5q13 0 30 -13.5t32 -33t25.5 -40t10.5 -34.5q0 -29 -52 -86.5t-149 -132.5q17 -29 39 -62.5t44 -68t43 -67t37.5 -58
t26.5 -41.5t10 -18z" />
    <glyph glyph-name="L" unicode="L" horiz-adv-x="448" 
d="M155 0q-56 0 -80 22t-24 63q0 20 3 68.5t8 110.5t10 131t10 130t8 107t3 63q0 15 16 15h55q56 0 77.5 -21.5t21.5 -63.5q0 -5 -0.5 -9t-0.5 -9l-33 -467h180q6 0 11 -3.5t5 -10.5l-4 -59q-2 -30 -16.5 -48.5t-59.5 -18.5h-190z" />
    <glyph glyph-name="M" unicode="M" horiz-adv-x="908" 
d="M685 533q-8 -24 -20.5 -62.5t-27.5 -84.5t-31 -97.5t-32.5 -100.5t-32.5 -93.5t-29 -77.5q-4 -8 -16.5 -12.5t-39.5 -4.5q-17 0 -35 2t-33.5 8t-27 16t-17.5 25q-15 51 -28.5 113.5t-26.5 127.5l-25.5 127.5t-25.5 113.5q0 -14 -1 -48t-2 -79t-2.5 -97t-2.5 -101.5
t-2 -92t-1 -69.5q0 -30 -3.5 -38t-12.5 -8h-55q-57 0 -80.5 22.5t-23.5 66.5q0 12 1.5 40.5t4.5 67.5t6.5 85.5t7.5 94.5q5 65 8.5 108.5t5.5 72.5t3.5 47t2 32t1 26.5t0.5 31.5q0 8 6 11.5t11 3.5h140q39 0 64 -12.5t41 -38.5t26 -67.5t18.5 -98.5t19 -131.5t27.5 -167.5
q16 62 27 103t18.5 68.5t12.5 45.5t9 33.5t9 33.5t12 45l17.5 67.5t26.5 102.5q2 6 7 11.5t18 5.5h156q32 0 51.5 -6.5t30.5 -18.5t15 -29.5t4 -40.5t-2.5 -74.5t-7 -116t-9 -133.5t-9 -128t-7.5 -100t-4 -48q-1 -8 -4 -11.5t-12 -3.5h-55q-57 0 -80.5 22.5t-23.5 58.5
q0 11 2.5 40t6.5 68t9 85.5t9 92.5t7.5 89.5t5.5 76.5z" />
    <glyph glyph-name="N" unicode="N" horiz-adv-x="688" 
d="M499 0q-41 0 -61 12t-29 30q-52 107 -97.5 205t-92.5 198q1 -108 3 -215t4 -215q0 -15 -16 -15h-55q-57 0 -80.5 22.5t-23.5 66.5q0 12 1.5 40.5t4.5 67.5t6.5 85.5t7.5 94.5q6 76 10 126t6.5 84.5t3.5 59t2 48.5q0 15 16 15h80q33 0 54 -7.5t34.5 -20.5t21.5 -29.5
t15 -34.5q24 -62 42.5 -107t32.5 -79t24.5 -59t19.5 -46t18 -40.5t19 -42.5q0 59 -0.5 121.5t-1 122t-1 114.5t-0.5 99q0 9 17 9h55q33 0 52.5 -6.5t30.5 -19t14.5 -30.5t3.5 -41q0 -25 -3 -76.5t-7 -115.5t-9 -132.5t-9.5 -126.5t-8 -98.5t-4.5 -47.5q0 -8 -5.5 -12
t-12.5 -4h-82z" />
    <glyph glyph-name="O" unicode="O" horiz-adv-x="711" 
d="M405 721q73 0 125 -20.5t85 -60t48 -96t15 -128.5q0 -40 -5.5 -87t-20 -94.5t-39.5 -91.5t-64.5 -78t-94.5 -54.5t-130 -20.5q-83 0 -137.5 25t-87 67.5t-46 100.5t-13.5 124q0 78 18 152.5t60.5 132.5t112.5 93.5t174 35.5zM384 566q-35 0 -60.5 -12.5t-43 -33.5
t-28 -47t-16.5 -53.5t-8 -53t-2 -45.5q0 -91 30.5 -133t86.5 -42q46 0 75 29.5t45.5 71t22.5 86t6 75.5q0 73 -25 115.5t-83 42.5z" />
    <glyph glyph-name="P" unicode="P" horiz-adv-x="588" 
d="M155 0q-57 0 -80.5 22.5t-23.5 66.5q0 13 1.5 41.5t4.5 67.5t6.5 85t7.5 94q5 59 8.5 101.5t5.5 73t3.5 51t2 36t1 28.5t0.5 28q0 8 5 11.5t10 3.5q26 0 57 1.5t62 3.5t60 3.5t51 1.5q64 0 110 -15.5t74.5 -45t42 -71.5t13.5 -96q0 -59 -15.5 -113.5t-48.5 -96.5t-85 -67
t-124 -25q-43 0 -73 9l-14 -184q-1 -8 -4 -11.5t-12 -3.5h-46zM317 570q-13 0 -29 -1.5t-34 -3.5q-2 -42 -5 -102t-8 -126q15 -4 29.5 -5.5t26.5 -1.5q35 0 56.5 16.5t33.5 40.5t16 50t4 45q0 43 -19.5 65.5t-70.5 22.5z" />
    <glyph glyph-name="Q" unicode="Q" horiz-adv-x="682" 
d="M545 -118q0 -8 -9 -20.5t-25.5 -25t-39 -21.5t-49.5 -9q-33 0 -57 14.5t-42.5 39.5t-32.5 59.5t-27 73.5q-64 7 -107 34t-68.5 69t-36.5 95.5t-11 114.5q0 78 17.5 152.5t58 133t106.5 94t163 35.5q71 0 121 -20.5t81.5 -59t46 -95t14.5 -128.5q0 -52 -9 -114.5t-34 -121
t-68.5 -106t-113.5 -70.5q15 -15 36 -34t40 -36.5t32.5 -32t13.5 -21.5zM364 566q-45 0 -72 -27t-41.5 -66t-19.5 -81.5t-5 -73.5q0 -87 26.5 -129.5t74.5 -42.5q42 0 68.5 29.5t41.5 71t20 87t5 78.5q0 72 -22 113t-76 41z" />
    <glyph glyph-name="R" unicode="R" horiz-adv-x="617" 
d="M155 0q-57 0 -80.5 22.5t-23.5 66.5q0 12 1.5 40.5t4.5 67.5t6.5 85.5t7.5 94.5q8 101 11.5 164l5.5 99q3 45 6 57.5t13 12.5q31 0 63.5 1.5t62.5 3.5t56.5 3.5t47.5 1.5q64 0 110 -16t74.5 -45t42 -70t13.5 -92q0 -78 -31 -139t-99 -93l84 -120q23 -34 35 -52.5
t12 -27.5q0 -7 -8.5 -19.5t-25 -25t-40 -21.5t-52.5 -9q-32 0 -55.5 21t-42 55.5t-32 79.5t-25.5 94q-36 2 -59 7q-3 -44 -6 -84t-5 -71.5t-4 -52t-2 -24.5q-1 -8 -4 -11.5t-12 -3.5h-50zM317 570q-12 0 -27 -1.5t-32 -3.5q-2 -35 -4.5 -83.5t-6.5 -103.5q35 -8 61 -8
q31 0 50.5 12t30.5 29.5t14.5 37.5t3.5 36q0 41 -20 63t-70 22z" />
    <glyph glyph-name="S" unicode="S" horiz-adv-x="541" 
d="M326 720q94 0 139.5 -41t45.5 -107q0 -56 -31 -85.5t-89 -29.5q-18 0 -23 3.5t-5 14.5q0 10 -1.5 26t-7.5 31t-19 25.5t-36 10.5q-32 0 -57 -19.5t-25 -50.5q0 -27 20.5 -44t51.5 -31.5t67.5 -29.5t67.5 -39.5t51.5 -61t20.5 -92.5q0 -44 -14.5 -82.5t-43 -67t-72 -44.5
t-101.5 -16q-50 0 -92.5 11t-74 27.5t-49.5 36t-18 35.5q0 66 7.5 95t27.5 29q14 0 29.5 -12t35.5 -27t46.5 -27t61.5 -12q14 0 27.5 2.5t24 8.5t17 16t6.5 24q0 25 -19 40t-48 27.5t-62.5 26t-62.5 37t-48 60.5t-19 95q0 65 24.5 110t63 73.5t87 41t96.5 12.5z" />
    <glyph glyph-name="T" unicode="T" horiz-adv-x="544" 
d="M375 570l-38 -555q-1 -15 -11 -15h-55q-56 0 -80 22t-24 63q0 15 1.5 45t4.5 70.5t6.5 88t7.5 96t7.5 96.5t6.5 89h-160q-11 0 -11 14l3 56q1 13 4.5 25.5t11.5 22.5t20.5 16t30.5 6h447q6 0 11 -3t5 -11l-4 -59q-2 -30 -16.5 -48.5t-59.5 -18.5h-108z" />
    <glyph glyph-name="U" unicode="U" horiz-adv-x="659" 
d="M603 326q-3 -30 -9 -66.5t-18.5 -74t-33.5 -72.5t-54 -62.5t-79.5 -44t-110.5 -16.5q-65 0 -111 18.5t-75 51t-42 75.5t-13 92q0 22 2 59.5t5.5 81.5t7.5 91.5t7.5 90.5t6.5 77.5t4 52.5q1 19 5 24.5t12 5.5h55q61 0 82 -26t21 -77q0 -3 -1.5 -26.5t-4 -57.5t-5 -74
t-5 -76t-4 -63t-1.5 -36q0 -17 1.5 -39t8 -42t21 -33.5t41.5 -13.5q34 0 55.5 23t33 55t16 65t6.5 54q4 51 8.5 105t8 101t5.5 82t2 48q0 20 3 25.5t13 5.5h55q34 0 53.5 -6t29.5 -16t12.5 -23t2.5 -27q0 -13 -1.5 -49t-3.5 -82t-5 -95t-7 -86z" />
    <glyph glyph-name="V" unicode="V" horiz-adv-x="623" 
d="M307 149q21 70 36 123t30 109t32 126t43 174q5 19 11.5 24.5t29.5 5.5q10 0 31.5 -1.5t43.5 -9t39 -22t17 -41.5q0 -24 -13.5 -73.5t-34.5 -112.5t-46.5 -131.5t-50.5 -129.5t-45.5 -107t-30.5 -64q-11 -19 -39 -19h-105q-25 0 -41.5 9.5t-27.5 25.5t-18 36.5t-12 41.5
q-34 142 -58.5 246.5t-40.5 175t-24 108.5t-8 47q0 11 16 16.5t54 5.5q40 0 65.5 -8t41 -22.5t23 -34t10.5 -42.5q3 -17 6 -40.5t10.5 -71.5t20.5 -129.5t35 -214.5z" />
    <glyph glyph-name="W" unicode="W" horiz-adv-x="946" 
d="M668 149q10 53 18 92.5t14 73.5t11.5 67.5t12 75t15 95t20.5 128.5q3 19 10 24.5t35 5.5q11 0 33 -1.5t44 -9t38.5 -23t16.5 -43.5q0 -16 -6 -49.5t-16.5 -77t-24 -94.5t-27.5 -103t-28.5 -101t-27 -88.5t-22.5 -66.5t-14 -35q-6 -11 -17 -15t-22 -4h-95q-26 0 -43.5 10
t-29 26t-18 36t-8.5 41l-50 449l-13.5 -99t-16 -112t-16.5 -112t-16 -100.5t-15 -77.5t-12 -42q-5 -11 -16 -15t-23 -4h-95q-25 0 -41.5 9.5t-27.5 25.5t-18 36.5t-12 41.5q-41 163 -66.5 268t-40.5 168.5t-20.5 93t-5.5 42.5q0 17 10.5 22t44.5 5q42 0 70.5 -6t46.5 -18.5
t27.5 -33t12.5 -49.5q0 -4 1 -11.5t2.5 -24.5t5 -46.5t9 -78.5t14 -121.5t20.5 -173.5q11 61 17.5 98.5t11.5 66t9 55t9.5 66t13 99.5l19.5 156q1 7 8.5 11t18.5 6t24.5 2.5t25.5 0.5q40 0 68 -4.5t46.5 -15.5t29.5 -29.5t18 -45.5q3 -13 7 -35.5t9.5 -71.5t14 -134.5
t22.5 -224.5z" />
    <glyph glyph-name="X" unicode="X" horiz-adv-x="640" 
d="M604 21q0 -14 -16.5 -18t-46.5 -4q-38 0 -65 4t-45.5 12t-30.5 19.5t-19 27.5l-84 175q-35 -54 -69 -108.5t-74 -115.5q-2 -3 -14.5 -13t-26.5 -10t-31.5 15.5t-32.5 37t-25 46t-10 42.5q0 21 22 50.5t55 61t71.5 61.5t72.5 53q-41 70 -77 129.5t-62 104.5t-41 72t-15 32
t17 10t49 5q39 0 68.5 -5t51 -17t37.5 -32t29 -49l55 -125q21 27 37 51t33 50t37 56t47 69q9 12 25 12q18 0 36.5 -16.5t33.5 -39t24.5 -46t9.5 -37.5q0 -19 -23.5 -48t-57.5 -60t-72 -60.5t-67 -48.5q12 -24 31 -55.5t40.5 -66t43.5 -69t39.5 -64.5t28.5 -53.5t11 -34.5z
" />
    <glyph glyph-name="Y" unicode="Y" horiz-adv-x="609" 
d="M296 0q-60 0 -82 23.5t-22 72.5q0 17 2 55t9 118q-8 15 -14 26t-12 23t-13 28t-18 40q-17 37 -38.5 86t-41.5 94.5t-33.5 80.5t-13.5 44q0 21 67 21q42 0 67.5 -8.5t41.5 -23t24 -34t15 -41.5q9 -29 13 -43t6.5 -23t5.5 -17.5t8.5 -26.5t15.5 -50t28 -88q29 61 46.5 99
t30.5 70.5t24.5 67t29.5 87.5q6 19 12.5 24.5t20.5 5.5q5 0 27.5 -1.5t47 -7.5t44.5 -19t20 -35q0 -17 -11.5 -48t-30 -69.5t-43 -81.5t-50.5 -84t-51.5 -75.5t-46.5 -56.5q-1 -24 -2.5 -57t-4 -65.5t-4.5 -59t-3 -36.5q-1 -8 -4 -11.5t-12 -3.5h-55z" />
    <glyph glyph-name="Z" unicode="Z" horiz-adv-x="554" 
d="M18 0q-11 0 -11 11l3 54q1 9 3 22.5t9 22.5q17 31 41 67t58 88t79.5 125.5t105.5 179.5h-228q-8 0 -9.5 3t-1.5 11l3 56q1 13 3.5 25.5t10 22.5t21.5 16t37 6h382q6 0 11 -3t5 -11l-4 -54q-2 -26 -12 -43q-3 -5 -29 -47.5t-66 -107.5t-89.5 -145t-99.5 -159h254
q6 0 11 -3t5 -11l-4 -59q-2 -30 -16.5 -48.5t-59.5 -18.5h-412z" />
    <glyph glyph-name="bracketleft" unicode="[" horiz-adv-x="400" 
d="M114 -185q-44 0 -62.5 23t-18.5 62q0 10 2 40t4.5 72.5t6 92.5t7.5 100t7 95t6 77q4 52 8 108.5t7.5 105t5.5 85t2 49.5q0 15 16 15h287q6 0 11 -3t5 -11l-4 -59q-2 -30 -16.5 -48.5t-59.5 -18.5h-92q-2 -28 -5 -73.5t-6.5 -101.5t-8 -118.5t-8.5 -125t-8.5 -121
t-7.5 -105.5h141q6 0 11 -3t5 -11l-4 -59q-2 -30 -16.5 -48.5t-59.5 -18.5h-155z" />
    <glyph glyph-name="backslash" unicode="\" horiz-adv-x="329" 
d="M199 -10q-22 0 -30.5 5.5t-13.5 32.5q-26 162 -44.5 268.5t-30.5 174t-17.5 104t-5.5 57.5q0 18 2 32.5t10 24.5t25.5 15.5t48.5 5.5q12 0 21 -4t13 -25q28 -155 47 -261.5t30.5 -177.5t16.5 -112t5 -65q0 -27 -6 -42t-16.5 -22.5t-24.5 -9t-30 -1.5z" />
    <glyph glyph-name="bracketright" unicode="]" horiz-adv-x="400" 
d="M278 740q45 0 64.5 -22t19.5 -63q0 -10 -2 -40t-4.5 -72.5t-6 -92.5t-7.5 -100t-7.5 -95t-5.5 -77q-4 -53 -8 -109t-7.5 -104.5t-5.5 -85t-2 -49.5q0 -15 -16 -15h-287q-16 0 -16 14l4 59q2 30 16.5 48.5t59.5 18.5h92l43 645h-140q-16 0 -16 14l4 59q2 30 16.5 48.5
t59.5 18.5h152z" />
    <glyph glyph-name="asciicircum" unicode="^" horiz-adv-x="457" 
d="M366 148q-11 0 -26 13t-32 34t-36 48.5t-37 56.5q-24 -29 -49 -56.5t-47.5 -48.5t-40.5 -34t-28 -13q-7 0 -15.5 5.5t-16 13t-13 14.5t-5.5 10q0 6 15.5 27t39.5 50.5t52.5 63.5t54.5 65q6 7 26.5 11t39.5 4q13 0 30.5 -3t22.5 -12q22 -36 43.5 -72t38.5 -65t27.5 -48
t10.5 -21t-6 -9t-14.5 -14.5t-18 -13.5t-16.5 -6z" />
    <glyph glyph-name="underscore" unicode="_" horiz-adv-x="526" 
d="M35 -150q-11 0 -11 11l3 54q1 13 3.5 25.5t10 22.5t21.5 16t37 6h332q6 0 11 -3.5t5 -10.5l-4 -54q-2 -30 -16.5 -48.5t-59.5 -18.5h-332z" />
    <glyph glyph-name="grave" unicode="`" horiz-adv-x="211" 
d="M144 615q-12 0 -34 19.5t-44.5 45.5t-39 51.5t-16.5 36.5q0 9 12.5 19.5t30 19.5t36.5 15.5t31 6.5q8 0 12.5 -2.5t8.5 -12.5q10 -26 20.5 -51.5t19.5 -46.5t14.5 -35.5t5.5 -17.5q0 -6 -6.5 -14.5t-15.5 -16t-19 -12.5t-16 -5z" />
    <glyph glyph-name="a" unicode="a" horiz-adv-x="563" 
d="M11 123q0 90 81 141t239 55q1 11 1.5 18.5t0.5 18.5q0 32 -12 51t-50 19q-21 0 -34 -6t-21 -16.5t-13 -25.5t-9 -33q-2 -9 -9 -11.5t-22 -2.5q-102 0 -102 77q0 31 14.5 59t43 48.5t71.5 32.5t100 12q111 0 161 -46t50 -130q0 -11 -2.5 -39.5t-6 -60t-6 -59.5t-2.5 -39
q0 -25 9 -35.5t20.5 -14.5t20.5 -6t9 -10q0 -22 -6 -45t-19.5 -42t-37 -31t-57.5 -12q-48 0 -72 23t-32 64q-24 -35 -62.5 -61t-100.5 -26q-30 0 -56.5 7t-46 23t-31 41.5t-11.5 61.5zM322 237q-26 0 -51 -4t-44.5 -12.5t-31.5 -22.5t-12 -34q0 -23 14.5 -32t31.5 -9
q16 0 32 7t28.5 21.5t21.5 35.5t11 50z" />
    <glyph glyph-name="b" unicode="b" horiz-adv-x="600" 
d="M270 -10q-77 0 -122 22.5t-68 56.5t-29 73.5t-6 72.5q0 13 2.5 51t6.5 88t8 106.5t8 107t6.5 89.5t2.5 54q0 22 3 25.5t18 3.5h39q30 0 50 -7t32 -19t17 -27.5t5 -33.5q0 -17 -3.5 -66t-8.5 -115q26 45 59 66.5t87 21.5q91 0 139.5 -60t48.5 -179q0 -31 -4.5 -68
t-16 -73.5t-32 -71t-53.5 -60.5t-79.5 -42t-109.5 -16zM315 427q-36 0 -56.5 -19t-31.5 -46t-14 -57.5t-3 -53.5q0 -69 19 -98.5t57 -29.5q36 0 56.5 22.5t31 53.5t13.5 63t3 50q0 56 -17 85.5t-58 29.5z" />
    <glyph glyph-name="c" unicode="c" horiz-adv-x="508" 
d="M293 123q29 0 50.5 8t37.5 18t27 18t20 8q23 0 23 -30q0 -7 -3 -19.5t-8 -26t-10.5 -25.5t-10.5 -18q-5 -5 -17.5 -16t-33.5 -22t-49 -19.5t-62 -8.5q-38 0 -78.5 11.5t-73.5 40t-54.5 77t-21.5 121.5q0 26 3.5 59.5t14.5 69t29.5 70t49.5 61.5t74.5 43.5t103.5 16.5
q49 0 84.5 -11.5t58.5 -31t34.5 -45.5t11.5 -56q0 -54 -34 -79.5t-96 -25.5q-15 0 -20.5 2.5t-5.5 11.5q0 24 -1 43t-5.5 32t-13.5 20t-26 7q-31 0 -49.5 -20t-28 -48.5t-12 -58.5t-2.5 -50q0 -71 22.5 -99t71.5 -28z" />
    <glyph glyph-name="d" unicode="d" horiz-adv-x="608" 
d="M224 -10q-39 0 -74.5 14t-62 44t-42 76t-15.5 111q0 29 4 64.5t14 71.5t28 70t45.5 60.5t66 42.5t90.5 16q50 0 80.5 -17.5t38.5 -60.5q2 39 4 68t3.5 54t3.5 50t4 57q1 22 5 26q2 2 5 2.5t11 0.5h39q30 0 50 -7t32 -19t17 -27.5t5 -32.5l-2 -25t-5 -66.5t-7 -94.5
t-8 -109.5t-8 -112t-8 -102t-6.5 -80t-3.5 -44.5q-2 -12 -5 -16t-17 -4h-36q-21 0 -39.5 3.5t-32 12t-21 23t-7.5 37.5q-18 -38 -54.5 -62t-91.5 -24zM311 427q-51 0 -75.5 -44.5t-24.5 -119.5q0 -26 3.5 -51t12.5 -45t24.5 -32t39.5 -12q43 0 72 42t29 132q0 25 -3 48.5
t-12 41.5t-25 29t-41 11z" />
    <glyph glyph-name="e" unicode="e" horiz-adv-x="532" 
d="M272 -10q-44 0 -87.5 11t-78 38t-56.5 72t-22 113q0 25 4 60t15.5 72t32 73.5t53.5 65.5t80 47t112 18q52 0 88 -12t58 -32.5t32 -47.5t10 -58q0 -46 -18.5 -78t-48 -53.5t-65.5 -33.5t-71 -18.5t-64.5 -8t-45.5 -1.5q0 -19 5.5 -37.5t16.5 -32.5t29 -23t44 -9t40.5 8.5
t23.5 19t15.5 19t17.5 8.5q5 0 17.5 -2.5t25.5 -10.5t23 -22t10 -36q0 -29 -18 -50t-46.5 -34t-63.5 -19t-68 -6zM291 427q-22 0 -37.5 -12.5t-26 -31.5t-16 -42t-8.5 -44q62 1 100.5 21t38.5 57q0 20 -12.5 36t-38.5 16z" />
    <glyph glyph-name="f" unicode="f" horiz-adv-x="451" 
d="M248 346q-2 -30 -5 -65t-6 -70.5t-5.5 -69.5t-4.5 -60t-3.5 -43t-1.5 -18q-1 -12 -5 -16t-17 -4h-36q-54 0 -75.5 25.5t-21.5 76.5q0 6 1.5 30t4 57.5t5.5 74.5l6 82h-47q-11 0 -11 11q0 8 1 23.5t2 30.5q1 12 3.5 24.5t9 22t19.5 16t34 7.5l4 40q6 65 24.5 109
t48.5 70.5t71.5 38t92.5 11.5q50 0 85.5 -9t57.5 -25t32 -38t10 -47q0 -52 -32.5 -74t-87.5 -22q-15 0 -20.5 2.5t-5.5 11.5q0 33 -6 52t-33 19q-20 0 -34 -12t-23 -31.5t-13.5 -44.5t-7.5 -51h115q16 0 16 -14l-4 -54q-2 -30 -16.5 -48.5t-59.5 -18.5h-61z" />
    <glyph glyph-name="g" unicode="g" horiz-adv-x="607" 
d="M368 118q-25 -45 -61 -66.5t-90 -21.5q-41 0 -75 13t-58 41t-37.5 70.5t-13.5 101.5q0 48 10 101.5t36.5 98.5t72.5 74.5t118 29.5q30 0 51.5 -6.5t37 -17.5t25 -26t14.5 -32q0 -1 0.5 7.5t1.5 19.5t1.5 21.5t0.5 13.5q1 10 13 10h46q52 0 75.5 -21.5t23.5 -81.5
q0 -8 -1 -36.5t-3.5 -68.5t-6.5 -88.5t-9 -97.5t-11 -94t-13 -79t-24 -66t-48 -57t-79.5 -40t-118.5 -15q-53 0 -92.5 10t-65.5 26.5t-39.5 37.5t-13.5 42q0 19 8 33t21 23t28.5 13.5t29.5 4.5q17 0 25 -10l18 -22.5t28 -22.5t56 -10q66 0 92.5 48.5t26.5 139.5zM284 163
q36 0 56.5 17t31.5 41t14 50t3 45q0 60 -18.5 85.5t-55.5 25.5t-58 -20t-31.5 -47.5t-13.5 -55t-3 -42.5q0 -50 17 -74.5t58 -24.5z" />
    <glyph glyph-name="h" unicode="h" horiz-adv-x="608" 
d="M373 124q3 33 6.5 69t6 69t4.5 59t2 38q0 26 -12.5 46.5t-48.5 20.5q-48 0 -77.5 -45t-34.5 -120q-2 -21 -5 -58.5t-6 -76t-5.5 -69t-2.5 -37.5q0 -12 -4.5 -16t-17.5 -4h-36q-31 0 -50.5 6.5t-31 18.5t-16 29.5t-4.5 40.5q0 22 3.5 61.5t9.5 109t14 177.5t17 268
q1 22 5 26q3 3 16 3h39q30 0 50 -7t32 -19t17 -27.5t5 -32.5q0 -18 -3.5 -67t-8.5 -115q30 50 66.5 69t92.5 19q42 0 73 -9t51.5 -30.5t30.5 -56t10 -85.5q0 -16 -3 -55t-7.5 -89t-9 -104.5t-7.5 -99.5q-1 -11 -2 -17t-3.5 -9t-7.5 -4t-14 -1h-32q-32 0 -52 6t-31 17
t-15.5 27.5t-4.5 37.5q0 10 0.5 19t1.5 17z" />
    <glyph glyph-name="i" unicode="i" horiz-adv-x="281" 
d="M144 0q-31 0 -50.5 6.5t-31 18.5t-16 29.5t-4.5 40.5q0 15 1.5 42.5t5.5 76t9.5 123t13.5 184.5q1 22 5 26q3 3 16 3h39q31 0 50.5 -6t31 -18t16 -29t4.5 -38q0 -15 -2 -45t-5.5 -81.5t-9.5 -128t-15 -184.5q-1 -12 -5 -16t-17 -4h-36zM73 668q0 40 29 63t78 23
q43 0 62.5 -17.5t19.5 -46.5q0 -37 -27.5 -61.5t-80.5 -24.5q-81 0 -81 64z" />
    <glyph glyph-name="j" unicode="j" horiz-adv-x="279" 
d="M71 535q0 9 3 12t19 3h36q25 0 44.5 -6.5t33 -16t20.5 -21.5t7 -24q0 -6 -1.5 -32.5t-4.5 -66t-6.5 -87t-7 -96t-7 -93.5t-5.5 -78q-5 -71 -22.5 -114.5t-42.5 -68t-56 -33t-64 -8.5q-29 0 -58.5 5.5t-53.5 16.5t-39 28t-15 40q0 24 14.5 38t34 21t38 9t27.5 2
q3 0 5.5 -5.5t6 -12t9.5 -12t17 -5.5q12 0 18.5 9.5t10.5 31.5t7 58.5t6 91.5zM61 668q0 40 29 63t78 23q43 0 62.5 -17.5t19.5 -46.5q0 -37 -27.5 -61.5t-80.5 -24.5q-81 0 -81 64z" />
    <glyph glyph-name="k" unicode="k" horiz-adv-x="539" 
d="M516 81q0 -5 -5 -20t-16 -31t-27.5 -28t-39.5 -12q-27 0 -53.5 18t-52.5 49t-52.5 73.5t-53.5 92.5q-4 -53 -8 -104t-8 -99q-1 -12 -5 -16t-17 -4h-36q-31 0 -51 6.5t-31 18.5t-15.5 30.5t-4.5 42.5q0 12 1 25t3 37t5.5 63t8.5 103t11.5 157.5t14.5 227.5q1 22 5 26
q3 3 16 3h39q31 0 51 -7t32 -19t16.5 -28t4.5 -33q0 -10 -1.5 -33.5t-3.5 -57t-5.5 -75.5t-6.5 -88l160 146q9 8 16.5 11t11.5 3q11 0 24 -14t24.5 -32.5t19 -38t7.5 -31.5q0 -29 -46.5 -61t-140.5 -72q42 -47 80 -86t66.5 -69t45.5 -49t17 -25z" />
    <glyph glyph-name="l" unicode="l" horiz-adv-x="302" 
d="M157 -9q-62 0 -89 33t-27 109q0 12 1.5 30t4 46.5t6.5 70.5t8.5 102t10 141t11.5 188q1 22 5 26q3 3 16 3h39q30 0 50 -7t32 -19t17 -27.5t5 -32.5q0 -20 -2.5 -57.5t-6.5 -84.5t-8 -98t-8 -97.5t-6.5 -83.5t-2.5 -56q0 -26 9.5 -37t20.5 -15.5t20.5 -6t9.5 -6.5
q0 -22 -5 -43.5t-18 -39t-35.5 -28t-57.5 -10.5z" />
    <glyph glyph-name="m" unicode="m" horiz-adv-x="902" 
d="M214 180q-3 -46 -7 -87.5t-6 -72.5q-1 -12 -5 -16t-17 -4h-36q-31 0 -50.5 6.5t-31 18.5t-16 29.5t-4.5 40.5q0 15 1.5 42.5t5.5 76t9.5 123t13.5 184.5q1 22 5 26q3 3 16 3h39q30 0 49 -7t31 -18t17 -26t6 -31q29 54 66 73t87 19q27 0 52 -5t45 -17t34 -31.5t20 -49.5
q31 58 68 80.5t93 22.5q31 0 59.5 -6.5t49.5 -22.5t33.5 -43.5t12.5 -68.5q0 -31 -3 -76t-7 -97.5t-9 -108t-8 -106.5q-1 -11 -2 -17t-3.5 -9t-7.5 -4t-14 -1h-32q-32 0 -52 6t-31 17t-15.5 27.5t-4.5 37.5q0 13 1.5 37t4 52t5 58t5 55.5t4 44.5t1.5 25q0 26 -10.5 46
t-40.5 20q-26 0 -45 -17t-32 -47t-21 -71t-11 -89q-2 -31 -5 -71t-7 -100q-1 -11 -2 -17t-3.5 -9t-7.5 -4t-14 -1h-32q-32 0 -52 6t-31 17t-15.5 27.5t-4.5 37.5q0 20 3.5 58.5t7 80t7 79t3.5 54.5q0 26 -10.5 46t-40.5 20q-27 0 -46 -20t-31.5 -53.5t-20 -78.5t-10.5 -94z
" />
    <glyph glyph-name="n" unicode="n" 
d="M382 88q0 22 3.5 57.5t7 75t7 76.5t3.5 62q0 26 -12.5 46.5t-48.5 20.5q-35 0 -58 -17t-38.5 -62t-25.5 -124t-19 -203q-1 -12 -5 -16t-17 -4h-36q-31 0 -50.5 6.5t-31 18.5t-16 29.5t-4.5 40.5q0 15 1.5 42.5t5.5 76t9.5 123t13.5 184.5q1 22 5 26q3 3 16 3h39
q30 0 49.5 -7t31.5 -18.5t17 -27t6 -31.5q31 53 71 73.5t100 20.5q42 0 73 -9t51.5 -30.5t30.5 -56t10 -85.5q0 -16 -2 -46t-5 -65.5t-6.5 -74l-6.5 -71.5t-5 -58t-2 -33q0 -22 -5 -26.5t-22 -4.5h-32q-32 0 -52 6t-31 17t-15.5 27.5t-4.5 37.5z" />
    <glyph glyph-name="o" unicode="o" horiz-adv-x="598" 
d="M265 -10q-69 0 -114.5 19.5t-72.5 53.5t-38 79.5t-11 97.5q0 60 14.5 117.5t49.5 102.5t92.5 72.5t143.5 27.5q126 0 180.5 -61.5t54.5 -172.5q0 -31 -4.5 -68.5t-17 -74.5t-34 -72t-54.5 -62t-79.5 -43t-109.5 -16zM312 427q-38 0 -60.5 -19.5t-34 -47t-15 -58
t-3.5 -51.5q0 -66 21 -97t60 -31q35 0 57.5 22t35 53t17 65t4.5 57q0 50 -18.5 78.5t-63.5 28.5z" />
    <glyph glyph-name="p" unicode="p" horiz-adv-x="612" 
d="M387 560q94 0 141.5 -58t47.5 -183q0 -78 -18 -139t-50 -103.5t-75 -64.5t-93 -22q-53 0 -83 23t-47 65q-3 -36 -5 -55t-3 -30.5t-1.5 -20.5t-2 -24t-3.5 -41t-6 -72q-1 -12 -5 -16t-17 -4h-36q-31 0 -50.5 6.5t-31 18.5t-16 29.5t-4.5 40.5q0 10 3 54t7.5 105.5
t10 132.5t10.5 135.5t8.5 114.5t5.5 69q1 22 5 26q3 3 16 3h39q54 0 78.5 -22.5t24.5 -53.5q23 46 59.5 66t90.5 20zM314 427q-51 0 -75 -44t-24 -120q0 -26 3.5 -51t12.5 -45t24.5 -32t39.5 -12q43 0 72 42t29 132q0 25 -3.5 48.5t-12.5 41.5t-25 29t-41 11z" />
    <glyph glyph-name="q" unicode="q" horiz-adv-x="609" 
d="M276 560q49 0 80 -24.5t40 -61.5q0 5 0.5 17.5t2.5 25.5t6 23t10 10h45q51 0 77.5 -22t26.5 -64q0 -9 -1 -25t-4 -44.5t-6.5 -73t-8.5 -111t-11.5 -158t-13.5 -213.5q-1 -29 -21 -29h-39q-30 0 -50 7t-32 19t-17 27.5t-5 33.5q0 17 3.5 66t8.5 115q-23 -41 -60.5 -64.5
t-94.5 -23.5q-41 0 -74 13.5t-56.5 43t-36.5 76t-13 112.5q0 161 63.5 243t180.5 82zM312 427q-35 0 -56 -19t-31.5 -46.5t-13.5 -57.5t-3 -52q0 -69 18.5 -99t56.5 -30q36 0 57 23t31.5 53.5t13.5 62t3 49.5q0 57 -17 86.5t-59 29.5z" />
    <glyph glyph-name="r" unicode="r" horiz-adv-x="479" 
d="M364 311q-6 0 -13.5 0.5t-14.5 2t-12 4t-5 6.5q0 13 1 24t1 23q0 22 -6 36t-24 14q-28 0 -46.5 -36.5t-23.5 -109.5q-2 -32 -5.5 -72.5t-6.5 -78t-5 -66.5t-2 -38q0 -10 -7 -15t-15 -5h-36q-31 0 -50.5 6.5t-31 18.5t-16 29.5t-4.5 40.5q0 15 1.5 42.5t5.5 76t9.5 123
t13.5 184.5q2 29 21 29h39q28 0 47 -6t31 -16.5t17.5 -24.5t7.5 -29q12 23 28.5 39.5t34.5 27t37 15t35 4.5q19 0 38.5 -7t35.5 -21t25.5 -36t9.5 -52q0 -27 -8 -51t-23 -42.5t-36.5 -29t-47.5 -10.5z" />
    <glyph glyph-name="s" unicode="s" horiz-adv-x="470" 
d="M274 560q85 0 125 -33.5t40 -85.5q0 -44 -27.5 -67t-79.5 -23q-14 0 -19 3t-5 11q0 9 -1.5 20.5t-7 22t-17 17.5t-32.5 7q-28 0 -45 -13.5t-17 -33.5q0 -21 17.5 -33.5t44 -23.5t57.5 -22.5t57.5 -30.5t44 -47.5t17.5 -73.5q0 -72 -51 -118t-153 -46q-28 0 -64.5 4.5
t-69.5 14t-55.5 25.5t-22.5 40q0 9 3.5 22t11 25t18 20.5t25.5 8.5q12 0 22 -6t23.5 -12.5t33.5 -12.5t53 -6q25 0 44.5 6t19.5 27q0 19 -16 30.5t-40.5 21.5t-53 21.5t-53 30.5t-40.5 48.5t-16 76.5q0 51 20.5 86.5t53 57.5t73.5 31.5t82 9.5z" />
    <glyph glyph-name="t" unicode="t" horiz-adv-x="399" 
d="M256 415q-3 -38 -6.5 -75t-6.5 -70t-4.5 -59t-1.5 -40q0 -26 6 -34.5t20 -8.5q11 0 19 4t15 9t12.5 9t12.5 4t13 -8t6 -37q0 -55 -30 -87t-103 -32q-72 0 -106.5 33.5t-34.5 102.5q0 15 1.5 35.5t4.5 53.5t7.5 81t9.5 119h-53q-8 0 -9.5 3.5t-1.5 10.5l3 51
q1 13 3.5 25.5t10 22.5t21.5 16t37 6q7 18 16 43t18 48.5t17.5 39.5t15.5 16h29q42 0 58 -26t16 -62q0 -20 -3 -59h105q16 0 16 -14l-4 -54q-2 -30 -16.5 -48.5t-59.5 -18.5h-53z" />
    <glyph glyph-name="u" unicode="u" horiz-adv-x="600" 
d="M232 465q0 -21 -3.5 -59t-7 -79t-7 -77t-3.5 -52q0 -35 17.5 -54.5t48.5 -19.5q27 0 45.5 21.5t30 56t18.5 78.5t10.5 89t6 87.5t5.5 73.5q1 8 6 14t16 6h36q31 0 50.5 -6.5t31 -18.5t16 -29.5t4.5 -40.5q0 -15 -1.5 -42.5t-5.5 -76t-9.5 -123t-13.5 -184.5
q-2 -21 -4.5 -25t-16.5 -4h-39q-30 0 -49.5 7t-31.5 18t-17 26t-6 31q-15 -26 -33.5 -44t-38.5 -28.5t-41 -15t-41 -4.5q-38 0 -68 12.5t-50.5 33.5t-31.5 50t-11 62q0 13 1.5 42.5t4 66.5t5.5 78.5t5.5 78.5t5 65t3.5 40q2 18 8 24.5t20 6.5h32q31 0 51 -6t31.5 -17
t16 -26.5t4.5 -35.5z" />
    <glyph glyph-name="v" unicode="v" horiz-adv-x="560" 
d="M270 127q12 42 22.5 83t21 87.5t23 102t29.5 126.5q3 14 9 18.5t26 4.5q15 0 40 -1t49 -7t41.5 -18t17.5 -33q0 -17 -12 -55t-31 -86.5t-42.5 -101.5t-45.5 -100t-41 -82.5t-28 -49.5q-8 -11 -14 -13t-20 -2h-89q-21 0 -34.5 7.5t-22.5 19.5t-15 27.5t-11 32.5
q-29 100 -50.5 171.5t-36.5 119.5t-24 76.5t-14 44t-7 21t-2 7.5q1 7 10 15t23 8q46 0 78.5 -3.5t54 -12.5t33 -25t16.5 -42l4 -28t6.5 -50.5t8.5 -65t9.5 -71t9 -68.5t8.5 -57z" />
    <glyph glyph-name="w" unicode="w" horiz-adv-x="839" 
d="M577 107q13 73 22.5 127.5t16 94.5t11 69t8 51.5t6 40t5.5 36.5q2 11 10.5 17t32.5 6q13 0 36.5 -1.5t46.5 -7.5t39.5 -18.5t16.5 -34.5q0 -16 -9 -47.5t-23 -72.5t-32 -87.5t-36.5 -92t-35.5 -86.5t-29 -71q-8 -18 -15.5 -24t-26.5 -6h-59q-28 0 -46 7t-29 19t-17 27.5
t-9 33.5q-10 51 -21 137t-20 203q-5 -22 -11.5 -59t-14 -80t-15.5 -88t-15 -83.5t-13 -66t-10 -35.5q-5 -10 -12.5 -12.5t-21.5 -2.5h-70q-26 0 -44.5 7.5t-32 19.5t-22 27.5t-12.5 32.5q-55 214 -82.5 323t-27.5 117q0 9 9 16t23 7q43 0 74 -3.5t51.5 -12.5t31.5 -25
t14 -42q1 -14 4 -57t6.5 -97.5t7 -110.5t6.5 -95q12 62 19.5 99t12.5 62t8.5 44t8.5 45t11.5 65t18.5 104q4 24 53 24q31 0 58 -2t48 -9.5t36 -22t21 -39.5q2 -7 3.5 -14t3.5 -20t4.5 -36t6 -62t8.5 -97t13 -141z" />
    <glyph glyph-name="x" unicode="x" horiz-adv-x="555" 
d="M308 369q21 27 41 60.5t37.5 62t31.5 48t23 19.5q7 0 20.5 -11t27 -28t23.5 -38.5t10 -42.5q0 -43 -43 -82.5t-112 -87.5q43 -64 73 -109t49.5 -74.5t28.5 -45.5t9 -22q0 -7 -8 -12.5t-22 -5.5h-68q-52 0 -85 25t-56 73l-40 80q-38 -43 -62.5 -78t-40.5 -59.5t-26 -38
t-20 -13.5q-7 0 -21.5 7t-29.5 20.5t-26 33t-11 45.5q0 22 10 42.5t31.5 41t54.5 43.5t80 51q-33 59 -60.5 103t-47 74.5t-30.5 49.5t-11 29t13.5 15.5t49.5 5.5q39 0 65 -6.5t44 -18.5t29.5 -29t22.5 -38z" />
    <glyph glyph-name="y" unicode="y" horiz-adv-x="610" 
d="M232 458q0 -23 -3 -54.5t-6.5 -63t-6.5 -59t-3 -42.5q0 -38 18.5 -56.5t45.5 -18.5q47 0 75 49t35 130l16 187q1 11 7.5 15.5t14.5 4.5h36q21 0 39.5 -3.5t32.5 -13t22 -25.5t8 -41q0 -10 -1.5 -37.5t-5 -79t-9.5 -130t-14 -191.5q-5 -66 -29.5 -109.5t-61.5 -69
t-83 -35.5t-94 -10q-51 0 -93.5 9t-73.5 25t-48.5 37t-17.5 45q0 19 8.5 33t22.5 23t32.5 13.5t38.5 4.5q10 0 14.5 -10t14 -22.5t30.5 -22.5t63 -10q37 0 60 18t35.5 46t16.5 61t4 63q-16 -28 -35.5 -45.5t-40.5 -27t-42 -12.5t-40 -3q-37 0 -67.5 10t-52.5 32.5t-34 58.5
t-12 87q0 19 2 50.5t5 71t6.5 85.5t7.5 94q2 31 28 31h32q32 0 52 -6t31.5 -17.5t15.5 -29t4 -39.5z" />
    <glyph glyph-name="z" unicode="z" horiz-adv-x="513" 
d="M13 0q-11 0 -11 11l3 54q1 27 18.5 52t49.5 62t79 93.5t109 147.5h-188q-8 0 -9.5 3.5t-1.5 10.5l3 46q1 13 3.5 25.5t10 22.5t21.5 16t37 6h342q6 0 11 -3t5 -11l-4 -54q-1 -25 -20 -53q-3 -5 -26 -32t-56.5 -68.5t-74 -93t-79.5 -105.5h214q6 0 11 -3t5 -11l-4 -49
q-2 -30 -16.5 -48.5t-59.5 -18.5h-372z" />
    <glyph glyph-name="braceleft" unicode="{" horiz-adv-x="449" 
d="M255 142q0 -15 -0.5 -28.5t-0.5 -25.5q0 -33 3 -58t11.5 -41.5t24.5 -25t43 -8.5h46q6 0 11 -3t5 -11l-4 -59q-1 -15 -3 -27.5t-8.5 -21t-19.5 -13.5t-35 -5h-72q-51 0 -82 17t-47 44t-21 60.5t-5 66.5q0 24 1 45.5t1 42.5q0 24 -3 45.5t-12 37.5t-26 25.5t-44 9.5
q-16 0 -16 14l7 112q1 8 6.5 11t11.5 3q31 0 50.5 16t30.5 46t17 72.5t12 95.5q8 78 61 119.5t139 41.5h89q17 0 23.5 -9t6.5 -24l-3 -40q-2 -23 -8 -36t-16 -19.5t-23 -8.5t-29 -3q-32 -3 -50.5 -13t-29 -28t-15 -45t-8.5 -63q-6 -51 -26.5 -93.5t-68.5 -68.5
q22 -8 36.5 -23.5t23.5 -35t12.5 -42.5t3.5 -46z" />
    <glyph glyph-name="bar" unicode="|" horiz-adv-x="275" 
d="M135 -185q-31 0 -50.5 6.5t-31 18.5t-16 29.5t-4.5 40.5q0 10 2.5 51t7 102t10.5 137.5t12 159t12.5 165t11.5 156.5q2 21 4.5 25t16.5 4h23q31 0 50.5 -6t31 -18t16 -29t4.5 -38q0 -10 -2.5 -52t-7 -105t-10.5 -142t-12.5 -163t-13 -167t-12.5 -155q-1 -12 -5 -16
t-17 -4h-20z" />
    <glyph glyph-name="braceright" unicode="}" horiz-adv-x="449" 
d="M189 413q0 15 0.5 28.5t0.5 25.5q0 33 -3 58t-11.5 41.5t-24.5 25t-43 8.5h-46q-6 0 -11 3t-5 11l4 59q2 30 16.5 48.5t59.5 18.5h62q51 0 82 -17t47 -44t21 -60.5t5 -66.5q0 -24 -1 -45.5t-1 -42.5q0 -24 3 -45.5t12 -37.5t26 -25.5t44 -9.5q16 0 16 -14l-7 -112
q-1 -8 -6.5 -11t-11.5 -3q-32 0 -51 -16.5t-30 -46.5t-17 -72.5t-12 -94.5q-8 -78 -61 -119.5t-139 -41.5h-89q-17 0 -23.5 9t-6.5 24l3 40q1 23 7 36t16 19.5t23 8.5t30 3q32 3 50.5 13t29 28t15 45t8.5 63q6 51 26.5 93.5t68.5 68.5q-22 8 -36.5 23.5t-23.5 35t-12.5 42.5
t-3.5 46z" />
    <glyph glyph-name="asciitilde" unicode="~" horiz-adv-x="604" 
d="M424 311q25 0 41.5 9.5t28.5 20.5t21.5 20.5t19.5 9.5q5 0 12.5 -6.5t7.5 -33.5q0 -25 -7.5 -50.5t-25.5 -46.5t-48 -34.5t-75 -13.5q-42 0 -74.5 10t-59.5 22.5t-50.5 22.5t-47.5 10t-39 -10t-25.5 -22.5t-19 -22.5t-18.5 -10q-6 0 -13 7t-7 34q0 23 6.5 48.5t23 46.5
t44.5 35t72 14q39 0 70.5 -9.5t59.5 -20.5t53 -20.5t50 -9.5z" />
    <glyph glyph-name="uni00A0" unicode="&#xa0;" horiz-adv-x="215" 
 />
    <glyph glyph-name="exclamdown" unicode="&#xa1;" horiz-adv-x="286" 
d="M157 377q-42 0 -60 20.5t-18 57.5q0 16 4 35t14.5 35.5t30 28t50.5 11.5q45 0 61 -23.5t16 -58.5q0 -20 -5 -39t-16 -34t-30 -24t-47 -9zM135 307q49 0 65.5 -24.5t16.5 -73.5q0 -9 -0.5 -19.5t-1.5 -26.5t-3 -40t-5 -61.5t-7 -91t-9 -126.5q-1 -11 -1.5 -17.5t-2.5 -8.5
q-3 -3 -17 -3h-59q-55 0 -78.5 21.5t-23.5 50.5q0 18 3.5 47.5t9.5 65.5t13.5 75.5t15 78t14.5 73t12 60.5q2 12 6.5 16t15.5 4h36z" />
    <glyph glyph-name="cent" unicode="&#xa2;" horiz-adv-x="511" 
d="M289 123q29 0 50.5 8t37.5 18t27 18t20 8q23 0 23 -30q0 -7 -3 -19.5t-8 -26t-10.5 -25.5t-10.5 -18q-4 -4 -13 -12t-22.5 -16.5t-32 -17t-40.5 -13.5l-8 -81q-2 -12 -5.5 -16t-16.5 -4q-25 0 -41 6.5t-25 18.5t-12.5 29.5t-3.5 40.5v6q-32 7 -62.5 23.5t-54.5 45.5
t-38.5 71.5t-14.5 102.5q0 35 7.5 84.5t31 97t66.5 85t115 49.5q2 17 2.5 35t3 32.5t7.5 24t15 9.5q50 0 67.5 -24t17.5 -67v-4.5t-1 -6.5q68 -12 100 -50t32 -89q0 -54 -34 -79.5t-96 -25.5q-15 0 -20.5 2.5t-5.5 11.5q0 24 -1 43t-5.5 32t-13.5 20t-26 7q-31 0 -49.5 -20
t-28 -48.5t-12 -58.5t-2.5 -50q0 -71 22.5 -99t71.5 -28z" />
    <glyph glyph-name="sterling" unicode="&#xa3;" horiz-adv-x="555" 
d="M26 0q-8 0 -9.5 3.5t-1.5 10.5l6 92q1 11 12.5 16t25.5 14.5t27 28.5t16 60l5 68h-53q-8 0 -9.5 3.5t-1.5 10.5l3 51q1 13 3.5 25.5t10 22.5t21.5 16t37 6l5 70q4 65 22.5 108.5t49 70t72 37.5t91.5 11q51 0 86.5 -9.5t57.5 -26.5t32 -39.5t10 -48.5q0 -51 -32.5 -73
t-87.5 -22q-15 0 -20.5 2.5t-5.5 11.5q-1 38 -6.5 54.5t-31.5 16.5t-41 -15t-23 -38.5t-11 -52.5t-5 -57h140q16 0 16 -14l-4 -54q-2 -30 -16.5 -48.5t-59.5 -18.5h-87l-6 -72q-2 -25 -18.5 -46t-40.5 -35h272q6 0 11 -3.5t5 -10.5l-4 -59q-2 -30 -16.5 -48.5t-59.5 -18.5
h-386z" />
    <glyph glyph-name="currency" unicode="&#xa4;" horiz-adv-x="672" 
d="M293 70q-62 0 -109 14q-35 -32 -60.5 -54.5t-41.5 -22.5q-9 0 -17.5 8t-14.5 19.5t-9.5 23t-3.5 19.5q0 11 10.5 26.5t43.5 45.5q-20 27 -27.5 61t-7.5 72q0 50 13 97.5t45 85.5q-23 27 -40.5 51.5t-17.5 32.5q0 4 6 11t15.5 14t21.5 11.5t23 4.5q21 0 40 -17t39 -41
q31 14 68.5 21t84.5 7q57 0 99 -11.5t71 -34.5q37 31 56.5 45.5t28.5 14.5q6 0 13.5 -7.5t13.5 -18t10 -23t4 -21.5q0 -22 -20.5 -42.5t-46.5 -41.5q8 -34 8 -69q0 -44 -13 -96t-50 -96q31 -36 49 -59t18 -33q0 -6 -7 -13.5t-17.5 -13.5t-23.5 -10.5t-25 -4.5
q-10 0 -18.5 3.5t-18 11.5t-21.5 21.5t-28 33.5q-29 -12 -64 -18.5t-79 -6.5zM338 427q-38 0 -60 -15t-33.5 -36.5t-15 -44.5t-3.5 -38q0 -47 20.5 -68.5t59.5 -21.5q36 0 58 15t35 36.5t17.5 45.5t4.5 42q0 39 -19 62t-64 23z" />
    <glyph glyph-name="yen" unicode="&#xa5;" horiz-adv-x="658" 
d="M406 94q-3 -53 -4.5 -73.5t-17.5 -20.5h-55q-59 0 -81.5 23t-22.5 71h-140q-11 0 -11 11l3 54q1 13 3.5 25.5t10 22.5t21.5 16t37 6h84l3 40l-9 15h-116q-11 0 -11 11l3 54q1 12 3 23.5t8.5 21.5t18 16t31.5 8q-17 39 -36.5 83t-36.5 83.5t-28 68.5t-11 38q0 21 67 21
q42 0 67.5 -8.5t41.5 -23t24 -34t15 -41.5q9 -29 13 -43t6.5 -23t5.5 -17.5t8.5 -26.5t15.5 -50t28 -88q29 61 46.5 99t30.5 70.5t24.5 67t29.5 87.5q5 17 10.5 23.5t22.5 6.5q5 0 27.5 -1.5t47 -7.5t44.5 -19t20 -35q0 -14 -8 -38t-22 -55t-32.5 -66t-39.5 -70h32
q16 0 16 -14l-4 -54q-2 -30 -16.5 -48.5t-59.5 -18.5h-57q-11 -15 -21.5 -28t-20.5 -23v-4h137q16 0 16 -14l-4 -54q-2 -30 -16.5 -48.5t-59.5 -18.5h-81z" />
    <glyph glyph-name="brokenbar" unicode="&#xa6;" horiz-adv-x="274" 
d="M170 315q-20 0 -38.5 3.5t-32.5 13t-22.5 25.5t-8.5 42q0 15 2.5 53.5t6 82.5t6.5 85t5 61q2 21 4.5 25t16.5 4h23q60 0 81 -24t21 -67q0 -19 -2.5 -61.5t-6 -88.5t-6.5 -84.5t-4 -49.5t-9.5 -15.5t-15.5 -4.5h-20zM134 -185q-20 0 -38.5 3.5t-32.5 13t-22.5 25.5
t-8.5 42q0 15 2.5 53.5t6 82.5t6.5 85t5 61q2 21 4.5 25t16.5 4h23q58 0 80 -22.5t22 -56.5q0 -9 -1.5 -32.5t-3 -54t-4 -64.5t-4.5 -63.5t-4 -52t-2 -29.5q-1 -11 -9.5 -15.5t-15.5 -4.5h-20z" />
    <glyph glyph-name="section" unicode="&#xa7;" horiz-adv-x="516" 
d="M326 720q83 0 123.5 -33.5t40.5 -85.5q0 -44 -27.5 -67t-79.5 -23q-16 0 -20 3t-4 11q0 9 -1.5 20.5t-7 22t-17 17.5t-31.5 7q-28 0 -50 -15t-22 -41q0 -24 18.5 -37t45.5 -23t59.5 -20t59.5 -26.5t45.5 -44t18.5 -72.5q0 -48 -25 -87.5t-80 -59.5q24 -17 41.5 -42.5
t17.5 -70.5q0 -36 -12.5 -65.5t-38.5 -51.5t-65 -34t-92 -12q-42 0 -80 7t-66.5 18t-45 23t-16.5 23q0 49 7 69t26 20q12 0 25.5 -6t31.5 -12.5t43 -12.5t59 -6q25 0 43.5 6.5t18.5 29.5q0 21 -17 33t-42 21t-55 19t-55 27.5t-42 46t-17 74.5q0 55 24.5 92.5t63.5 60.5
q-19 17 -30.5 43t-11.5 64q0 51 21.5 87.5t55.5 59t77 33t85 10.5zM209 379q-14 -8 -26 -28.5t-12 -43.5q0 -25 12.5 -42t31 -29t40 -20t39.5 -15q15 8 29 28.5t14 43.5q0 24 -13 41.5t-32.5 30t-42 20.5t-40.5 14z" />
    <glyph glyph-name="dieresis" unicode="&#xa8;" horiz-adv-x="386" 
d="M0 677q0 36 24 57t65 21q36 0 52.5 -16t16.5 -42q0 -33 -23 -55.5t-67 -22.5q-68 0 -68 58zM228 677q0 36 24 57t65 21q36 0 52.5 -16t16.5 -42q0 -33 -23 -55.5t-67 -22.5q-68 0 -68 58z" />
    <glyph glyph-name="copyright" unicode="&#xa9;" horiz-adv-x="803" 
d="M426 249q21 0 36.5 5.5t26.5 12t19 12t15 5.5q6 0 10.5 -5.5t4.5 -13.5q0 -5 -2 -13.5t-5 -17.5t-7 -17.5t-8 -12.5q-3 -4 -12.5 -11.5t-24.5 -15t-36 -13t-46 -5.5q-26 0 -53.5 7.5t-50 27t-37 52.5t-14.5 83q0 26 6 63t26 71t57 58t99 24q69 0 102.5 -28.5t33.5 -69.5
q0 -35 -24 -52.5t-69 -17.5q-15 0 -17.5 12t-3.5 27t-5.5 27t-22.5 12q-21 0 -33 -13.5t-18.5 -32.5t-8.5 -40t-2 -35q0 -48 15.5 -66.5t48.5 -18.5zM377 86q79 0 134 25.5t90 68t51 97.5t16 115q0 121 -60 177.5t-172 56.5q-79 0 -135.5 -26t-92.5 -68.5t-52.5 -98
t-16.5 -114.5q0 -120 63 -176.5t175 -56.5zM445 721q86 0 147.5 -24t100.5 -67t57.5 -102.5t18.5 -131.5q0 -87 -26 -161.5t-77 -128.5t-126 -85t-173 -31q-86 0 -148 24t-102.5 67t-59.5 103t-19 132q0 87 27 161t78.5 128t127.5 85t174 31z" />
    <glyph glyph-name="ordfeminine" unicode="&#xaa;" horiz-adv-x="394" 
d="M45 464q0 54 50 87.5t147 35.5v20q0 27 -31 27q-18 0 -25 -6.5t-11 -14t-10 -14t-22 -6.5q-35 0 -51.5 9t-16.5 31q0 16 9 31t26.5 26.5t44 18.5t62.5 7q69 0 101 -26.5t32 -72.5q0 -9 -1 -25.5t-2 -35t-2 -34.5t-1 -23q0 -16 4.5 -21t10.5 -6.5t10.5 -4t4.5 -13.5
q0 -9 -4 -20.5t-13 -22t-24 -18t-37 -7.5q-26 0 -40.5 11t-19.5 31q-14 -17 -36 -29.5t-60 -12.5q-19 0 -36.5 4t-30.5 13t-20.5 24t-7.5 37zM235 529q-29 0 -51.5 -10t-22.5 -33q0 -13 7 -18t17 -5q19 0 33.5 16.5t16.5 49.5z" />
    <glyph glyph-name="guillemotleft" unicode="&#xab;" horiz-adv-x="659" 
d="M114 275q34 -17 56 -27.5t39.5 -18.5t35.5 -15.5t45 -19.5q10 -4 10 -15q0 -14 -2.5 -36.5t-9 -44t-17 -37t-25.5 -15.5q-17 0 -47 18t-61.5 42.5t-58.5 50t-38 39.5q-5 6 -6.5 10.5t-1.5 9.5q0 10 2.5 39t4.5 67q1 13 4.5 20t14.5 16q19 15 55 39.5t75 48t73 41t49 17.5
q12 0 12 -14q0 -36 -3.5 -62t-10.5 -44t-17.5 -30t-23.5 -21q-13 -8 -32 -16.5t-40 -16t-42.5 -14.5t-39.5 -11zM414 275q34 -17 56 -27.5t39.5 -18.5t35.5 -15.5t45 -19.5q10 -4 10 -15q0 -14 -2.5 -36.5t-9 -44t-17 -37t-25.5 -15.5q-17 0 -47 18t-61.5 42.5t-58.5 50
t-38 39.5q-5 6 -6.5 10.5t-1.5 9.5q0 10 2.5 39t4.5 67q1 13 4.5 20t14.5 16q19 15 55 39.5t75 48t73 41t49 17.5q12 0 12 -14q0 -36 -3.5 -62t-10.5 -44t-17.5 -30t-23.5 -21q-13 -8 -32 -16.5t-40 -16t-42.5 -14.5t-39.5 -11z" />
    <glyph glyph-name="logicalnot" unicode="&#xac;" horiz-adv-x="613" 
d="M507 50q-53 0 -73 14t-20 53q0 14 1.5 39t3.5 53h-372q-11 0 -11 11l3 54q1 13 3.5 25.5t10 22.5t21.5 16t37 6h426q6 0 11 -3.5t5 -10.5l-17 -260q-1 -14 -5.5 -17t-23.5 -3z" />
    <glyph glyph-name="uni00AD" unicode="&#xad;" horiz-adv-x="462" 
d="M59 209q-11 0 -11 11l3 54q1 13 3.5 25.5t10 22.5t21.5 16t37 6h272q6 0 11 -3.5t5 -10.5l-4 -54q-2 -30 -16.5 -48.5t-59.5 -18.5h-272z" />
    <glyph glyph-name="registered" unicode="&#xae;" horiz-adv-x="803" 
d="M377 86q79 0 134 25.5t90 68t51 97.5t16 115q0 121 -60 177.5t-172 56.5q-79 0 -135.5 -26t-92.5 -68.5t-52.5 -98t-16.5 -114.5q0 -120 63 -176.5t175 -56.5zM445 721q86 0 147.5 -24t100.5 -67t57.5 -102.5t18.5 -131.5q0 -87 -26 -161.5t-77 -128.5t-126 -85t-173 -31
q-86 0 -148 24t-102.5 67t-59.5 103t-19 132q0 87 27 161t78.5 128t127.5 85t174 31zM321 163q-62 0 -62 47q0 15 3 58.5t7 95.5q4 59 8 94t7.5 53.5t8 24t10.5 5.5q28 0 60 3t54 3q69 0 102 -32.5t33 -86.5q0 -42 -16.5 -74.5t-52.5 -49.5l45 -64q25 -35 25 -43
q0 -3 -6 -9.5t-16 -13t-23.5 -11.5t-28.5 -5q-17 0 -30 10.5t-22.5 28.5t-17 41.5t-13.5 49.5q-9 0 -16.5 1t-14.5 3q-3 -39 -4 -64t-2.5 -39.5t-4 -20t-7.5 -5.5h-26zM407 464q-14 0 -32 -3q0 -19 -1.5 -41.5t-3.5 -51.5q18 -5 32 -5q17 0 27.5 6t16 15t7.5 19t2 18
q0 23 -11 33t-37 10z" />
    <glyph glyph-name="macron" unicode="&#xaf;" horiz-adv-x="381" 
d="M21 618q-11 0 -11 11q0 18 1.5 35t8 30.5t21.5 22t42 8.5h272q6 0 11 -3.5t5 -10.5q0 -21 -2.5 -38t-10.5 -29t-23.5 -19t-41.5 -7h-272z" />
    <glyph glyph-name="degree" unicode="&#xb0;" horiz-adv-x="380" 
d="M191 426q-41 0 -68 9.5t-43.5 26.5t-23 40t-6.5 49q0 31 9 60.5t29.5 52.5t54 37.5t83.5 14.5q75 0 107.5 -33t32.5 -91q0 -24 -6.5 -53t-25.5 -54t-53.5 -42t-89.5 -17zM217 622q-17 0 -27.5 -6t-17.5 -15t-9.5 -19.5t-2.5 -20.5q0 -23 12 -32t30 -9q17 0 27.5 6.5
t16.5 15.5t8 20t2 20q0 17 -8 28.5t-31 11.5z" />
    <glyph glyph-name="plusminus" unicode="&#xb1;" horiz-adv-x="513" 
d="M290 164q-30 0 -50 6.5t-31 18.5t-15.5 29.5t-4.5 40.5q0 15 1 30t4 48h-133q-11 0 -11 11v4v6t0.5 11t1.5 20t3.5 25.5t10 22.5t21.5 16t37 6h80q2 29 5 64t6 80q1 22 4.5 25.5t18.5 3.5q31 0 50.5 -6t31 -18t16 -29t4.5 -38q0 -14 -1 -31t-4 -51h131q6 0 11 -3.5
t5 -10.5l-3 -41q-2 -30 -16.5 -48.5t-59.5 -18.5h-79l-12 -153q-1 -12 -5 -16t-17 -4zM26 0q-11 0 -11 11v4v6t0.5 11t1.5 20t3.5 25.5t10 22.5t21.5 16t37 6h342q6 0 11 -3.5t5 -10.5l-3 -41q-2 -30 -16.5 -48.5t-59.5 -18.5h-342z" />
    <glyph glyph-name="twosuperior" unicode="&#xb2;" horiz-adv-x="318" 
d="M311 635q0 -30 -19.5 -56.5t-45 -47.5t-50.5 -36t-37 -22h135q7 0 7 -6l-2 -42q-1 -14 -11 -22t-43 -8h-168q-23 0 -32 7.5t-9 25.5v42q0 2 1 5t2 5q7 10 34.5 25t57.5 33t53.5 37t23.5 36q0 12 -7 19.5t-25 7.5t-24.5 -8t-9.5 -18t-6 -18t-13 -8q-70 0 -70 48
q0 23 12 39.5t31.5 27t43.5 15t49 4.5q36 0 60 -8t37.5 -20.5t19 -27.5t5.5 -29z" />
    <glyph glyph-name="threesuperior" unicode="&#xb3;" horiz-adv-x="297" 
d="M162 648q-8 0 -18 -4t-14 -16q-2 -5 -3 -5.5t-5 -0.5q-35 0 -50 11t-15 29q0 26 32 42t81 16q35 0 57.5 -7t36 -18t18.5 -25.5t5 -29.5q0 -42 -46 -71q20 -10 32.5 -24.5t12.5 -36.5q0 -18 -9 -39t-28.5 -38t-51 -28.5t-76.5 -11.5q-51 0 -72.5 15.5t-21.5 38.5
q0 26 14.5 39t39.5 13q7 0 7.5 -1t1.5 -4q4 -14 19 -17.5t26 -3.5q32 0 42.5 12t10.5 19q0 14 -11.5 20t-22.5 7l-75 3q-7 0 -7 6l2 15q2 17 7.5 26.5t26.5 10.5l51 2q32 2 32 27q0 29 -29 29z" />
    <glyph glyph-name="acute" unicode="&#xb4;" horiz-adv-x="257" 
d="M61 615q-7 0 -15.5 5t-16.5 12.5t-13.5 16t-5.5 14.5q0 2 10 17t25 37t33 48t34 49q6 9 10 12t13 3q12 0 31 -6t37 -15t31 -19.5t13 -19.5q0 -7 -11.5 -21t-29.5 -31t-40 -35t-43 -33t-37.5 -24.5t-24.5 -9.5z" />
    <glyph glyph-name="mu" unicode="&#xb5;" horiz-adv-x="600" 
d="M240 465q0 -21 -3.5 -59t-7 -79t-7 -77t-3.5 -51q0 -35 17.5 -55t45.5 -20q42 0 67.5 43t31.5 117l20 246q1 12 5 16t17 4h36q31 0 50.5 -6.5t31 -18.5t16 -29.5t4.5 -40.5q0 -15 -1.5 -42.5t-5.5 -76t-9.5 -123t-13.5 -184.5q-2 -21 -5 -25t-17 -4h-38q-57 0 -79.5 23.5
t-24.5 55.5q-22 -42 -51 -65.5t-64 -23.5q-18 0 -33 6t-26 17v-178q0 -12 -4.5 -16t-17.5 -4h-36q-31 0 -50.5 6t-31 18t-16 29.5t-4.5 40.5q0 32 6.5 99t12.5 170q1 9 2.5 34.5t3.5 59t5 71.5t5.5 73t4.5 62.5t4 40.5q2 22 7.5 26.5t20.5 4.5h32q31 0 51 -6t31.5 -17
t16 -26.5t4.5 -35.5z" />
    <glyph glyph-name="paragraph" unicode="&#xb6;" horiz-adv-x="588" 
d="M532 712q6 0 9 -2t3 -10t-3 -45t-7 -86t-8.5 -102t-7.5 -93l-26 -354q-1 -12 -5.5 -16t-18.5 -4q-41 0 -55.5 24.5t-14.5 68.5q0 11 2.5 49.5t6.5 91.5t8.5 114t9 117.5t8 101.5t4.5 66h-38q0 -8 -2 -34.5t-5.5 -63t-7 -79t-6.5 -82.5l-26 -354q-1 -12 -5.5 -16t-18.5 -4
q-41 0 -55.5 24.5t-14.5 68.5q0 34 5 92t9 121q-11 -2 -23 -3t-23 -1q-50 0 -85.5 14.5t-58 40t-32.5 60.5t-10 77q0 103 57.5 164.5t166.5 61.5q69 0 137.5 -4t130.5 -4z" />
    <glyph glyph-name="periodcentered" unicode="&#xb7;" horiz-adv-x="260" 
d="M137 367q42 0 60 -20.5t18 -57.5q0 -15 -4 -34.5t-14.5 -36t-29.5 -28t-50 -11.5q-46 0 -62 23.5t-16 58.5q0 20 5 39t16 34t30 24t47 9z" />
    <glyph glyph-name="cedilla" unicode="&#xb8;" horiz-adv-x="230" 
d="M124 -40q45 0 70.5 -14.5t25.5 -50.5q0 -42 -34 -68.5t-88 -26.5q-11 0 -26.5 1.5t-29 7t-23 15t-9.5 25.5q0 13 5.5 27.5t13.5 14.5q4 0 8.5 -4t11 -9.5t16 -9.5t22.5 -4q14 0 24 5t10 16q0 12 -11.5 19t-26 11.5t-26 8t-11.5 6.5q0 8 3 22t7.5 29t9 28t8.5 20l59 -5z
" />
    <glyph glyph-name="onesuperior" unicode="&#xb9;" horiz-adv-x="214" 
d="M76 694q8 5 15.5 10t9.5 6h47q25 0 36 -10.5t11 -27.5q0 -6 -1.5 -28t-3.5 -51.5t-4.5 -62.5t-4.5 -61.5t-3.5 -48.5t-1.5 -23q0 -7 -7 -7h-45q-27 0 -36.5 11t-9.5 34q0 9 1 27t3 42t4.5 53t5.5 59q-8 -10 -22 -10q-9 0 -15.5 5.5t-11 14t-6.5 18.5t-2 18q0 4 7 8.5
t34 23.5z" />
    <glyph glyph-name="ordmasculine" unicode="&#xba;" horiz-adv-x="394" 
d="M196 386q-43 0 -71 11t-45 30.5t-24 46t-7 56.5q0 35 9 68t30 59t56 42t88 16q79 0 113 -35t34 -100q0 -27 -7 -61t-27.5 -63.5t-56 -49.5t-92.5 -20zM223 628q-20 0 -32 -9t-18 -22t-8 -26.5t-2 -23.5q0 -74 42 -74q18 0 29.5 10.5t18 25t9 30.5t2.5 27q0 29 -9 45.5
t-32 16.5z" />
    <glyph glyph-name="guillemotright" unicode="&#xbb;" horiz-adv-x="667" 
d="M241 275q-35 15 -57 24t-39.5 16t-35.5 14t-46 17q-6 2 -8 5t-2 11q0 13 3 37t9.5 47.5t17 40.5t25.5 17q17 0 47 -18t61.5 -42.5t58.5 -50t38 -39.5q8 -11 8 -20q0 -7 -2.5 -38t-4.5 -68q-1 -14 -4.5 -21t-14.5 -15q-19 -15 -55 -39.5t-75 -48.5t-73 -41t-49 -17
q-12 0 -12 14q0 34 3.5 58t10.5 40.5t17 28t24 20.5q13 9 32.5 19t40.5 19t42.5 17t39.5 13zM548 275q-35 15 -57 24t-39.5 16t-35.5 14t-46 17q-6 2 -8 5t-2 11q0 13 3 37t9.5 47.5t17 40.5t25.5 17q17 0 47 -18t61.5 -42.5t58.5 -50t38 -39.5q8 -11 8 -20q0 -7 -2.5 -38
t-4.5 -68q-1 -14 -4.5 -21t-14.5 -15q-19 -15 -55 -39.5t-75 -48.5t-73 -41t-49 -17q-12 0 -12 14q0 34 3.5 58t10.5 40.5t17 28t24 20.5q13 9 32.5 19t40.5 19t42.5 17t39.5 13z" />
    <glyph glyph-name="onequarter" unicode="&#xbc;" horiz-adv-x="702" 
d="M102 -13q-25 0 -30 9.5t-5 27.5q0 11 5.5 25.5t15.5 32.5q8 15 41.5 69.5t84 135.5t114 182.5t132.5 211.5q14 22 27 25.5t28 3.5q28 0 34 -9.5t6 -27.5q0 -11 -5.5 -24.5t-13.5 -29.5q-5 -10 -23 -39t-45.5 -73t-63 -101t-76 -121.5t-85 -135t-89.5 -142.5
q-8 -12 -23 -16t-29 -4zM90 694q8 5 15.5 10t9.5 6h47q25 0 36 -10.5t11 -27.5q0 -6 -1.5 -28t-3.5 -51.5t-4.5 -62.5t-4.5 -61.5t-3.5 -48.5t-1.5 -23q0 -7 -7 -7h-45q-27 0 -36.5 11t-9.5 34q0 9 1 27t3 42t4.5 53t5.5 59q-8 -10 -22 -10q-9 0 -15.5 5.5t-11 14t-6.5 18.5
t-2 18q0 4 7 8.5t34 23.5zM421 87q-18 0 -28.5 6t-10.5 20q0 -1 3.5 14.5t9.5 38.5t12.5 50t12 50t9.5 38.5l4 15.5h40q26 0 35.5 -9.5t9.5 -30.5q0 -8 -1.5 -17.5t-4.5 -23.5t-8.5 -33.5t-13.5 -46.5h61l10 116q1 33 2.5 39t6.5 6h44q29 0 37.5 -11.5t8.5 -31.5
q0 -10 -1.5 -33t-3.5 -52t-4 -60.5t-4 -58t-3.5 -45t-1.5 -21.5q0 -7 -7 -7h-45q-47 0 -47 38q0 4 0.5 15t2.5 34h-125z" />
    <glyph glyph-name="onehalf" unicode="&#xbd;" horiz-adv-x="694" 
d="M102 -13q-25 0 -30 9.5t-5 27.5q0 11 5.5 25.5t15.5 32.5q8 15 41.5 69.5t84 135.5t114 182.5t132.5 211.5q14 22 27 25.5t28 3.5q28 0 34 -9.5t6 -27.5q0 -11 -5.5 -24.5t-13.5 -29.5q-5 -10 -23 -39t-45.5 -73t-63 -101t-76 -121.5t-85 -135t-89.5 -142.5
q-8 -12 -23 -16t-29 -4zM90 694q8 5 15.5 10t9.5 6h47q25 0 36 -10.5t11 -27.5q0 -6 -1.5 -28t-3.5 -51.5t-4.5 -62.5t-4.5 -61.5t-3.5 -48.5t-1.5 -23q0 -7 -7 -7h-45q-27 0 -36.5 11t-9.5 34q0 9 1 27t3 42t4.5 53t5.5 59q-8 -10 -22 -10q-9 0 -15.5 5.5t-11 14t-6.5 18.5
t-2 18q0 4 7 8.5t34 23.5zM654 235q0 -30 -19.5 -55.5t-45 -45.5t-50.5 -34.5t-37 -21.5h135q7 0 7 -6l-2 -42q-1 -14 -11 -22t-43 -8h-168q-23 0 -32 7.5t-9 25.5v42q0 7 12.5 16t32 19.5t41.5 23t41.5 25t32 26t12.5 26.5q0 12 -7 19.5t-25 7.5t-24.5 -8t-9.5 -18t-6 -18
t-13 -8q-70 0 -70 48q0 23 12 39.5t31.5 27t43.5 15t49 4.5q36 0 60 -8t37.5 -20.5t19 -27.5t5.5 -29z" />
    <glyph glyph-name="threequarters" unicode="&#xbe;" horiz-adv-x="733" 
d="M135 -13q-25 0 -30 9.5t-5 27.5q0 11 5.5 25.5t15.5 32.5q8 15 41.5 69.5t84 135.5t114 182.5t132.5 211.5q14 22 27 25.5t28 3.5q28 0 34 -9.5t6 -27.5q0 -11 -5.5 -24.5t-13.5 -29.5q-5 -10 -23 -39t-45.5 -73t-63 -101t-76 -121.5t-85 -135t-89.5 -142.5
q-8 -12 -23 -16t-29 -4zM454 87q-18 0 -28.5 6t-10.5 20q0 -1 3.5 14.5t9.5 38.5t12.5 50t12 50t9.5 38.5l4 15.5h40q26 0 35.5 -9.5t9.5 -30.5q0 -8 -1.5 -17.5t-4.5 -23.5t-8.5 -33.5t-13.5 -46.5h61l10 116q1 33 2.5 39t6.5 6h44q29 0 37.5 -11.5t8.5 -31.5
q0 -10 -1.5 -33t-3.5 -52t-4 -60.5t-4 -58t-3.5 -45t-1.5 -21.5q0 -7 -7 -7h-45q-47 0 -47 38q0 4 0.5 15t2.5 34h-125zM172 648q-8 0 -18 -4t-14 -16q-2 -5 -3 -5.5t-5 -0.5q-35 0 -50 11t-15 29q0 26 32 42t81 16q35 0 57.5 -7t36 -18t18.5 -25.5t5 -29.5q0 -42 -46 -71
q20 -10 32.5 -24.5t12.5 -36.5q0 -18 -9 -39t-28.5 -38t-51 -28.5t-76.5 -11.5q-51 0 -72.5 15.5t-21.5 38.5q0 26 14.5 39t39.5 13q7 0 7.5 -1t1.5 -4q4 -14 19 -17.5t26 -3.5q32 0 42.5 12t10.5 19q0 14 -11.5 20t-22.5 7l-75 3q-7 0 -7 6l2 15q2 17 7.5 26.5t26.5 10.5
l51 2q32 2 32 27q0 29 -29 29z" />
    <glyph glyph-name="questiondown" unicode="&#xbf;" horiz-adv-x="525" 
d="M286 377q-42 0 -60 20.5t-18 57.5q0 16 4 35t14.5 35.5t30 28t50.5 11.5q45 0 61 -23.5t16 -58.5q0 -20 -5 -39t-16 -34t-30 -24t-47 -9zM211 287q7 14 11.5 17t13.5 3h36q39 0 56 -16.5t17 -40.5q0 -23 -12.5 -44.5t-31.5 -41.5t-40.5 -39.5t-40.5 -39t-31.5 -40.5
t-12.5 -43q0 -24 15.5 -44.5t50.5 -20.5q27 0 43.5 11t26.5 28t15 37.5t9 40.5q2 11 6.5 14.5t22.5 3.5q61 0 86.5 -21.5t25.5 -66.5q0 -50 -22.5 -84.5t-59 -55.5t-83 -30.5t-94.5 -9.5q-110 0 -162.5 46.5t-52.5 131.5q0 53 26 94t61 76t69.5 67t51.5 68z" />
    <glyph glyph-name="Agrave" unicode="&#xc0;" 
d="M366 710q25 0 41.5 -9.5t27.5 -25t18 -35.5t12 -41q40 -162 66 -267t41 -169.5t21 -95.5t6 -43q0 -14 -6.5 -19t-20.5 -5h-51q-43 0 -68.5 10.5t-39 30.5t-19.5 48.5t-10 64.5h-174l-33 -138q-5 -16 -23 -16h-53q-16 0 -33 3.5t-30.5 11.5t-22.5 20.5t-9 30.5q0 22 14 72
t35.5 113.5t48 133t51.5 131.5t45.5 109t31.5 66q8 14 14.5 16.5t24.5 2.5h95zM246 299h115l-42 264zM368 843q0 -8 -3.5 -19t-9 -20.5t-13 -16.5t-15.5 -7q-22 0 -53 9t-59.5 21t-48.5 25t-20 21q0 12 9.5 29.5t22 34t26 28.5t22.5 12q5 0 17.5 -8t28 -19.5t33 -26
t31.5 -27.5t23 -23t9 -13z" />
    <glyph glyph-name="Aacute" unicode="&#xc1;" 
d="M366 710q25 0 41.5 -9.5t27.5 -25t18 -35.5t12 -41q40 -162 66 -267t41 -169.5t21 -95.5t6 -43q0 -14 -6.5 -19t-20.5 -5h-51q-43 0 -68.5 10.5t-39 30.5t-19.5 48.5t-10 64.5h-174l-33 -138q-5 -16 -23 -16h-53q-16 0 -33 3.5t-30.5 11.5t-22.5 20.5t-9 30.5q0 22 14 72
t35.5 113.5t48 133t51.5 131.5t45.5 109t31.5 66q8 14 14.5 16.5t24.5 2.5h95zM246 299h115l-42 264zM332 780q-11 0 -19.5 7.5t-14.5 17.5t-9 18.5t-3 11.5q0 7 20 28t47 43.5t53.5 40t39.5 17.5q9 0 26 -10.5t33 -24t28 -28t12 -21.5q0 -8 -13.5 -18.5t-34 -21.5
t-45.5 -22t-48.5 -19.5t-43 -13.5t-28.5 -5z" />
    <glyph glyph-name="Acircumflex" unicode="&#xc2;" 
d="M366 710q25 0 41.5 -9.5t27.5 -25t18 -35.5t12 -41q40 -162 66 -267t41 -169.5t21 -95.5t6 -43q0 -14 -6.5 -19t-20.5 -5h-51q-43 0 -68.5 10.5t-39 30.5t-19.5 48.5t-10 64.5h-174l-33 -138q-5 -16 -23 -16h-53q-16 0 -33 3.5t-30.5 11.5t-22.5 20.5t-9 30.5q0 22 14 72
t35.5 113.5t48 133t51.5 131.5t45.5 109t31.5 66q8 14 14.5 16.5t24.5 2.5h95zM246 299h115l-42 264zM451 780q-9 0 -22 7t-27.5 18.5t-30.5 26t-31 30.5q-21 -16 -43.5 -30.5t-42 -26t-35 -18.5t-24.5 -7q-7 0 -15.5 5.5t-16 13t-13 14.5t-5.5 10t12.5 15.5t32 30.5t43 39
t44.5 41q8 7 30.5 11t45.5 4q13 0 30.5 -3t22.5 -12q18 -21 36 -42.5t32 -39.5t23 -30t9 -14t-6 -9t-14.5 -14.5t-18 -13.5t-16.5 -6z" />
    <glyph glyph-name="Atilde" unicode="&#xc3;" 
d="M366 710q25 0 41.5 -9.5t27.5 -25t18 -35.5t12 -41q40 -162 66 -267t41 -169.5t21 -95.5t6 -43q0 -14 -6.5 -19t-20.5 -5h-51q-43 0 -68.5 10.5t-39 30.5t-19.5 48.5t-10 64.5h-174l-33 -138q-5 -16 -23 -16h-53q-16 0 -33 3.5t-30.5 11.5t-22.5 20.5t-9 30.5q0 22 14 72
t35.5 113.5t48 133t51.5 131.5t45.5 109t31.5 66q8 14 14.5 16.5t24.5 2.5h95zM246 299h115l-42 264zM415 895q21 0 37 9.5t28.5 20.5t22.5 20.5t19 9.5q5 0 12.5 -6.5t7.5 -32.5q0 -23 -8.5 -47.5t-26 -44t-44.5 -32t-64 -12.5q-35 0 -58 10t-41 22.5t-33.5 22.5t-36.5 10
t-35 -10t-25 -22.5t-19.5 -22.5t-18.5 -10q-5 0 -12.5 7t-7.5 33q0 22 7 45.5t23 43.5t41.5 33t63.5 13q33 0 55.5 -9.5t40.5 -20.5t34.5 -20.5t37.5 -9.5z" />
    <glyph glyph-name="Adieresis" unicode="&#xc4;" 
d="M366 710q25 0 41.5 -9.5t27.5 -25t18 -35.5t12 -41q40 -162 66 -267t41 -169.5t21 -95.5t6 -43q0 -14 -6.5 -19t-20.5 -5h-51q-43 0 -68.5 10.5t-39 30.5t-19.5 48.5t-10 64.5h-174l-33 -138q-5 -16 -23 -16h-53q-16 0 -33 3.5t-30.5 11.5t-22.5 20.5t-9 30.5q0 22 14 72
t35.5 113.5t48 133t51.5 131.5t45.5 109t31.5 66q8 14 14.5 16.5t24.5 2.5h95zM246 299h115l-42 264zM134 838q0 36 24 57t65 21q36 0 52.5 -16t16.5 -42q0 -33 -23 -55.5t-67 -22.5q-68 0 -68 58zM362 838q0 36 24 57t65 21q36 0 52.5 -16t16.5 -42q0 -33 -23 -55.5
t-67 -22.5q-68 0 -68 58z" />
    <glyph glyph-name="Aring" unicode="&#xc5;" 
d="M366 710q25 0 41.5 -9.5t27.5 -25t18 -35.5t12 -41q40 -162 66 -267t41 -169.5t21 -95.5t6 -43q0 -14 -6.5 -19t-20.5 -5h-51q-43 0 -68.5 10.5t-39 30.5t-19.5 48.5t-10 64.5h-174l-33 -138q-5 -16 -23 -16h-53q-16 0 -33 3.5t-30.5 11.5t-22.5 20.5t-9 30.5q0 22 14 72
t35.5 113.5t48 133t51.5 131.5t45.5 109t31.5 66q8 14 14.5 16.5t24.5 2.5h95zM246 299h115l-42 264zM340 931q43 0 64.5 -18.5t21.5 -46.5q0 -11 -4 -26t-15 -28.5t-30 -22.5t-49 -9q-47 0 -66 21t-19 47q0 15 5.5 30t17.5 26.5t30 19t44 7.5zM336 882q-14 0 -20 -9t-6 -20
q0 -10 5 -17.5t17 -7.5q16 0 21 11.5t5 19.5q0 10 -5.5 16.5t-16.5 6.5z" />
    <glyph glyph-name="AE" unicode="&#xc6;" horiz-adv-x="819" 
d="M486 0q-42 0 -65.5 10.5t-34.5 30t-13 48.5t-2 65h-174l-50 -138q-2 -5 -8 -10.5t-17 -5.5h-53q-15 0 -30.5 3t-28 10t-20 18t-7.5 27q0 17 18.5 65t47.5 111.5t64.5 135.5t69 136.5t61.5 114.5t42 70q6 9 15.5 14t25.5 5h392q6 0 11 -3t5 -11l-6 -59q-2 -15 -5.5 -27.5
t-11.5 -21t-22.5 -13.5t-37.5 -5h-142q5 -39 9 -74t8 -67h196q6 0 11 -3t5 -11l-5 -59q-3 -30 -18.5 -48.5t-59.5 -18.5h-111l17 -149h216q6 0 11 -3.5t5 -10.5l-6 -59q-2 -15 -5.5 -27.5t-11.5 -21t-22.5 -13.5t-37.5 -5h-225zM251 299h106v264z" />
    <glyph glyph-name="Ccedilla" unicode="&#xc7;" horiz-adv-x="618" 
d="M352 146q41 0 69.5 12t48.5 27t35.5 27t31.5 12q20 0 20 -30q0 -16 -4 -38.5t-11 -50.5q-4 -16 -18.5 -35t-39.5 -36t-60.5 -29t-82.5 -14l-4 -31q45 0 70.5 -14.5t25.5 -50.5q0 -42 -34 -68.5t-88 -26.5q-11 0 -26.5 1.5t-29 7t-23 15t-9.5 25.5q0 13 5.5 27.5
t13.5 14.5q4 0 8.5 -4t11 -9.5t16 -9.5t22.5 -4q14 0 24 5t10 16q0 12 -11.5 19t-26 11.5t-26 8t-11.5 6.5q0 10 4 28t10 36q-45 6 -87.5 25t-74.5 56t-51.5 93.5t-19.5 137.5q0 33 4.5 76.5t17.5 89.5t36.5 90.5t60.5 79.5t90.5 56.5t127.5 21.5q59 0 102.5 -14t72 -38.5
t42 -57.5t13.5 -70q0 -64 -37.5 -93.5t-106.5 -29.5q-22 0 -27.5 3.5t-5.5 14.5q-1 34 -2 59t-7 41.5t-18.5 24t-34.5 7.5q-32 0 -54.5 -13.5t-38 -35t-25 -48.5t-15 -55t-7 -54t-1.5 -45q0 -92 30.5 -131t94.5 -39z" />
    <glyph glyph-name="Egrave" unicode="&#xc8;" horiz-adv-x="501" 
d="M155 0q-56 0 -80 22t-24 63q0 20 3 68.5t8 110.5t10 131t10 130t8 107t3 63q0 15 16 15h352q6 0 11 -3t5 -11l-4 -59q-2 -30 -16.5 -48.5t-59.5 -18.5h-138l-10 -141h142q6 0 11 -3t5 -11l-4 -59q-2 -30 -16.5 -48.5t-59.5 -18.5h-87l-11 -149h220q6 0 11 -3.5t5 -10.5
l-4 -59q-2 -30 -16.5 -48.5t-59.5 -18.5h-230zM334 843q0 -8 -3.5 -19t-9 -20.5t-13 -16.5t-15.5 -7q-22 0 -53 9t-59.5 21t-48.5 25t-20 21q0 12 9.5 29.5t22 34t26 28.5t22.5 12q5 0 17.5 -8t28 -19.5t33 -26t31.5 -27.5t23 -23t9 -13z" />
    <glyph glyph-name="Eacute" unicode="&#xc9;" horiz-adv-x="501" 
d="M155 0q-56 0 -80 22t-24 63q0 20 3 68.5t8 110.5t10 131t10 130t8 107t3 63q0 15 16 15h352q6 0 11 -3t5 -11l-4 -59q-2 -30 -16.5 -48.5t-59.5 -18.5h-138l-10 -141h142q6 0 11 -3t5 -11l-4 -59q-2 -30 -16.5 -48.5t-59.5 -18.5h-87l-11 -149h220q6 0 11 -3.5t5 -10.5
l-4 -59q-2 -30 -16.5 -48.5t-59.5 -18.5h-230zM298 780q-11 0 -19.5 7.5t-14.5 17.5t-9 18.5t-3 11.5q0 7 20 28t47 43.5t53.5 40t39.5 17.5q9 0 26 -10.5t33 -24t28 -28t12 -21.5q0 -8 -13.5 -18.5t-34 -21.5t-45.5 -22t-48.5 -19.5t-43 -13.5t-28.5 -5z" />
    <glyph glyph-name="Ecircumflex" unicode="&#xca;" horiz-adv-x="501" 
d="M155 0q-56 0 -80 22t-24 63q0 20 3 68.5t8 110.5t10 131t10 130t8 107t3 63q0 15 16 15h352q6 0 11 -3t5 -11l-4 -59q-2 -30 -16.5 -48.5t-59.5 -18.5h-138l-10 -141h142q6 0 11 -3t5 -11l-4 -59q-2 -30 -16.5 -48.5t-59.5 -18.5h-87l-11 -149h220q6 0 11 -3.5t5 -10.5
l-4 -59q-2 -30 -16.5 -48.5t-59.5 -18.5h-230zM417 780q-9 0 -22 7t-27.5 18.5t-30.5 26t-31 30.5q-21 -16 -43.5 -30.5t-42 -26t-35 -18.5t-24.5 -7q-7 0 -15.5 5.5t-16 13t-13 14.5t-5.5 10t12.5 15.5t32 30.5t43 39t44.5 41q8 7 30.5 11t45.5 4q13 0 30.5 -3t22.5 -12
q18 -21 36 -42.5t32 -39.5t23 -30t9 -14t-6 -9t-14.5 -14.5t-18 -13.5t-16.5 -6z" />
    <glyph glyph-name="Edieresis" unicode="&#xcb;" horiz-adv-x="501" 
d="M155 0q-56 0 -80 22t-24 63q0 20 3 68.5t8 110.5t10 131t10 130t8 107t3 63q0 15 16 15h352q6 0 11 -3t5 -11l-4 -59q-2 -30 -16.5 -48.5t-59.5 -18.5h-138l-10 -141h142q6 0 11 -3t5 -11l-4 -59q-2 -30 -16.5 -48.5t-59.5 -18.5h-87l-11 -149h220q6 0 11 -3.5t5 -10.5
l-4 -59q-2 -30 -16.5 -48.5t-59.5 -18.5h-230zM100 838q0 36 24 57t65 21q36 0 52.5 -16t16.5 -42q0 -33 -23 -55.5t-67 -22.5q-68 0 -68 58zM328 838q0 36 24 57t65 21q36 0 52.5 -16t16.5 -42q0 -33 -23 -55.5t-67 -22.5q-68 0 -68 58z" />
    <glyph glyph-name="Igrave" unicode="&#xcc;" horiz-adv-x="314" 
d="M155 0q-56 0 -80 22t-24 63q0 20 3 68.5t8 110.5t10 131t10 130t8 107t3 63q0 15 16 15h55q61 0 82 -26t21 -77q0 -5 -1.5 -32t-4.5 -68t-6.5 -91.5t-7 -103.5t-7 -103.5t-6.5 -91.5t-5 -68.5t-3 -33.5q-1 -8 -4 -11.5t-12 -3.5h-55zM221 843q0 -8 -3.5 -19t-9 -20.5
t-13 -16.5t-15.5 -7q-22 0 -53 9t-59.5 21t-48.5 25t-20 21q0 12 9.5 29.5t22 34t26 28.5t22.5 12q5 0 17.5 -8t28 -19.5t33 -26t31.5 -27.5t23 -23t9 -13z" />
    <glyph glyph-name="Iacute" unicode="&#xcd;" horiz-adv-x="314" 
d="M155 0q-56 0 -80 22t-24 63q0 20 3 68.5t8 110.5t10 131t10 130t8 107t3 63q0 15 16 15h55q61 0 82 -26t21 -77q0 -5 -1.5 -32t-4.5 -68t-6.5 -91.5t-7 -103.5t-7 -103.5t-6.5 -91.5t-5 -68.5t-3 -33.5q-1 -8 -4 -11.5t-12 -3.5h-55zM185 780q-11 0 -19.5 7.5t-14.5 17.5
t-9 18.5t-3 11.5q0 7 20 28t47 43.5t53.5 40t39.5 17.5q9 0 26 -10.5t33 -24t28 -28t12 -21.5q0 -8 -13.5 -18.5t-34 -21.5t-45.5 -22t-48.5 -19.5t-43 -13.5t-28.5 -5z" />
    <glyph glyph-name="Icircumflex" unicode="&#xce;" horiz-adv-x="314" 
d="M155 0q-56 0 -80 22t-24 63q0 20 3 68.5t8 110.5t10 131t10 130t8 107t3 63q0 15 16 15h55q61 0 82 -26t21 -77q0 -5 -1.5 -32t-4.5 -68t-6.5 -91.5t-7 -103.5t-7 -103.5t-6.5 -91.5t-5 -68.5t-3 -33.5q-1 -8 -4 -11.5t-12 -3.5h-55zM304 780q-9 0 -22 7t-27.5 18.5
t-30.5 26t-31 30.5q-21 -16 -43.5 -30.5t-42 -26t-35 -18.5t-24.5 -7q-7 0 -15.5 5.5t-16 13t-13 14.5t-5.5 10t12.5 15.5t32 30.5t43 39t44.5 41q8 7 30.5 11t45.5 4q13 0 30.5 -3t22.5 -12q18 -21 36 -42.5t32 -39.5t23 -30t9 -14t-6 -9t-14.5 -14.5t-18 -13.5t-16.5 -6z
" />
    <glyph glyph-name="Idieresis" unicode="&#xcf;" horiz-adv-x="314" 
d="M155 0q-56 0 -80 22t-24 63q0 20 3 68.5t8 110.5t10 131t10 130t8 107t3 63q0 15 16 15h55q61 0 82 -26t21 -77q0 -5 -1.5 -32t-4.5 -68t-6.5 -91.5t-7 -103.5t-7 -103.5t-6.5 -91.5t-5 -68.5t-3 -33.5q-1 -8 -4 -11.5t-12 -3.5h-55zM-13 838q0 36 24 57t65 21
q36 0 52.5 -16t16.5 -42q0 -33 -23 -55.5t-67 -22.5q-68 0 -68 58zM215 838q0 36 24 57t65 21q36 0 52.5 -16t16.5 -42q0 -33 -23 -55.5t-67 -22.5q-68 0 -68 58z" />
    <glyph glyph-name="Eth" unicode="&#xd0;" horiz-adv-x="672" 
d="M98 695q0 8 6 11.5t11 3.5h24q69 4 116 6.5t81 2.5q85 0 142.5 -17t93 -53t50.5 -93t15 -137q0 -81 -16.5 -158.5t-57.5 -137.5t-110.5 -96.5t-175.5 -36.5q-49 0 -89.5 2t-69.5 12t-45 30t-16 55q0 10 1 30.5t3 48t4.5 61t5.5 70.5h-50q-11 0 -11 11l3 54q1 12 3.5 24.5
t9.5 22t20 16t35 7.5q4 54 7 90t4.5 59.5t2.5 37.5t1.5 25t0.5 21.5t1 27.5zM248 299q-2 -40 -5 -77.5t-6 -70.5q15 -2 27 -2.5t20 -0.5q56 0 89.5 24t51.5 61t24 81t6 83q0 42 -5.5 73.5t-19 52.5t-37.5 31.5t-60 10.5q-11 0 -28 -1t-41 -3q-1 -26 -3 -58t-4 -69h80
q6 0 11 -3.5t5 -10.5l-4 -54q-2 -30 -16.5 -48.5t-59.5 -18.5h-25z" />
    <glyph glyph-name="Ntilde" unicode="&#xd1;" horiz-adv-x="688" 
d="M499 0q-41 0 -61 12t-29 30q-52 107 -97.5 205t-92.5 198q1 -108 3 -215t4 -215q0 -15 -16 -15h-55q-57 0 -80.5 22.5t-23.5 66.5q0 12 1.5 40.5t4.5 67.5t6.5 85.5t7.5 94.5q6 76 10 126t6.5 84.5t3.5 59t2 48.5q0 15 16 15h80q33 0 54 -7.5t34.5 -20.5t21.5 -29.5
t15 -34.5q24 -62 42.5 -107t32.5 -79t24.5 -59t19.5 -46t18 -40.5t19 -42.5q0 59 -0.5 121.5t-1 122t-1 114.5t-0.5 99q0 9 17 9h55q33 0 52.5 -6.5t30.5 -19t14.5 -30.5t3.5 -41q0 -25 -3 -76.5t-7 -115.5t-9 -132.5t-9.5 -126.5t-8 -98.5t-4.5 -47.5q0 -8 -5.5 -12
t-12.5 -4h-82zM474 895q21 0 37 9.5t28.5 20.5t22.5 20.5t19 9.5q5 0 12.5 -6.5t7.5 -32.5q0 -23 -8.5 -47.5t-26 -44t-44.5 -32t-64 -12.5q-35 0 -58 10t-41 22.5t-33.5 22.5t-36.5 10t-35 -10t-25 -22.5t-19.5 -22.5t-18.5 -10q-5 0 -12.5 7t-7.5 33q0 22 7 45.5t23 43.5
t41.5 33t63.5 13q33 0 55.5 -9.5t40.5 -20.5t34.5 -20.5t37.5 -9.5z" />
    <glyph glyph-name="Ograve" unicode="&#xd2;" horiz-adv-x="711" 
d="M405 721q73 0 125 -20.5t85 -60t48 -96t15 -128.5q0 -40 -5.5 -87t-20 -94.5t-39.5 -91.5t-64.5 -78t-94.5 -54.5t-130 -20.5q-83 0 -137.5 25t-87 67.5t-46 100.5t-13.5 124q0 78 18 152.5t60.5 132.5t112.5 93.5t174 35.5zM384 566q-35 0 -60.5 -12.5t-43 -33.5
t-28 -47t-16.5 -53.5t-8 -53t-2 -45.5q0 -91 30.5 -133t86.5 -42q46 0 75 29.5t45.5 71t22.5 86t6 75.5q0 73 -25 115.5t-83 42.5zM452 843q0 -8 -3.5 -19t-9 -20.5t-13 -16.5t-15.5 -7q-22 0 -53 9t-59.5 21t-48.5 25t-20 21q0 12 9.5 29.5t22 34t26 28.5t22.5 12
q5 0 17.5 -8t28 -19.5t33 -26t31.5 -27.5t23 -23t9 -13z" />
    <glyph glyph-name="Oacute" unicode="&#xd3;" horiz-adv-x="711" 
d="M405 721q73 0 125 -20.5t85 -60t48 -96t15 -128.5q0 -40 -5.5 -87t-20 -94.5t-39.5 -91.5t-64.5 -78t-94.5 -54.5t-130 -20.5q-83 0 -137.5 25t-87 67.5t-46 100.5t-13.5 124q0 78 18 152.5t60.5 132.5t112.5 93.5t174 35.5zM384 566q-35 0 -60.5 -12.5t-43 -33.5
t-28 -47t-16.5 -53.5t-8 -53t-2 -45.5q0 -91 30.5 -133t86.5 -42q46 0 75 29.5t45.5 71t22.5 86t6 75.5q0 73 -25 115.5t-83 42.5zM416 780q-11 0 -19.5 7.5t-14.5 17.5t-9 18.5t-3 11.5q0 7 20 28t47 43.5t53.5 40t39.5 17.5q9 0 26 -10.5t33 -24t28 -28t12 -21.5
q0 -8 -13.5 -18.5t-34 -21.5t-45.5 -22t-48.5 -19.5t-43 -13.5t-28.5 -5z" />
    <glyph glyph-name="Ocircumflex" unicode="&#xd4;" horiz-adv-x="711" 
d="M405 721q73 0 125 -20.5t85 -60t48 -96t15 -128.5q0 -40 -5.5 -87t-20 -94.5t-39.5 -91.5t-64.5 -78t-94.5 -54.5t-130 -20.5q-83 0 -137.5 25t-87 67.5t-46 100.5t-13.5 124q0 78 18 152.5t60.5 132.5t112.5 93.5t174 35.5zM384 566q-35 0 -60.5 -12.5t-43 -33.5
t-28 -47t-16.5 -53.5t-8 -53t-2 -45.5q0 -91 30.5 -133t86.5 -42q46 0 75 29.5t45.5 71t22.5 86t6 75.5q0 73 -25 115.5t-83 42.5zM535 780q-9 0 -22 7t-27.5 18.5t-30.5 26t-31 30.5q-21 -16 -43.5 -30.5t-42 -26t-35 -18.5t-24.5 -7q-7 0 -15.5 5.5t-16 13t-13 14.5
t-5.5 10t12.5 15.5t32 30.5t43 39t44.5 41q8 7 30.5 11t45.5 4q13 0 30.5 -3t22.5 -12q18 -21 36 -42.5t32 -39.5t23 -30t9 -14t-6 -9t-14.5 -14.5t-18 -13.5t-16.5 -6z" />
    <glyph glyph-name="Otilde" unicode="&#xd5;" horiz-adv-x="711" 
d="M405 721q73 0 125 -20.5t85 -60t48 -96t15 -128.5q0 -40 -5.5 -87t-20 -94.5t-39.5 -91.5t-64.5 -78t-94.5 -54.5t-130 -20.5q-83 0 -137.5 25t-87 67.5t-46 100.5t-13.5 124q0 78 18 152.5t60.5 132.5t112.5 93.5t174 35.5zM384 566q-35 0 -60.5 -12.5t-43 -33.5
t-28 -47t-16.5 -53.5t-8 -53t-2 -45.5q0 -91 30.5 -133t86.5 -42q46 0 75 29.5t45.5 71t22.5 86t6 75.5q0 73 -25 115.5t-83 42.5zM499 895q21 0 37 9.5t28.5 20.5t22.5 20.5t19 9.5q5 0 12.5 -6.5t7.5 -32.5q0 -23 -8.5 -47.5t-26 -44t-44.5 -32t-64 -12.5q-35 0 -58 10
t-41 22.5t-33.5 22.5t-36.5 10t-35 -10t-25 -22.5t-19.5 -22.5t-18.5 -10q-5 0 -12.5 7t-7.5 33q0 22 7 45.5t23 43.5t41.5 33t63.5 13q33 0 55.5 -9.5t40.5 -20.5t34.5 -20.5t37.5 -9.5z" />
    <glyph glyph-name="Odieresis" unicode="&#xd6;" horiz-adv-x="711" 
d="M405 721q73 0 125 -20.5t85 -60t48 -96t15 -128.5q0 -40 -5.5 -87t-20 -94.5t-39.5 -91.5t-64.5 -78t-94.5 -54.5t-130 -20.5q-83 0 -137.5 25t-87 67.5t-46 100.5t-13.5 124q0 78 18 152.5t60.5 132.5t112.5 93.5t174 35.5zM384 566q-35 0 -60.5 -12.5t-43 -33.5
t-28 -47t-16.5 -53.5t-8 -53t-2 -45.5q0 -91 30.5 -133t86.5 -42q46 0 75 29.5t45.5 71t22.5 86t6 75.5q0 73 -25 115.5t-83 42.5zM218 838q0 36 24 57t65 21q36 0 52.5 -16t16.5 -42q0 -33 -23 -55.5t-67 -22.5q-68 0 -68 58zM446 838q0 36 24 57t65 21q36 0 52.5 -16
t16.5 -42q0 -33 -23 -55.5t-67 -22.5q-68 0 -68 58z" />
    <glyph glyph-name="multiply" unicode="&#xd7;" horiz-adv-x="497" 
d="M84 103q-8 0 -18 9.5t-18.5 22.5t-14 26.5t-5.5 22.5q0 17 9.5 33t26.5 33q11 11 33.5 30.5t63.5 52.5l-88 137q-3 5 -6.5 12t-3.5 11q0 3 7.5 12.5t19.5 19t26.5 17.5t29.5 8q11 0 25.5 -4.5t25.5 -21.5q19 -30 35.5 -55t31.5 -49l134 115q9 8 13.5 11.5t8.5 3.5
q7 0 17 -10.5t18.5 -24.5t14.5 -28t6 -22q0 -17 -9.5 -32t-24.5 -30q-11 -11 -36.5 -33t-70.5 -59q26 -41 43.5 -68t28 -44t14.5 -25.5t4 -11.5q0 -9 -9.5 -19.5t-22.5 -19t-27.5 -14.5t-23.5 -6q-11 0 -26.5 5.5t-26.5 23.5l-58 91q-29 -25 -62 -53t-71 -60q-8 -7 -14 -7z
" />
    <glyph glyph-name="Oslash" unicode="&#xd8;" horiz-adv-x="711" 
d="M405 721q71 0 123 -20l35 49q11 15 30.5 22.5t35.5 7.5q23 0 31 -11.5t8 -20.5q0 -11 -12.5 -35.5t-41.5 -71.5q33 -40 48.5 -96.5t15.5 -128.5q0 -40 -5.5 -87t-20 -94.5t-39.5 -91.5t-64.5 -78t-94.5 -54.5t-130 -20.5q-42 0 -75.5 6.5t-61.5 18.5l-38 -55
q-11 -16 -31.5 -21.5t-34.5 -5.5q-21 0 -28.5 9.5t-7.5 21.5q0 15 12 41.5t42 75.5q-34 43 -47.5 101t-13.5 125q0 78 18 152.5t60.5 132.5t112.5 93.5t174 35.5zM489 453q-39 -58 -89 -130.5t-113 -163.5q23 -13 56 -13q46 0 75 29.5t45.5 71t22.5 86t6 75.5q0 24 -3 45z
M384 566q-35 0 -60.5 -12.5t-43 -33.5t-28 -47t-16.5 -53.5t-8 -53t-2 -45.5q0 -27 3 -49q38 57 87 127t111 158q-18 9 -43 9z" />
    <glyph glyph-name="Ugrave" unicode="&#xd9;" horiz-adv-x="659" 
d="M603 326q-3 -30 -9 -66.5t-18.5 -74t-33.5 -72.5t-54 -62.5t-79.5 -44t-110.5 -16.5q-65 0 -111 18.5t-75 51t-42 75.5t-13 92q0 22 2 59.5t5.5 81.5t7.5 91.5t7.5 90.5t6.5 77.5t4 52.5q1 19 5 24.5t12 5.5h55q61 0 82 -26t21 -77q0 -3 -1.5 -26.5t-4 -57.5t-5 -74
t-5 -76t-4 -63t-1.5 -36q0 -17 1.5 -39t8 -42t21 -33.5t41.5 -13.5q34 0 55.5 23t33 55t16 65t6.5 54q4 51 8.5 105t8 101t5.5 82t2 48q0 20 3 25.5t13 5.5h55q34 0 53.5 -6t29.5 -16t12.5 -23t2.5 -27q0 -13 -1.5 -49t-3.5 -82t-5 -95t-7 -86zM407 843q0 -8 -3.5 -19
t-9 -20.5t-13 -16.5t-15.5 -7q-22 0 -53 9t-59.5 21t-48.5 25t-20 21q0 12 9.5 29.5t22 34t26 28.5t22.5 12q5 0 17.5 -8t28 -19.5t33 -26t31.5 -27.5t23 -23t9 -13z" />
    <glyph glyph-name="Uacute" unicode="&#xda;" horiz-adv-x="659" 
d="M603 326q-3 -30 -9 -66.5t-18.5 -74t-33.5 -72.5t-54 -62.5t-79.5 -44t-110.5 -16.5q-65 0 -111 18.5t-75 51t-42 75.5t-13 92q0 22 2 59.5t5.5 81.5t7.5 91.5t7.5 90.5t6.5 77.5t4 52.5q1 19 5 24.5t12 5.5h55q61 0 82 -26t21 -77q0 -3 -1.5 -26.5t-4 -57.5t-5 -74
t-5 -76t-4 -63t-1.5 -36q0 -17 1.5 -39t8 -42t21 -33.5t41.5 -13.5q34 0 55.5 23t33 55t16 65t6.5 54q4 51 8.5 105t8 101t5.5 82t2 48q0 20 3 25.5t13 5.5h55q34 0 53.5 -6t29.5 -16t12.5 -23t2.5 -27q0 -13 -1.5 -49t-3.5 -82t-5 -95t-7 -86zM371 780q-11 0 -19.5 7.5
t-14.5 17.5t-9 18.5t-3 11.5q0 7 20 28t47 43.5t53.5 40t39.5 17.5q9 0 26 -10.5t33 -24t28 -28t12 -21.5q0 -8 -13.5 -18.5t-34 -21.5t-45.5 -22t-48.5 -19.5t-43 -13.5t-28.5 -5z" />
    <glyph glyph-name="Ucircumflex" unicode="&#xdb;" horiz-adv-x="659" 
d="M603 326q-3 -30 -9 -66.5t-18.5 -74t-33.5 -72.5t-54 -62.5t-79.5 -44t-110.5 -16.5q-65 0 -111 18.5t-75 51t-42 75.5t-13 92q0 22 2 59.5t5.5 81.5t7.5 91.5t7.5 90.5t6.5 77.5t4 52.5q1 19 5 24.5t12 5.5h55q61 0 82 -26t21 -77q0 -3 -1.5 -26.5t-4 -57.5t-5 -74
t-5 -76t-4 -63t-1.5 -36q0 -17 1.5 -39t8 -42t21 -33.5t41.5 -13.5q34 0 55.5 23t33 55t16 65t6.5 54q4 51 8.5 105t8 101t5.5 82t2 48q0 20 3 25.5t13 5.5h55q34 0 53.5 -6t29.5 -16t12.5 -23t2.5 -27q0 -13 -1.5 -49t-3.5 -82t-5 -95t-7 -86zM490 780q-9 0 -22 7
t-27.5 18.5t-30.5 26t-31 30.5q-21 -16 -43.5 -30.5t-42 -26t-35 -18.5t-24.5 -7q-7 0 -15.5 5.5t-16 13t-13 14.5t-5.5 10t12.5 15.5t32 30.5t43 39t44.5 41q8 7 30.5 11t45.5 4q13 0 30.5 -3t22.5 -12q18 -21 36 -42.5t32 -39.5t23 -30t9 -14t-6 -9t-14.5 -14.5t-18 -13.5
t-16.5 -6z" />
    <glyph glyph-name="Udieresis" unicode="&#xdc;" horiz-adv-x="659" 
d="M603 326q-3 -30 -9 -66.5t-18.5 -74t-33.5 -72.5t-54 -62.5t-79.5 -44t-110.5 -16.5q-65 0 -111 18.5t-75 51t-42 75.5t-13 92q0 22 2 59.5t5.5 81.5t7.5 91.5t7.5 90.5t6.5 77.5t4 52.5q1 19 5 24.5t12 5.5h55q61 0 82 -26t21 -77q0 -3 -1.5 -26.5t-4 -57.5t-5 -74
t-5 -76t-4 -63t-1.5 -36q0 -17 1.5 -39t8 -42t21 -33.5t41.5 -13.5q34 0 55.5 23t33 55t16 65t6.5 54q4 51 8.5 105t8 101t5.5 82t2 48q0 20 3 25.5t13 5.5h55q34 0 53.5 -6t29.5 -16t12.5 -23t2.5 -27q0 -13 -1.5 -49t-3.5 -82t-5 -95t-7 -86zM173 838q0 36 24 57t65 21
q36 0 52.5 -16t16.5 -42q0 -33 -23 -55.5t-67 -22.5q-68 0 -68 58zM401 838q0 36 24 57t65 21q36 0 52.5 -16t16.5 -42q0 -33 -23 -55.5t-67 -22.5q-68 0 -68 58z" />
    <glyph glyph-name="Yacute" unicode="&#xdd;" horiz-adv-x="609" 
d="M296 0q-60 0 -82 23.5t-22 72.5q0 17 2 55t9 118q-8 15 -14 26t-12 23t-13 28t-18 40q-17 37 -38.5 86t-41.5 94.5t-33.5 80.5t-13.5 44q0 21 67 21q42 0 67.5 -8.5t41.5 -23t24 -34t15 -41.5q9 -29 13 -43t6.5 -23t5.5 -17.5t8.5 -26.5t15.5 -50t28 -88q29 61 46.5 99
t30.5 70.5t24.5 67t29.5 87.5q6 19 12.5 24.5t20.5 5.5q5 0 27.5 -1.5t47 -7.5t44.5 -19t20 -35q0 -17 -11.5 -48t-30 -69.5t-43 -81.5t-50.5 -84t-51.5 -75.5t-46.5 -56.5q-1 -24 -2.5 -57t-4 -65.5t-4.5 -59t-3 -36.5q-1 -8 -4 -11.5t-12 -3.5h-55zM330 780
q-11 0 -19.5 7.5t-14.5 17.5t-9 18.5t-3 11.5q0 7 20 28t47 43.5t53.5 40t39.5 17.5q9 0 26 -10.5t33 -24t28 -28t12 -21.5q0 -8 -13.5 -18.5t-34 -21.5t-45.5 -22t-48.5 -19.5t-43 -13.5t-28.5 -5z" />
    <glyph glyph-name="Thorn" unicode="&#xde;" horiz-adv-x="598" 
d="M155 0q-57 0 -80.5 22.5t-23.5 66.5q0 12 1.5 40.5t4.5 67.5t6.5 85.5t7.5 94.5q8 101 12.5 158.5t6.5 91t3 53.5t1 45q0 8 6 11.5t11 3.5h55q31 0 49.5 -6.5t28 -17.5t12 -27t2.5 -35v-13t-1 -15q23 2 44 3.5t41 1.5q63 0 107.5 -16t73 -45.5t41.5 -72t13 -95.5
q0 -58 -15.5 -112.5t-48.5 -96.5t-85 -67t-124 -25q-25 0 -44 3t-36 8q-2 -38 -4 -60.5t-4 -34t-6 -14.5t-11 -3h-44zM317 481q-30 0 -67 -6l-15 -226q35 -8 62 -8q35 0 56.5 16.5t33.5 40.5t16 50t4 45q0 43 -19.5 65.5t-70.5 22.5z" />
    <glyph glyph-name="germandbls" unicode="&#xdf;" horiz-adv-x="634" 
d="M559 642q0 -35 -16 -68t-35.5 -62.5t-35.5 -55t-16 -46.5q0 -17 11.5 -29t28 -23.5t36.5 -24t36.5 -31t28 -45.5t11.5 -66q0 -41 -13.5 -77.5t-39 -64t-62.5 -43.5t-85 -16q-33 0 -61.5 7t-50 17.5t-33.5 23t-12 22.5q0 47 7.5 68.5t23.5 21.5q10 0 20 -6t21.5 -12.5
t26 -12.5t33.5 -6q25 0 44 12.5t19 41.5q0 21 -10.5 37t-27 30t-35 27.5t-35 30t-27 38t-10.5 51.5q0 38 16 68t34.5 54.5t34.5 44.5t16 38q0 16 -14 25t-35 9q-30 0 -51 -18.5t-35 -46.5t-22.5 -61t-12.5 -62q-5 -34 -10 -85.5t-9.5 -108.5t-8.5 -114.5t-7 -103.5
q-1 -12 -5 -16t-17 -4h-41q-28 0 -46 2.5t-29 14t-15.5 34.5t-4.5 64q0 32 2.5 77.5t7.5 96t12.5 102.5t17.5 99q14 64 35 113.5t54.5 83.5t83 51t120.5 17q98 0 142.5 -30t44.5 -83z" />
    <glyph glyph-name="agrave" unicode="&#xe0;" horiz-adv-x="563" 
d="M11 123q0 90 81 141t239 55q1 11 1.5 18.5t0.5 18.5q0 32 -12 51t-50 19q-21 0 -34 -6t-21 -16.5t-13 -25.5t-9 -33q-2 -9 -9 -11.5t-22 -2.5q-102 0 -102 77q0 31 14.5 59t43 48.5t71.5 32.5t100 12q111 0 161 -46t50 -130q0 -11 -2.5 -39.5t-6 -60t-6 -59.5t-2.5 -39
q0 -25 9 -35.5t20.5 -14.5t20.5 -6t9 -10q0 -22 -6 -45t-19.5 -42t-37 -31t-57.5 -12q-48 0 -72 23t-32 64q-24 -35 -62.5 -61t-100.5 -26q-30 0 -56.5 7t-46 23t-31 41.5t-11.5 61.5zM322 237q-26 0 -51 -4t-44.5 -12.5t-31.5 -22.5t-12 -34q0 -23 14.5 -32t31.5 -9
q16 0 32 7t28.5 21.5t21.5 35.5t11 50zM299 615q-12 0 -34 19.5t-44.5 45.5t-39 51.5t-16.5 36.5q0 9 12.5 19.5t30 19.5t36.5 15.5t31 6.5q8 0 12.5 -2.5t8.5 -12.5q10 -26 20.5 -51.5t19.5 -46.5t14.5 -35.5t5.5 -17.5q0 -6 -6.5 -14.5t-15.5 -16t-19 -12.5t-16 -5z" />
    <glyph glyph-name="aacute" unicode="&#xe1;" horiz-adv-x="563" 
d="M11 123q0 90 81 141t239 55q1 11 1.5 18.5t0.5 18.5q0 32 -12 51t-50 19q-21 0 -34 -6t-21 -16.5t-13 -25.5t-9 -33q-2 -9 -9 -11.5t-22 -2.5q-102 0 -102 77q0 31 14.5 59t43 48.5t71.5 32.5t100 12q111 0 161 -46t50 -130q0 -11 -2.5 -39.5t-6 -60t-6 -59.5t-2.5 -39
q0 -25 9 -35.5t20.5 -14.5t20.5 -6t9 -10q0 -22 -6 -45t-19.5 -42t-37 -31t-57.5 -12q-48 0 -72 23t-32 64q-24 -35 -62.5 -61t-100.5 -26q-30 0 -56.5 7t-46 23t-31 41.5t-11.5 61.5zM322 237q-26 0 -51 -4t-44.5 -12.5t-31.5 -22.5t-12 -34q0 -23 14.5 -32t31.5 -9
q16 0 32 7t28.5 21.5t21.5 35.5t11 50zM299 615q-7 0 -15.5 5t-16.5 12.5t-13.5 16t-5.5 14.5q0 2 10 17t25 37t33 48t34 49q6 9 10 12t13 3q12 0 31 -6t37 -15t31 -19.5t13 -19.5q0 -7 -11.5 -21t-29.5 -31t-40 -35t-43 -33t-37.5 -24.5t-24.5 -9.5z" />
    <glyph glyph-name="acircumflex" unicode="&#xe2;" horiz-adv-x="563" 
d="M11 123q0 90 81 141t239 55q1 11 1.5 18.5t0.5 18.5q0 32 -12 51t-50 19q-21 0 -34 -6t-21 -16.5t-13 -25.5t-9 -33q-2 -9 -9 -11.5t-22 -2.5q-102 0 -102 77q0 31 14.5 59t43 48.5t71.5 32.5t100 12q111 0 161 -46t50 -130q0 -11 -2.5 -39.5t-6 -60t-6 -59.5t-2.5 -39
q0 -25 9 -35.5t20.5 -14.5t20.5 -6t9 -10q0 -22 -6 -45t-19.5 -42t-37 -31t-57.5 -12q-48 0 -72 23t-32 64q-24 -35 -62.5 -61t-100.5 -26q-30 0 -56.5 7t-46 23t-31 41.5t-11.5 61.5zM322 237q-26 0 -51 -4t-44.5 -12.5t-31.5 -22.5t-12 -34q0 -23 14.5 -32t31.5 -9
q16 0 32 7t28.5 21.5t21.5 35.5t11 50zM426 615q-8 0 -20 8.5t-25.5 23t-28 32.5t-27.5 38q-20 -20 -40.5 -38t-39 -32.5t-33 -23t-22.5 -8.5q-7 0 -15.5 5.5t-16 13t-13 14.5t-5.5 10q0 4 12.5 20t32 38.5t43 48t44.5 49.5q6 7 26.5 11t39.5 4q13 0 30.5 -3t22.5 -12
q16 -27 32 -53.5t29 -48.5t21 -37t8 -17t-6 -9t-14.5 -14.5t-18 -13.5t-16.5 -6z" />
    <glyph glyph-name="atilde" unicode="&#xe3;" horiz-adv-x="563" 
d="M11 123q0 90 81 141t239 55q1 11 1.5 18.5t0.5 18.5q0 32 -12 51t-50 19q-21 0 -34 -6t-21 -16.5t-13 -25.5t-9 -33q-2 -9 -9 -11.5t-22 -2.5q-102 0 -102 77q0 31 14.5 59t43 48.5t71.5 32.5t100 12q111 0 161 -46t50 -130q0 -11 -2.5 -39.5t-6 -60t-6 -59.5t-2.5 -39
q0 -25 9 -35.5t20.5 -14.5t20.5 -6t9 -10q0 -22 -6 -45t-19.5 -42t-37 -31t-57.5 -12q-48 0 -72 23t-32 64q-24 -35 -62.5 -61t-100.5 -26q-30 0 -56.5 7t-46 23t-31 41.5t-11.5 61.5zM322 237q-26 0 -51 -4t-44.5 -12.5t-31.5 -22.5t-12 -34q0 -23 14.5 -32t31.5 -9
q16 0 32 7t28.5 21.5t21.5 35.5t11 50zM396 720q21 0 37 9.5t28.5 20.5t22.5 20.5t19 9.5q5 0 12.5 -6.5t7.5 -32.5q0 -23 -8.5 -47.5t-26 -44t-44.5 -32t-64 -12.5q-35 0 -58 10t-41 22.5t-33.5 22.5t-36.5 10t-35 -10t-25 -22.5t-19.5 -22.5t-18.5 -10q-5 0 -12.5 7
t-7.5 33q0 22 7 45.5t23 43.5t41.5 33t63.5 13q33 0 55.5 -9.5t40.5 -20.5t34.5 -20.5t37.5 -9.5z" />
    <glyph glyph-name="adieresis" unicode="&#xe4;" horiz-adv-x="563" 
d="M11 123q0 90 81 141t239 55q1 11 1.5 18.5t0.5 18.5q0 32 -12 51t-50 19q-21 0 -34 -6t-21 -16.5t-13 -25.5t-9 -33q-2 -9 -9 -11.5t-22 -2.5q-102 0 -102 77q0 31 14.5 59t43 48.5t71.5 32.5t100 12q111 0 161 -46t50 -130q0 -11 -2.5 -39.5t-6 -60t-6 -59.5t-2.5 -39
q0 -25 9 -35.5t20.5 -14.5t20.5 -6t9 -10q0 -22 -6 -45t-19.5 -42t-37 -31t-57.5 -12q-48 0 -72 23t-32 64q-24 -35 -62.5 -61t-100.5 -26q-30 0 -56.5 7t-46 23t-31 41.5t-11.5 61.5zM322 237q-26 0 -51 -4t-44.5 -12.5t-31.5 -22.5t-12 -34q0 -23 14.5 -32t31.5 -9
q16 0 32 7t28.5 21.5t21.5 35.5t11 50zM120 677q0 36 24 57t65 21q36 0 52.5 -16t16.5 -42q0 -33 -23 -55.5t-67 -22.5q-68 0 -68 58zM348 677q0 36 24 57t65 21q36 0 52.5 -16t16.5 -42q0 -33 -23 -55.5t-67 -22.5q-68 0 -68 58z" />
    <glyph glyph-name="aring" unicode="&#xe5;" horiz-adv-x="563" 
d="M11 123q0 90 81 141t239 55q1 11 1.5 18.5t0.5 18.5q0 32 -12 51t-50 19q-21 0 -34 -6t-21 -16.5t-13 -25.5t-9 -33q-2 -9 -9 -11.5t-22 -2.5q-102 0 -102 77q0 31 14.5 59t43 48.5t71.5 32.5t100 12q111 0 161 -46t50 -130q0 -11 -2.5 -39.5t-6 -60t-6 -59.5t-2.5 -39
q0 -25 9 -35.5t20.5 -14.5t20.5 -6t9 -10q0 -22 -6 -45t-19.5 -42t-37 -31t-57.5 -12q-48 0 -72 23t-32 64q-24 -35 -62.5 -61t-100.5 -26q-30 0 -56.5 7t-46 23t-31 41.5t-11.5 61.5zM322 237q-26 0 -51 -4t-44.5 -12.5t-31.5 -22.5t-12 -34q0 -23 14.5 -32t31.5 -9
q16 0 32 7t28.5 21.5t21.5 35.5t11 50zM312 756q43 0 64.5 -18.5t21.5 -46.5q0 -11 -4 -26t-15 -28.5t-30 -22.5t-49 -9q-47 0 -66 21t-19 47q0 15 5.5 30t17.5 26.5t30 19t44 7.5zM308 707q-14 0 -20 -9t-6 -20q0 -10 5 -17.5t17 -7.5q16 0 21 11.5t5 19.5q0 10 -5.5 16.5
t-16.5 6.5z" />
    <glyph glyph-name="ae" unicode="&#xe6;" horiz-adv-x="827" 
d="M11 123q0 90 81.5 141t239.5 55q0 16 0.5 25.5t0.5 15.5q0 32 -13 49t-46 17q-34 0 -47.5 -11.5t-21 -26t-15 -26t-28.5 -11.5q-101 0 -101 74q0 30 16 55t44.5 43t68 27.5t87.5 9.5q57 0 97 -16t62 -56q30 29 76 50.5t115 21.5q48 0 82.5 -12t56.5 -32.5t32 -48
t10 -58.5q0 -46 -19 -78.5t-49.5 -54t-67 -33.5t-71 -17.5t-63.5 -7t-43 -1.5q2 -19 7.5 -37.5t16.5 -32.5t28 -23t43 -9t40.5 8.5t23.5 19t15.5 19t17.5 8.5q5 0 17.5 -2.5t25.5 -10.5t23 -22t10 -36q0 -29 -18 -50t-46.5 -34t-63.5 -19t-68 -6q-55 0 -109 18t-90 63
q-15 -17 -37 -31.5t-49 -25.5t-57.5 -17.5t-62.5 -6.5q-67 0 -109 31t-42 102zM586 427q-22 0 -37.5 -12.5t-26 -31.5t-16 -42t-8.5 -44q62 1 100.5 21t38.5 57q0 20 -12.5 36t-38.5 16zM322 237q-26 0 -51 -4t-44.5 -12.5t-31.5 -22.5t-12 -34q0 -23 15 -32t35 -9
q12 0 27 3.5t28.5 15.5t23 34.5t10.5 60.5z" />
    <glyph glyph-name="ccedilla" unicode="&#xe7;" horiz-adv-x="509" 
d="M294 123q29 0 50.5 8t37.5 18t27 18t20 8q23 0 23 -30q0 -7 -3 -19.5t-8 -26t-10.5 -25.5t-10.5 -18q-4 -5 -15 -14.5t-27.5 -19t-39.5 -18.5t-51 -12l-4 -32q45 0 70.5 -14.5t25.5 -50.5q0 -42 -34 -68.5t-88 -26.5q-11 0 -26.5 1.5t-29 7t-23 15t-9.5 25.5
q0 13 5.5 27.5t13.5 14.5q4 0 8.5 -4t11 -9.5t16 -9.5t22.5 -4q14 0 24 5t10 16q0 12 -11.5 19t-26 11.5t-26 8t-11.5 6.5q0 10 4 28t9 35q-35 5 -68.5 20t-60 44t-43 74t-16.5 109q0 26 3.5 59.5t14.5 69t29.5 70t49.5 61.5t74.5 43.5t103.5 16.5q49 0 84.5 -11.5t58.5 -31
t34.5 -45.5t11.5 -56q0 -54 -34 -79.5t-96 -25.5q-15 0 -20.5 2.5t-5.5 11.5q0 24 -1 43t-5.5 32t-13.5 20t-26 7q-31 0 -49.5 -20t-28 -48.5t-12 -58.5t-2.5 -50q0 -71 22.5 -99t71.5 -28z" />
    <glyph glyph-name="egrave" unicode="&#xe8;" horiz-adv-x="532" 
d="M272 -10q-44 0 -87.5 11t-78 38t-56.5 72t-22 113q0 25 4 60t15.5 72t32 73.5t53.5 65.5t80 47t112 18q52 0 88 -12t58 -32.5t32 -47.5t10 -58q0 -46 -18.5 -78t-48 -53.5t-65.5 -33.5t-71 -18.5t-64.5 -8t-45.5 -1.5q0 -19 5.5 -37.5t16.5 -32.5t29 -23t44 -9t40.5 8.5
t23.5 19t15.5 19t17.5 8.5q5 0 17.5 -2.5t25.5 -10.5t23 -22t10 -36q0 -29 -18 -50t-46.5 -34t-63.5 -19t-68 -6zM291 427q-22 0 -37.5 -12.5t-26 -31.5t-16 -42t-8.5 -44q62 1 100.5 21t38.5 57q0 20 -12.5 36t-38.5 16zM325 615q-12 0 -34 19.5t-44.5 45.5t-39 51.5
t-16.5 36.5q0 9 12.5 19.5t30 19.5t36.5 15.5t31 6.5q8 0 12.5 -2.5t8.5 -12.5q10 -26 20.5 -51.5t19.5 -46.5t14.5 -35.5t5.5 -17.5q0 -6 -6.5 -14.5t-15.5 -16t-19 -12.5t-16 -5z" />
    <glyph glyph-name="eacute" unicode="&#xe9;" horiz-adv-x="532" 
d="M272 -10q-44 0 -87.5 11t-78 38t-56.5 72t-22 113q0 25 4 60t15.5 72t32 73.5t53.5 65.5t80 47t112 18q52 0 88 -12t58 -32.5t32 -47.5t10 -58q0 -46 -18.5 -78t-48 -53.5t-65.5 -33.5t-71 -18.5t-64.5 -8t-45.5 -1.5q0 -19 5.5 -37.5t16.5 -32.5t29 -23t44 -9t40.5 8.5
t23.5 19t15.5 19t17.5 8.5q5 0 17.5 -2.5t25.5 -10.5t23 -22t10 -36q0 -29 -18 -50t-46.5 -34t-63.5 -19t-68 -6zM291 427q-22 0 -37.5 -12.5t-26 -31.5t-16 -42t-8.5 -44q62 1 100.5 21t38.5 57q0 20 -12.5 36t-38.5 16zM335 615q-7 0 -15.5 5t-16.5 12.5t-13.5 16
t-5.5 14.5q0 2 10 17t25 37t33 48t34 49q6 9 10 12t13 3q12 0 31 -6t37 -15t31 -19.5t13 -19.5q0 -7 -11.5 -21t-29.5 -31t-40 -35t-43 -33t-37.5 -24.5t-24.5 -9.5z" />
    <glyph glyph-name="ecircumflex" unicode="&#xea;" horiz-adv-x="532" 
d="M272 -10q-44 0 -87.5 11t-78 38t-56.5 72t-22 113q0 25 4 60t15.5 72t32 73.5t53.5 65.5t80 47t112 18q52 0 88 -12t58 -32.5t32 -47.5t10 -58q0 -46 -18.5 -78t-48 -53.5t-65.5 -33.5t-71 -18.5t-64.5 -8t-45.5 -1.5q0 -19 5.5 -37.5t16.5 -32.5t29 -23t44 -9t40.5 8.5
t23.5 19t15.5 19t17.5 8.5q5 0 17.5 -2.5t25.5 -10.5t23 -22t10 -36q0 -29 -18 -50t-46.5 -34t-63.5 -19t-68 -6zM291 427q-22 0 -37.5 -12.5t-26 -31.5t-16 -42t-8.5 -44q62 1 100.5 21t38.5 57q0 20 -12.5 36t-38.5 16zM448 615q-8 0 -20 8.5t-25.5 23t-28 32.5t-27.5 38
q-20 -20 -40.5 -38t-39 -32.5t-33 -23t-22.5 -8.5q-7 0 -15.5 5.5t-16 13t-13 14.5t-5.5 10q0 4 12.5 20t32 38.5t43 48t44.5 49.5q6 7 26.5 11t39.5 4q13 0 30.5 -3t22.5 -12q16 -27 32 -53.5t29 -48.5t21 -37t8 -17t-6 -9t-14.5 -14.5t-18 -13.5t-16.5 -6z" />
    <glyph glyph-name="edieresis" unicode="&#xeb;" horiz-adv-x="532" 
d="M272 -10q-44 0 -87.5 11t-78 38t-56.5 72t-22 113q0 25 4 60t15.5 72t32 73.5t53.5 65.5t80 47t112 18q52 0 88 -12t58 -32.5t32 -47.5t10 -58q0 -46 -18.5 -78t-48 -53.5t-65.5 -33.5t-71 -18.5t-64.5 -8t-45.5 -1.5q0 -19 5.5 -37.5t16.5 -32.5t29 -23t44 -9t40.5 8.5
t23.5 19t15.5 19t17.5 8.5q5 0 17.5 -2.5t25.5 -10.5t23 -22t10 -36q0 -29 -18 -50t-46.5 -34t-63.5 -19t-68 -6zM291 427q-22 0 -37.5 -12.5t-26 -31.5t-16 -42t-8.5 -44q62 1 100.5 21t38.5 57q0 20 -12.5 36t-38.5 16zM141 677q0 36 24 57t65 21q36 0 52.5 -16t16.5 -42
q0 -33 -23 -55.5t-67 -22.5q-68 0 -68 58zM369 677q0 36 24 57t65 21q36 0 52.5 -16t16.5 -42q0 -33 -23 -55.5t-67 -22.5q-68 0 -68 58z" />
    <glyph glyph-name="igrave" unicode="&#xec;" horiz-adv-x="281" 
d="M144 0q-31 0 -50.5 6.5t-31 18.5t-16 29.5t-4.5 40.5q0 15 1.5 42.5t5.5 76t9.5 123t13.5 184.5q2 22 4.5 25.5t16.5 3.5h39q31 0 50.5 -6t31 -18t16 -29t4.5 -38q0 -15 -2 -45t-5.5 -81.5t-9.5 -128t-15 -184.5q-1 -12 -5 -16t-17 -4h-36zM147 615q-12 0 -34 19.5
t-44.5 45.5t-39 51.5t-16.5 36.5q0 9 12.5 19.5t30 19.5t36.5 15.5t31 6.5q8 0 12.5 -2.5t8.5 -12.5q10 -26 20.5 -51.5t19.5 -46.5t14.5 -35.5t5.5 -17.5q0 -6 -6.5 -14.5t-15.5 -16t-19 -12.5t-16 -5z" />
    <glyph glyph-name="iacute" unicode="&#xed;" horiz-adv-x="281" 
d="M144 0q-31 0 -50.5 6.5t-31 18.5t-16 29.5t-4.5 40.5q0 15 1.5 42.5t5.5 76t9.5 123t13.5 184.5q2 22 4.5 25.5t16.5 3.5h39q31 0 50.5 -6t31 -18t16 -29t4.5 -38q0 -15 -2 -45t-5.5 -81.5t-9.5 -128t-15 -184.5q-1 -12 -5 -16t-17 -4h-36zM147 615q-7 0 -15.5 5
t-16.5 12.5t-13.5 16t-5.5 14.5q0 2 10 17t25 37t33 48t34 49q6 9 10 12t13 3q12 0 31 -6t37 -15t31 -19.5t13 -19.5q0 -7 -11.5 -21t-29.5 -31t-40 -35t-43 -33t-37.5 -24.5t-24.5 -9.5z" />
    <glyph glyph-name="icircumflex" unicode="&#xee;" horiz-adv-x="281" 
d="M144 0q-31 0 -50.5 6.5t-31 18.5t-16 29.5t-4.5 40.5q0 15 1.5 42.5t5.5 76t9.5 123t13.5 184.5q2 22 4.5 25.5t16.5 3.5h39q31 0 50.5 -6t31 -18t16 -29t4.5 -38q0 -15 -2 -45t-5.5 -81.5t-9.5 -128t-15 -184.5q-1 -12 -5 -16t-17 -4h-36zM260 615q-8 0 -20 8.5
t-25.5 23t-28 32.5t-27.5 38q-20 -20 -40.5 -38t-39 -32.5t-33 -23t-22.5 -8.5q-7 0 -15.5 5.5t-16 13t-13 14.5t-5.5 10q0 4 12.5 20t32 38.5t43 48t44.5 49.5q6 7 26.5 11t39.5 4q13 0 30.5 -3t22.5 -12q16 -27 32 -53.5t29 -48.5t21 -37t8 -17t-6 -9t-14.5 -14.5
t-18 -13.5t-16.5 -6z" />
    <glyph glyph-name="idieresis" unicode="&#xef;" horiz-adv-x="281" 
d="M144 0q-31 0 -50.5 6.5t-31 18.5t-16 29.5t-4.5 40.5q0 15 1.5 42.5t5.5 76t9.5 123t13.5 184.5q2 22 4.5 25.5t16.5 3.5h39q31 0 50.5 -6t31 -18t16 -29t4.5 -38q0 -15 -2 -45t-5.5 -81.5t-9.5 -128t-15 -184.5q-1 -12 -5 -16t-17 -4h-36zM-19 677q0 36 24 57t65 21
q36 0 52.5 -16t16.5 -42q0 -33 -23 -55.5t-67 -22.5q-68 0 -68 58zM209 677q0 36 24 57t65 21q36 0 52.5 -16t16.5 -42q0 -33 -23 -55.5t-67 -22.5q-68 0 -68 58z" />
    <glyph glyph-name="eth" unicode="&#xf0;" horiz-adv-x="603" 
d="M530 583q18 -41 28.5 -91t10.5 -113q0 -42 -5.5 -87t-19 -88t-36 -82t-56 -68.5t-80 -46.5t-107.5 -17t-107.5 17.5t-78 49t-47.5 75t-16 95.5q0 62 20.5 105.5t52.5 71t71.5 40t77.5 12.5q37 0 63 -10t42.5 -22.5t25 -24t9.5 -13.5q4 5 7 16.5t3 34.5q0 19 -3 40.5
t-11 43.5q-36 -15 -58 -24t-34 -14t-16.5 -6.5t-5.5 -1.5q-4 0 -9 9t-9 21.5t-6.5 25.5t-2.5 21q0 14 9.5 30t33.5 25q5 2 9.5 3.5t9.5 3.5q-19 9 -43 14.5t-53 5.5q-4 8 -6.5 19.5t-2.5 22.5q0 37 29.5 56t75.5 19q42 0 86.5 -17t82.5 -55q93 39 95 39q7 0 13 -9.5t10 -22
t6.5 -25t2.5 -19.5q0 -17 -13 -31t-48 -28zM282 336q-42 0 -59.5 -27t-17.5 -63q0 -19 4.5 -37t14.5 -32t24.5 -22.5t35.5 -8.5q37 0 56.5 26.5t19.5 69.5q0 17 -3.5 33.5t-12.5 30t-24 22t-38 8.5z" />
    <glyph glyph-name="ntilde" unicode="&#xf1;" 
d="M382 88q0 22 3.5 57.5t7 75t7 76.5t3.5 62q0 26 -12.5 46.5t-48.5 20.5q-35 0 -58 -17t-38.5 -62t-25.5 -124t-19 -203q-1 -12 -5 -16t-17 -4h-36q-31 0 -50.5 6.5t-31 18.5t-16 29.5t-4.5 40.5q0 15 1.5 42.5t5.5 76t9.5 123t13.5 184.5q1 22 5 26q3 3 16 3h39
q30 0 49.5 -7t31.5 -18.5t17 -27t6 -31.5q31 53 71 73.5t100 20.5q42 0 73 -9t51.5 -30.5t30.5 -56t10 -85.5q0 -16 -2 -46t-5 -65.5t-6.5 -74l-6.5 -71.5t-5 -58t-2 -33q0 -22 -5 -26.5t-22 -4.5h-32q-32 0 -52 6t-31 17t-15.5 27.5t-4.5 37.5zM449 720q21 0 37 9.5
t28.5 20.5t22.5 20.5t19 9.5q5 0 12.5 -6.5t7.5 -32.5q0 -23 -8.5 -47.5t-26 -44t-44.5 -32t-64 -12.5q-35 0 -58 10t-41 22.5t-33.5 22.5t-36.5 10t-35 -10t-25 -22.5t-19.5 -22.5t-18.5 -10q-5 0 -12.5 7t-7.5 33q0 22 7 45.5t23 43.5t41.5 33t63.5 13q33 0 55.5 -9.5
t40.5 -20.5t34.5 -20.5t37.5 -9.5z" />
    <glyph glyph-name="ograve" unicode="&#xf2;" horiz-adv-x="598" 
d="M265 -10q-69 0 -114.5 19.5t-72.5 53.5t-38 79.5t-11 97.5q0 60 14.5 117.5t49.5 102.5t92.5 72.5t143.5 27.5q126 0 180.5 -61.5t54.5 -172.5q0 -31 -4.5 -68.5t-17 -74.5t-34 -72t-54.5 -62t-79.5 -43t-109.5 -16zM312 427q-38 0 -60.5 -19.5t-34 -47t-15 -58
t-3.5 -51.5q0 -66 21 -97t60 -31q35 0 57.5 22t35 53t17 65t4.5 57q0 50 -18.5 78.5t-63.5 28.5zM339 615q-12 0 -34 19.5t-44.5 45.5t-39 51.5t-16.5 36.5q0 9 12.5 19.5t30 19.5t36.5 15.5t31 6.5q8 0 12.5 -2.5t8.5 -12.5q10 -26 20.5 -51.5t19.5 -46.5t14.5 -35.5
t5.5 -17.5q0 -6 -6.5 -14.5t-15.5 -16t-19 -12.5t-16 -5z" />
    <glyph glyph-name="oacute" unicode="&#xf3;" horiz-adv-x="598" 
d="M265 -10q-69 0 -114.5 19.5t-72.5 53.5t-38 79.5t-11 97.5q0 60 14.5 117.5t49.5 102.5t92.5 72.5t143.5 27.5q126 0 180.5 -61.5t54.5 -172.5q0 -31 -4.5 -68.5t-17 -74.5t-34 -72t-54.5 -62t-79.5 -43t-109.5 -16zM312 427q-38 0 -60.5 -19.5t-34 -47t-15 -58
t-3.5 -51.5q0 -66 21 -97t60 -31q35 0 57.5 22t35 53t17 65t4.5 57q0 50 -18.5 78.5t-63.5 28.5zM339 615q-7 0 -15.5 5t-16.5 12.5t-13.5 16t-5.5 14.5q0 2 10 17t25 37t33 48t34 49q6 9 10 12t13 3q12 0 31 -6t37 -15t31 -19.5t13 -19.5q0 -7 -11.5 -21t-29.5 -31t-40 -35
t-43 -33t-37.5 -24.5t-24.5 -9.5z" />
    <glyph glyph-name="ocircumflex" unicode="&#xf4;" horiz-adv-x="598" 
d="M265 -10q-69 0 -114.5 19.5t-72.5 53.5t-38 79.5t-11 97.5q0 60 14.5 117.5t49.5 102.5t92.5 72.5t143.5 27.5q126 0 180.5 -61.5t54.5 -172.5q0 -31 -4.5 -68.5t-17 -74.5t-34 -72t-54.5 -62t-79.5 -43t-109.5 -16zM312 427q-38 0 -60.5 -19.5t-34 -47t-15 -58
t-3.5 -51.5q0 -66 21 -97t60 -31q35 0 57.5 22t35 53t17 65t4.5 57q0 50 -18.5 78.5t-63.5 28.5zM458 615q-8 0 -20 8.5t-25.5 23t-28 32.5t-27.5 38q-20 -20 -40.5 -38t-39 -32.5t-33 -23t-22.5 -8.5q-7 0 -15.5 5.5t-16 13t-13 14.5t-5.5 10q0 4 12.5 20t32 38.5t43 48
t44.5 49.5q6 7 26.5 11t39.5 4q13 0 30.5 -3t22.5 -12q16 -27 32 -53.5t29 -48.5t21 -37t8 -17t-6 -9t-14.5 -14.5t-18 -13.5t-16.5 -6z" />
    <glyph glyph-name="otilde" unicode="&#xf5;" horiz-adv-x="598" 
d="M265 -10q-69 0 -114.5 19.5t-72.5 53.5t-38 79.5t-11 97.5q0 60 14.5 117.5t49.5 102.5t92.5 72.5t143.5 27.5q126 0 180.5 -61.5t54.5 -172.5q0 -31 -4.5 -68.5t-17 -74.5t-34 -72t-54.5 -62t-79.5 -43t-109.5 -16zM312 427q-38 0 -60.5 -19.5t-34 -47t-15 -58
t-3.5 -51.5q0 -66 21 -97t60 -31q35 0 57.5 22t35 53t17 65t4.5 57q0 50 -18.5 78.5t-63.5 28.5zM436 720q21 0 37 9.5t28.5 20.5t22.5 20.5t19 9.5q5 0 12.5 -6.5t7.5 -32.5q0 -23 -8.5 -47.5t-26 -44t-44.5 -32t-64 -12.5q-35 0 -58 10t-41 22.5t-33.5 22.5t-36.5 10
t-35 -10t-25 -22.5t-19.5 -22.5t-18.5 -10q-5 0 -12.5 7t-7.5 33q0 22 7 45.5t23 43.5t41.5 33t63.5 13q33 0 55.5 -9.5t40.5 -20.5t34.5 -20.5t37.5 -9.5z" />
    <glyph glyph-name="odieresis" unicode="&#xf6;" horiz-adv-x="598" 
d="M265 -10q-69 0 -114.5 19.5t-72.5 53.5t-38 79.5t-11 97.5q0 60 14.5 117.5t49.5 102.5t92.5 72.5t143.5 27.5q126 0 180.5 -61.5t54.5 -172.5q0 -31 -4.5 -68.5t-17 -74.5t-34 -72t-54.5 -62t-79.5 -43t-109.5 -16zM312 427q-38 0 -60.5 -19.5t-34 -47t-15 -58
t-3.5 -51.5q0 -66 21 -97t60 -31q35 0 57.5 22t35 53t17 65t4.5 57q0 50 -18.5 78.5t-63.5 28.5zM150 677q0 36 24 57t65 21q36 0 52.5 -16t16.5 -42q0 -33 -23 -55.5t-67 -22.5q-68 0 -68 58zM378 677q0 36 24 57t65 21q36 0 52.5 -16t16.5 -42q0 -33 -23 -55.5t-67 -22.5
q-68 0 -68 58z" />
    <glyph glyph-name="divide" unicode="&#xf7;" horiz-adv-x="483" 
d="M283 565q42 0 59.5 -18t17.5 -50q0 -14 -4 -30.5t-14.5 -31.5t-29.5 -25t-49 -10q-45 0 -61 21t-16 51q0 17 4.5 34t16 30t30 21t46.5 8zM34 228q-11 0 -11 11v4v6t0.5 11t1.5 20t3.5 25.5t10 22.5t21.5 16t37 6h342q6 0 11 -3.5t5 -10.5l-3 -41q-2 -30 -16.5 -48.5
t-59.5 -18.5h-342zM229 178q42 0 59.5 -18t17.5 -50q0 -14 -4 -30.5t-14.5 -31.5t-29.5 -25t-49 -10q-45 0 -61 21t-16 51q0 17 4.5 34t16 30t30 21t46.5 8z" />
    <glyph glyph-name="oslash" unicode="&#xf8;" horiz-adv-x="598" 
d="M265 -10q-54 0 -93 12l-30 -43q-11 -16 -32 -21.5t-34 -5.5q-21 0 -28.5 9.5t-7.5 21.5q0 15 8.5 37.5t31.5 60.5q-29 34 -40 79.5t-11 99.5q0 60 14.5 117.5t49.5 102.5t92.5 72.5t143.5 27.5q51 0 87 -10l39 54q11 15 30.5 22.5t35.5 7.5q23 0 31 -11.5t8 -20.5
q0 -11 -11.5 -35t-39.5 -69q29 -30 42 -73t13 -99q0 -31 -4.5 -68.5t-17 -74.5t-34 -72t-54.5 -62t-79.5 -43t-109.5 -16zM407 343q-31 -45 -68.5 -100t-84.5 -122q12 -3 26 -3q40 0 65 22.5t39 54.5t19.5 66.5t5.5 58.5q0 6 -0.5 12t-1.5 11zM312 432q-43 0 -68 -20
t-38.5 -48.5t-17.5 -59.5t-4 -53v-15t1 -14q29 42 65 94t81 115q-5 1 -9.5 1h-9.5z" />
    <glyph glyph-name="ugrave" unicode="&#xf9;" horiz-adv-x="600" 
d="M232 465q0 -21 -3.5 -59t-7 -79t-7 -77t-3.5 -52q0 -35 17.5 -54.5t48.5 -19.5q27 0 45.5 21.5t30 56t18.5 78.5t10.5 89t6 87.5t5.5 73.5q1 8 6 14t16 6h36q31 0 50.5 -6.5t31 -18.5t16 -29.5t4.5 -40.5q0 -15 -1.5 -42.5t-5.5 -76t-9.5 -123t-13.5 -184.5
q-2 -21 -4.5 -25t-16.5 -4h-39q-30 0 -49.5 7t-31.5 18t-17 26t-6 31q-15 -26 -33.5 -44t-38.5 -28.5t-41 -15t-41 -4.5q-38 0 -68 12.5t-50.5 33.5t-31.5 50t-11 62q0 13 1.5 42.5t4 66.5t5.5 78.5t5.5 78.5t5 65t3.5 40q2 18 8 24.5t20 6.5h32q31 0 51 -6t31.5 -17
t16 -26.5t4.5 -35.5zM316 615q-12 0 -34 19.5t-44.5 45.5t-39 51.5t-16.5 36.5q0 9 12.5 19.5t30 19.5t36.5 15.5t31 6.5q8 0 12.5 -2.5t8.5 -12.5q10 -26 20.5 -51.5t19.5 -46.5t14.5 -35.5t5.5 -17.5q0 -6 -6.5 -14.5t-15.5 -16t-19 -12.5t-16 -5z" />
    <glyph glyph-name="uacute" unicode="&#xfa;" horiz-adv-x="600" 
d="M232 465q0 -21 -3.5 -59t-7 -79t-7 -77t-3.5 -52q0 -35 17.5 -54.5t48.5 -19.5q27 0 45.5 21.5t30 56t18.5 78.5t10.5 89t6 87.5t5.5 73.5q1 8 6 14t16 6h36q31 0 50.5 -6.5t31 -18.5t16 -29.5t4.5 -40.5q0 -15 -1.5 -42.5t-5.5 -76t-9.5 -123t-13.5 -184.5
q-2 -21 -4.5 -25t-16.5 -4h-39q-30 0 -49.5 7t-31.5 18t-17 26t-6 31q-15 -26 -33.5 -44t-38.5 -28.5t-41 -15t-41 -4.5q-38 0 -68 12.5t-50.5 33.5t-31.5 50t-11 62q0 13 1.5 42.5t4 66.5t5.5 78.5t5.5 78.5t5 65t3.5 40q2 18 8 24.5t20 6.5h32q31 0 51 -6t31.5 -17
t16 -26.5t4.5 -35.5zM316 615q-7 0 -15.5 5t-16.5 12.5t-13.5 16t-5.5 14.5q0 2 10 17t25 37t33 48t34 49q6 9 10 12t13 3q12 0 31 -6t37 -15t31 -19.5t13 -19.5q0 -7 -11.5 -21t-29.5 -31t-40 -35t-43 -33t-37.5 -24.5t-24.5 -9.5z" />
    <glyph glyph-name="ucircumflex" unicode="&#xfb;" horiz-adv-x="600" 
d="M232 465q0 -21 -3.5 -59t-7 -79t-7 -77t-3.5 -52q0 -35 17.5 -54.5t48.5 -19.5q27 0 45.5 21.5t30 56t18.5 78.5t10.5 89t6 87.5t5.5 73.5q1 8 6 14t16 6h36q31 0 50.5 -6.5t31 -18.5t16 -29.5t4.5 -40.5q0 -15 -1.5 -42.5t-5.5 -76t-9.5 -123t-13.5 -184.5
q-2 -21 -4.5 -25t-16.5 -4h-39q-30 0 -49.5 7t-31.5 18t-17 26t-6 31q-15 -26 -33.5 -44t-38.5 -28.5t-41 -15t-41 -4.5q-38 0 -68 12.5t-50.5 33.5t-31.5 50t-11 62q0 13 1.5 42.5t4 66.5t5.5 78.5t5.5 78.5t5 65t3.5 40q2 18 8 24.5t20 6.5h32q31 0 51 -6t31.5 -17
t16 -26.5t4.5 -35.5zM429 615q-8 0 -20 8.5t-25.5 23t-28 32.5t-27.5 38q-20 -20 -40.5 -38t-39 -32.5t-33 -23t-22.5 -8.5q-7 0 -15.5 5.5t-16 13t-13 14.5t-5.5 10q0 4 12.5 20t32 38.5t43 48t44.5 49.5q6 7 26.5 11t39.5 4q13 0 30.5 -3t22.5 -12q16 -27 32 -53.5
t29 -48.5t21 -37t8 -17t-6 -9t-14.5 -14.5t-18 -13.5t-16.5 -6z" />
    <glyph glyph-name="udieresis" unicode="&#xfc;" horiz-adv-x="600" 
d="M232 465q0 -21 -3.5 -59t-7 -79t-7 -77t-3.5 -52q0 -35 17.5 -54.5t48.5 -19.5q27 0 45.5 21.5t30 56t18.5 78.5t10.5 89t6 87.5t5.5 73.5q1 8 6 14t16 6h36q31 0 50.5 -6.5t31 -18.5t16 -29.5t4.5 -40.5q0 -15 -1.5 -42.5t-5.5 -76t-9.5 -123t-13.5 -184.5
q-2 -21 -4.5 -25t-16.5 -4h-39q-30 0 -49.5 7t-31.5 18t-17 26t-6 31q-15 -26 -33.5 -44t-38.5 -28.5t-41 -15t-41 -4.5q-38 0 -68 12.5t-50.5 33.5t-31.5 50t-11 62q0 13 1.5 42.5t4 66.5t5.5 78.5t5.5 78.5t5 65t3.5 40q2 18 8 24.5t20 6.5h32q31 0 51 -6t31.5 -17
t16 -26.5t4.5 -35.5zM128 664q0 36 24 57t65 21q36 0 52.5 -16t16.5 -42q0 -33 -23 -55.5t-67 -22.5q-68 0 -68 58zM356 664q0 36 24 57t65 21q36 0 52.5 -16t16.5 -42q0 -33 -23 -55.5t-67 -22.5q-68 0 -68 58z" />
    <glyph glyph-name="yacute" unicode="&#xfd;" horiz-adv-x="610" 
d="M232 458q0 -23 -3 -54.5t-6.5 -63t-6.5 -59t-3 -42.5q0 -38 18.5 -56.5t45.5 -18.5q47 0 75 49t35 130l16 187q1 11 7.5 15.5t14.5 4.5h36q21 0 39.5 -3.5t32.5 -13t22 -25.5t8 -41q0 -10 -1.5 -37.5t-5 -79t-9.5 -130t-14 -191.5q-5 -66 -29.5 -109.5t-61.5 -69
t-83 -35.5t-94 -10q-51 0 -93.5 9t-73.5 25t-48.5 37t-17.5 45q0 19 8.5 33t22.5 23t32.5 13.5t38.5 4.5q10 0 14.5 -10t14 -22.5t30.5 -22.5t63 -10q37 0 60 18t35.5 46t16.5 61t4 63q-16 -28 -35.5 -45.5t-40.5 -27t-42 -12.5t-40 -3q-37 0 -67.5 10t-52.5 32.5t-34 58.5
t-12 87q0 19 2 50.5t5 71t6.5 85.5t7.5 94q2 31 28 31h32q32 0 52 -6t31.5 -17.5t15.5 -29t4 -39.5zM320 615q-7 0 -15.5 5t-16.5 12.5t-13.5 16t-5.5 14.5q0 2 10 17t25 37t33 48t34 49q6 9 10 12t13 3q12 0 31 -6t37 -15t31 -19.5t13 -19.5q0 -7 -11.5 -21t-29.5 -31
t-40 -35t-43 -33t-37.5 -24.5t-24.5 -9.5z" />
    <glyph glyph-name="thorn" unicode="&#xfe;" horiz-adv-x="611" 
d="M28 -99q0 16 2.5 58.5t7 99t10 122t10.5 128.5q8 102 13.5 174t8.5 119t4 72.5t1 36.5q0 22 3 25.5t18 3.5h39q30 0 50 -7t32 -19t17 -27.5t5 -33.5q0 -17 -3.5 -66t-8.5 -115q26 45 59 66.5t87 21.5q91 0 141.5 -59.5t50.5 -185.5q0 -75 -18 -135t-50 -102t-75.5 -65
t-93.5 -23q-52 0 -82 23t-47 65q-4 -36 -6 -55t-3 -30.5t-2 -20.5t-2 -24t-3 -41t-5 -72q-1 -12 -5 -16t-17 -4h-36q-57 0 -79.5 22t-22.5 64zM395 297q0 60 -17.5 95t-62.5 35q-33 0 -53 -18t-30.5 -44t-14 -55t-3.5 -51q0 -24 3.5 -48.5t12.5 -44t24.5 -31.5t39.5 -12
q43 0 72 42t29 132z" />
    <glyph glyph-name="ydieresis" unicode="&#xff;" horiz-adv-x="610" 
d="M232 458q0 -23 -3 -54.5t-6.5 -63t-6.5 -59t-3 -42.5q0 -38 18.5 -56.5t45.5 -18.5q47 0 75 49t35 130l16 187q1 11 7.5 15.5t14.5 4.5h36q21 0 39.5 -3.5t32.5 -13t22 -25.5t8 -41q0 -10 -1.5 -37.5t-5 -79t-9.5 -130t-14 -191.5q-5 -66 -29.5 -109.5t-61.5 -69
t-83 -35.5t-94 -10q-51 0 -93.5 9t-73.5 25t-48.5 37t-17.5 45q0 19 8.5 33t22.5 23t32.5 13.5t38.5 4.5q10 0 14.5 -10t14 -22.5t30.5 -22.5t63 -10q37 0 60 18t35.5 46t16.5 61t4 63q-16 -28 -35.5 -45.5t-40.5 -27t-42 -12.5t-40 -3q-37 0 -67.5 10t-52.5 32.5t-34 58.5
t-12 87q0 19 2 50.5t5 71t6.5 85.5t7.5 94q2 31 28 31h32q32 0 52 -6t31.5 -17.5t15.5 -29t4 -39.5zM136 677q0 36 24 57t65 21q36 0 52.5 -16t16.5 -42q0 -33 -23 -55.5t-67 -22.5q-68 0 -68 58zM364 677q0 36 24 57t65 21q36 0 52.5 -16t16.5 -42q0 -33 -23 -55.5
t-67 -22.5q-68 0 -68 58z" />
    <glyph glyph-name="Amacron" unicode="&#x100;" 
d="M366 710q25 0 41.5 -9.5t27.5 -25t18 -35.5t12 -41q40 -162 66 -267t41 -169.5t21 -95.5t6 -43q0 -14 -6.5 -19t-20.5 -5h-51q-43 0 -68.5 10.5t-39 30.5t-19.5 48.5t-10 64.5h-174l-33 -138q-5 -16 -23 -16h-53q-16 0 -33 3.5t-30.5 11.5t-22.5 20.5t-9 30.5q0 22 14 72
t35.5 113.5t48 133t51.5 131.5t45.5 109t31.5 66q8 14 14.5 16.5t24.5 2.5h95zM246 299h115l-42 264zM172 800q-11 0 -11 11q0 17 1 34t8 31t22 22.5t42 8.5h272q6 0 11 -3.5t5 -10.5q0 -21 -2.5 -38t-10.5 -29t-23.5 -19t-41.5 -7h-272z" />
    <glyph glyph-name="amacron" unicode="&#x101;" horiz-adv-x="563" 
d="M11 123q0 90 81 141t239 55q1 11 1.5 18.5t0.5 18.5q0 32 -12 51t-50 19q-21 0 -34 -6t-21 -16.5t-13 -25.5t-9 -33q-2 -9 -9 -11.5t-22 -2.5q-102 0 -102 77q0 31 14.5 59t43 48.5t71.5 32.5t100 12q111 0 161 -46t50 -130q0 -11 -2.5 -39.5t-6 -60t-6 -59.5t-2.5 -39
q0 -25 9 -35.5t20.5 -14.5t20.5 -6t9 -10q0 -22 -6 -45t-19.5 -42t-37 -31t-57.5 -12q-48 0 -72 23t-32 64q-24 -35 -62.5 -61t-100.5 -26q-30 0 -56.5 7t-46 23t-31 41.5t-11.5 61.5zM322 237q-26 0 -51 -4t-44.5 -12.5t-31.5 -22.5t-12 -34q0 -23 14.5 -32t31.5 -9
q16 0 32 7t28.5 21.5t21.5 35.5t11 50zM137 618q-11 0 -11 11q0 18 1.5 35t8 30.5t21.5 22t42 8.5h272q6 0 11 -3.5t5 -10.5q0 -21 -2.5 -38t-10.5 -29t-23.5 -19t-41.5 -7h-272z" />
    <glyph glyph-name="Abreve" unicode="&#x102;" 
d="M366 710q25 0 41.5 -9.5t27.5 -25t18 -35.5t12 -41q40 -162 66 -267t41 -169.5t21 -95.5t6 -43q0 -14 -6.5 -19t-20.5 -5h-51q-43 0 -68.5 10.5t-39 30.5t-19.5 48.5t-10 64.5h-174l-33 -138q-5 -16 -23 -16h-53q-16 0 -33 3.5t-30.5 11.5t-22.5 20.5t-9 30.5q0 22 14 72
t35.5 113.5t48 133t51.5 131.5t45.5 109t31.5 66q8 14 14.5 16.5t24.5 2.5h95zM246 299h115l-42 264zM328 780q-41 0 -69 9.5t-46 23.5t-26 30.5t-8 30.5q0 25 20 38t46 13q23 0 31.5 -9t14.5 -20.5t14.5 -20.5t31.5 -9t36 9t24 20.5t26 20.5t42 9q43 0 43 -31
q0 -17 -11.5 -37t-34 -37t-56 -28.5t-78.5 -11.5z" />
    <glyph glyph-name="abreve" unicode="&#x103;" horiz-adv-x="563" 
d="M11 123q0 90 81 141t239 55q1 11 1.5 18.5t0.5 18.5q0 32 -12 51t-50 19q-21 0 -34 -6t-21 -16.5t-13 -25.5t-9 -33q-2 -9 -9 -11.5t-22 -2.5q-102 0 -102 77q0 31 14.5 59t43 48.5t71.5 32.5t100 12q111 0 161 -46t50 -130q0 -11 -2.5 -39.5t-6 -60t-6 -59.5t-2.5 -39
q0 -25 9 -35.5t20.5 -14.5t20.5 -6t9 -10q0 -22 -6 -45t-19.5 -42t-37 -31t-57.5 -12q-48 0 -72 23t-32 64q-24 -35 -62.5 -61t-100.5 -26q-30 0 -56.5 7t-46 23t-31 41.5t-11.5 61.5zM322 237q-26 0 -51 -4t-44.5 -12.5t-31.5 -22.5t-12 -34q0 -23 14.5 -32t31.5 -9
q16 0 32 7t28.5 21.5t21.5 35.5t11 50zM299 605q-41 0 -69 9.5t-46 23.5t-26 30.5t-8 30.5q0 25 20 38t46 13q23 0 31.5 -9t14.5 -20.5t14.5 -20.5t31.5 -9t36 9t24 20.5t26 20.5t42 9q43 0 43 -31q0 -17 -11.5 -37t-34 -37t-56 -28.5t-78.5 -11.5z" />
    <glyph glyph-name="Aogonek" unicode="&#x104;" 
d="M366 710q25 0 41.5 -9.5t27.5 -25t18 -35.5t12 -41q40 -162 66 -267t41 -169.5t21 -95.5t6 -43q0 -14 -6.5 -19t-20.5 -5h-38q-37 -40 -37 -73q0 -17 8 -28t18 -18.5t18 -13t8 -11.5q0 -5 -7.5 -14t-20.5 -17t-31 -14t-40 -6q-41 0 -60 20.5t-19 49.5q0 31 21.5 63.5
t72.5 67.5q-24 6 -38 19t-22.5 32t-13 43.5t-7.5 53.5h-174l-33 -138q-5 -16 -23 -16h-53q-16 0 -33 3.5t-30.5 11.5t-22.5 20.5t-9 30.5q0 22 14 72t35.5 113.5t48 133t51.5 131.5t45.5 109t31.5 66q8 14 14.5 16.5t24.5 2.5h95zM246 299h115l-42 264z" />
    <glyph glyph-name="aogonek" unicode="&#x105;" horiz-adv-x="563" 
d="M11 123q0 90 81 141t239 55q1 11 1.5 18.5t0.5 18.5q0 32 -12 51t-50 19q-21 0 -34 -6t-21 -16.5t-13 -25.5t-9 -33q-2 -9 -9 -11.5t-22 -2.5q-102 0 -102 77q0 31 14.5 59t43 48.5t71.5 32.5t100 12q111 0 161 -46t50 -130q0 -11 -2.5 -39.5t-6 -60t-6 -59.5t-2.5 -39
q0 -25 9 -35.5t20.5 -14.5t20.5 -6t9 -10q0 -27 -8.5 -54t-29.5 -47q-26 -25 -41 -48t-15 -44q0 -17 8 -28t18 -18.5t18 -13t8 -11.5q0 -5 -7.5 -14t-20.5 -17t-31 -14t-40 -6q-41 0 -60 20.5t-19 49.5q0 28 17 57t57 60q-35 6 -53.5 28t-24.5 57q-24 -35 -62.5 -61
t-100.5 -26q-30 0 -56.5 7t-46 23t-31 41.5t-11.5 61.5zM322 237q-26 0 -51 -4t-44.5 -12.5t-31.5 -22.5t-12 -34q0 -23 14.5 -32t31.5 -9q16 0 32 7t28.5 21.5t21.5 35.5t11 50z" />
    <glyph glyph-name="Cacute" unicode="&#x106;" horiz-adv-x="617" 
d="M351 146q41 0 69.5 12t48.5 27t35.5 27t31.5 12q20 0 20 -30q0 -16 -4 -38.5t-11 -50.5q-4 -17 -19.5 -37t-42.5 -37.5t-66.5 -29t-90.5 -11.5t-102 15t-91 51t-65 97t-25 153q0 33 4.5 76.5t17.5 89.5t36.5 90.5t60.5 79.5t90.5 56.5t127.5 21.5q59 0 102.5 -14
t72 -38.5t42 -57.5t13.5 -70q0 -64 -37.5 -93.5t-106.5 -29.5q-22 0 -27.5 3.5t-5.5 14.5q-1 34 -2 59t-7 41.5t-18.5 24t-34.5 7.5q-32 0 -54.5 -13.5t-38 -35t-25 -48.5t-15 -55t-7 -54t-1.5 -45q0 -92 30.5 -131t94.5 -39zM395 780q-11 0 -19.5 7.5t-14.5 17.5t-9 18.5
t-3 11.5q0 7 20 28t47 43.5t53.5 40t39.5 17.5q9 0 26 -10.5t33 -24t28 -28t12 -21.5q0 -8 -13.5 -18.5t-34 -21.5t-45.5 -22t-48.5 -19.5t-43 -13.5t-28.5 -5z" />
    <glyph glyph-name="cacute" unicode="&#x107;" horiz-adv-x="508" 
d="M293 123q29 0 50.5 8t37.5 18t27 18t20 8q23 0 23 -30q0 -7 -3 -19.5t-8 -26t-10.5 -25.5t-10.5 -18q-5 -5 -17.5 -16t-33.5 -22t-49 -19.5t-62 -8.5q-38 0 -78.5 11.5t-73.5 40t-54.5 77t-21.5 121.5q0 26 3.5 59.5t14.5 69t29.5 70t49.5 61.5t74.5 43.5t103.5 16.5
q49 0 84.5 -11.5t58.5 -31t34.5 -45.5t11.5 -56q0 -54 -34 -79.5t-96 -25.5q-15 0 -20.5 2.5t-5.5 11.5q0 24 -1 43t-5.5 32t-13.5 20t-26 7q-31 0 -49.5 -20t-28 -48.5t-12 -58.5t-2.5 -50q0 -71 22.5 -99t71.5 -28zM316 615q-7 0 -15.5 5t-16.5 12.5t-13.5 16t-5.5 14.5
q0 2 10 17t25 37t33 48t34 49q6 9 10 12t13 3q12 0 31 -6t37 -15t31 -19.5t13 -19.5q0 -7 -11.5 -21t-29.5 -31t-40 -35t-43 -33t-37.5 -24.5t-24.5 -9.5z" />
    <glyph glyph-name="Ccircumflex" unicode="&#x108;" horiz-adv-x="617" 
d="M351 146q41 0 69.5 12t48.5 27t35.5 27t31.5 12q20 0 20 -30q0 -16 -4 -38.5t-11 -50.5q-4 -17 -19.5 -37t-42.5 -37.5t-66.5 -29t-90.5 -11.5t-102 15t-91 51t-65 97t-25 153q0 33 4.5 76.5t17.5 89.5t36.5 90.5t60.5 79.5t90.5 56.5t127.5 21.5q59 0 102.5 -14
t72 -38.5t42 -57.5t13.5 -70q0 -64 -37.5 -93.5t-106.5 -29.5q-22 0 -27.5 3.5t-5.5 14.5q-1 34 -2 59t-7 41.5t-18.5 24t-34.5 7.5q-32 0 -54.5 -13.5t-38 -35t-25 -48.5t-15 -55t-7 -54t-1.5 -45q0 -92 30.5 -131t94.5 -39zM514 780q-9 0 -22 7t-27.5 18.5t-30.5 26
t-31 30.5q-21 -16 -43.5 -30.5t-42 -26t-35 -18.5t-24.5 -7q-7 0 -15.5 5.5t-16 13t-13 14.5t-5.5 10t12.5 15.5t32 30.5t43 39t44.5 41q8 7 30.5 11t45.5 4q13 0 30.5 -3t22.5 -12q18 -21 36 -42.5t32 -39.5t23 -30t9 -14t-6 -9t-14.5 -14.5t-18 -13.5t-16.5 -6z" />
    <glyph glyph-name="ccircumflex" unicode="&#x109;" horiz-adv-x="508" 
d="M293 123q29 0 50.5 8t37.5 18t27 18t20 8q23 0 23 -30q0 -7 -3 -19.5t-8 -26t-10.5 -25.5t-10.5 -18q-5 -5 -17.5 -16t-33.5 -22t-49 -19.5t-62 -8.5q-38 0 -78.5 11.5t-73.5 40t-54.5 77t-21.5 121.5q0 26 3.5 59.5t14.5 69t29.5 70t49.5 61.5t74.5 43.5t103.5 16.5
q49 0 84.5 -11.5t58.5 -31t34.5 -45.5t11.5 -56q0 -54 -34 -79.5t-96 -25.5q-15 0 -20.5 2.5t-5.5 11.5q0 24 -1 43t-5.5 32t-13.5 20t-26 7q-31 0 -49.5 -20t-28 -48.5t-12 -58.5t-2.5 -50q0 -71 22.5 -99t71.5 -28zM434 615q-8 0 -20 8.5t-25.5 23t-28 32.5t-27.5 38
q-20 -20 -40.5 -38t-39 -32.5t-33 -23t-22.5 -8.5q-7 0 -15.5 5.5t-16 13t-13 14.5t-5.5 10q0 4 12.5 20t32 38.5t43 48t44.5 49.5q6 7 26.5 11t39.5 4q13 0 30.5 -3t22.5 -12q16 -27 32 -53.5t29 -48.5t21 -37t8 -17t-6 -9t-14.5 -14.5t-18 -13.5t-16.5 -6z" />
    <glyph glyph-name="Cdotaccent" unicode="&#x10a;" horiz-adv-x="617" 
d="M351 146q41 0 69.5 12t48.5 27t35.5 27t31.5 12q20 0 20 -30q0 -16 -4 -38.5t-11 -50.5q-4 -17 -19.5 -37t-42.5 -37.5t-66.5 -29t-90.5 -11.5t-102 15t-91 51t-65 97t-25 153q0 33 4.5 76.5t17.5 89.5t36.5 90.5t60.5 79.5t90.5 56.5t127.5 21.5q59 0 102.5 -14
t72 -38.5t42 -57.5t13.5 -70q0 -64 -37.5 -93.5t-106.5 -29.5q-22 0 -27.5 3.5t-5.5 14.5q-1 34 -2 59t-7 41.5t-18.5 24t-34.5 7.5q-32 0 -54.5 -13.5t-38 -35t-25 -48.5t-15 -55t-7 -54t-1.5 -45q0 -92 30.5 -131t94.5 -39zM310 844q0 40 29 63t78 23q43 0 62.5 -17.5
t19.5 -46.5q0 -37 -27.5 -61.5t-80.5 -24.5q-81 0 -81 64z" />
    <glyph glyph-name="cdotaccent" unicode="&#x10b;" horiz-adv-x="508" 
d="M293 123q29 0 50.5 8t37.5 18t27 18t20 8q23 0 23 -30q0 -7 -3 -19.5t-8 -26t-10.5 -25.5t-10.5 -18q-5 -5 -17.5 -16t-33.5 -22t-49 -19.5t-62 -8.5q-38 0 -78.5 11.5t-73.5 40t-54.5 77t-21.5 121.5q0 26 3.5 59.5t14.5 69t29.5 70t49.5 61.5t74.5 43.5t103.5 16.5
q49 0 84.5 -11.5t58.5 -31t34.5 -45.5t11.5 -56q0 -54 -34 -79.5t-96 -25.5q-15 0 -20.5 2.5t-5.5 11.5q0 24 -1 43t-5.5 32t-13.5 20t-26 7q-31 0 -49.5 -20t-28 -48.5t-12 -58.5t-2.5 -50q0 -71 22.5 -99t71.5 -28zM231 669q0 40 29 63t78 23q43 0 62.5 -17.5t19.5 -46.5
q0 -37 -27.5 -61.5t-80.5 -24.5q-81 0 -81 64z" />
    <glyph glyph-name="Ccaron" unicode="&#x10c;" horiz-adv-x="617" 
d="M351 146q41 0 69.5 12t48.5 27t35.5 27t31.5 12q20 0 20 -30q0 -16 -4 -38.5t-11 -50.5q-4 -17 -19.5 -37t-42.5 -37.5t-66.5 -29t-90.5 -11.5t-102 15t-91 51t-65 97t-25 153q0 33 4.5 76.5t17.5 89.5t36.5 90.5t60.5 79.5t90.5 56.5t127.5 21.5q59 0 102.5 -14
t72 -38.5t42 -57.5t13.5 -70q0 -64 -37.5 -93.5t-106.5 -29.5q-22 0 -27.5 3.5t-5.5 14.5q-1 34 -2 59t-7 41.5t-18.5 24t-34.5 7.5q-32 0 -54.5 -13.5t-38 -35t-25 -48.5t-15 -55t-7 -54t-1.5 -45q0 -92 30.5 -131t94.5 -39zM293 964q9 0 22 -7t27.5 -18.5t30.5 -26
t31 -30.5q21 16 43.5 30.5t42 26t35 18.5t24.5 7q7 0 15.5 -5.5t16 -13t13 -14.5t5.5 -10t-13 -15.5t-32.5 -31t-42.5 -39.5t-44 -40q-8 -7 -31 -11t-45 -4q-13 0 -30.5 3t-22.5 12q-18 21 -36 42.5t-32 39.5t-23 30t-9 14t6 9t14.5 14.5t18 13.5t16.5 6z" />
    <glyph glyph-name="ccaron" unicode="&#x10d;" horiz-adv-x="508" 
d="M293 123q29 0 50.5 8t37.5 18t27 18t20 8q23 0 23 -30q0 -7 -3 -19.5t-8 -26t-10.5 -25.5t-10.5 -18q-5 -5 -17.5 -16t-33.5 -22t-49 -19.5t-62 -8.5q-38 0 -78.5 11.5t-73.5 40t-54.5 77t-21.5 121.5q0 26 3.5 59.5t14.5 69t29.5 70t49.5 61.5t74.5 43.5t103.5 16.5
q49 0 84.5 -11.5t58.5 -31t34.5 -45.5t11.5 -56q0 -54 -34 -79.5t-96 -25.5q-15 0 -20.5 2.5t-5.5 11.5q0 24 -1 43t-5.5 32t-13.5 20t-26 7q-31 0 -49.5 -20t-28 -48.5t-12 -58.5t-2.5 -50q0 -71 22.5 -99t71.5 -28zM220 819q8 0 20 -8t25.5 -20.5t27.5 -29t28 -34.5
q20 18 40.5 34.5t39 29t33 20.5t22.5 8q7 0 15.5 -5.5t16 -13t13 -14.5t5.5 -10t-12.5 -18t-32 -36t-43 -45.5t-44.5 -46.5q-6 -7 -26.5 -11t-39.5 -4q-14 0 -31 3t-22 12q-16 25 -32 49.5t-29 45t-21 34.5t-8 17t6 10t14.5 14.5t18 13t16.5 5.5z" />
    <glyph glyph-name="Dcaron" unicode="&#x10e;" horiz-adv-x="666" 
d="M92 695q1 8 6.5 11.5t10.5 3.5q68 0 127.5 4.5t93.5 4.5q85 0 142.5 -17t93 -53t50.5 -93t15 -137q0 -81 -16.5 -158.5t-57.5 -137.5t-110.5 -96.5t-175.5 -36.5q-49 0 -89.5 2t-69.5 12t-45 30t-16 55q0 13 1.5 39t4 62t6 79.5t7.5 91.5q8 99 12.5 158t6 92.5t2 50.5
t1.5 33zM278 148q56 0 89.5 24t51.5 61t24 81t6 83q0 42 -5.5 73.5t-19 52.5t-37.5 31.5t-60 10.5q-11 0 -28 -1t-41 -3q-2 -37 -5 -87.5t-6.5 -106t-7.5 -112t-8 -104.5q15 -2 27 -2.5t20 -0.5zM243 964q9 0 22 -7t27.5 -18.5t30.5 -26t31 -30.5q21 16 43.5 30.5t42 26
t35 18.5t24.5 7q7 0 15.5 -5.5t16 -13t13 -14.5t5.5 -10t-13 -15.5t-32.5 -31t-42.5 -39.5t-44 -40q-8 -7 -31 -11t-45 -4q-13 0 -30.5 3t-22.5 12q-18 21 -36 42.5t-32 39.5t-23 30t-9 14t6 9t14.5 14.5t18 13.5t16.5 6z" />
    <glyph glyph-name="dcaron" unicode="&#x10f;" horiz-adv-x="684" 
d="M661 621q-29 0 -40.5 15t-11.5 38q0 19 7.5 33.5t19.5 24t27 14t31 4.5q37 0 51 -22.5t14 -56.5q0 -29 -8.5 -56t-23.5 -48t-35 -33.5t-42 -12.5q-23 0 -30.5 12.5t-7.5 29.5q0 3 7.5 8t17 12.5t17 16.5t7.5 21zM224 -10q-39 0 -74.5 14t-62 44t-42 76t-15.5 111
q0 29 4 64.5t14 71.5t28 70t45.5 60.5t66 42.5t90.5 16q50 0 80.5 -17.5t38.5 -60.5q2 39 4 68t3.5 54t3.5 50t4 57q1 22 5 26q2 2 5 2.5t11 0.5h39q30 0 50 -7t32 -19t17 -27.5t5 -32.5l-2 -25t-5 -66.5t-7 -94.5t-8 -109.5t-8 -112t-8 -102t-6.5 -80t-3.5 -44.5
q-2 -12 -5 -16t-17 -4h-36q-21 0 -39.5 3.5t-32 12t-21 23t-7.5 37.5q-18 -38 -54.5 -62t-91.5 -24zM311 427q-51 0 -75.5 -44.5t-24.5 -119.5q0 -26 3.5 -51t12.5 -45t24.5 -32t39.5 -12q43 0 72 42t29 132q0 25 -3 48.5t-12 41.5t-25 29t-41 11z" />
    <glyph glyph-name="Dcroat" unicode="&#x110;" horiz-adv-x="671" 
d="M97 695q1 8 6.5 11.5t10.5 3.5q68 0 127.5 4.5t93.5 4.5q85 0 142.5 -17t93 -53t50.5 -93t15 -137q0 -81 -16.5 -158.5t-57.5 -137.5t-110.5 -96.5t-175.5 -36.5q-49 0 -89.5 2t-69.5 12t-45 30t-16 55q0 22 4 81.5t10 139.5h-61q-11 0 -11 11q0 18 1.5 35t9 30.5t24 22
t46.5 8.5q6 79 9.5 127t5 76.5t2 44t1.5 30.5zM248 310q-3 -42 -6.5 -83t-5.5 -76q15 -2 27 -2.5t20 -0.5q56 0 89.5 24t51.5 61t24 81t6 83q0 42 -5.5 73.5t-19 52.5t-37.5 31.5t-60 10.5q-11 0 -28 -1t-41 -3l-8 -144h88q6 0 11 -3.5t5 -10.5q0 -21 -2.5 -38t-10.5 -29
t-23.5 -19t-41.5 -7h-33z" />
    <glyph glyph-name="dcroat" unicode="&#x111;" horiz-adv-x="608" 
d="M224 -10q-39 0 -74.5 14t-62 44t-42 76t-15.5 111q0 29 4 64.5t14 71.5t28 70t45.5 60.5t66 42.5t90.5 16q50 0 80.5 -17.5t38.5 -60.5q1 25 2 45t2 38h-54q-11 0 -11 11q0 17 1 34t8 31t22 22.5t42 8.5l3 39q1 22 5 26q2 2 5 2.5t11 0.5h39q52 0 75 -20t28 -48h56
q6 0 11 -3.5t5 -10.5q0 -21 -2.5 -38t-10.5 -29t-23.5 -19t-41.5 -7q-3 -41 -7 -94t-8 -110t-8.5 -113t-8 -103t-6 -80.5t-3.5 -44.5q-2 -12 -5 -16t-17 -4h-36q-21 0 -39.5 3.5t-32 12t-21 23t-7.5 37.5q-18 -38 -54.5 -62t-91.5 -24zM311 427q-51 0 -75.5 -44.5
t-24.5 -119.5q0 -26 3.5 -51t12.5 -45t24.5 -32t39.5 -12q43 0 72 42t29 132q0 25 -3 48.5t-12 41.5t-25 29t-41 11z" />
    <glyph glyph-name="Emacron" unicode="&#x112;" horiz-adv-x="501" 
d="M155 0q-56 0 -80 22t-24 63q0 20 3 68.5t8 110.5t10 131t10 130t8 107t3 63q0 15 16 15h352q6 0 11 -3t5 -11l-4 -59q-2 -30 -16.5 -48.5t-59.5 -18.5h-138l-10 -141h142q6 0 11 -3t5 -11l-4 -59q-2 -30 -16.5 -48.5t-59.5 -18.5h-87l-11 -149h220q6 0 11 -3.5t5 -10.5
l-4 -59q-2 -30 -16.5 -48.5t-59.5 -18.5h-230zM138 800q-11 0 -11 11q0 17 1 34t8 31t22 22.5t42 8.5h272q6 0 11 -3.5t5 -10.5q0 -21 -2.5 -38t-10.5 -29t-23.5 -19t-41.5 -7h-272z" />
    <glyph glyph-name="emacron" unicode="&#x113;" horiz-adv-x="532" 
d="M272 -10q-44 0 -87.5 11t-78 38t-56.5 72t-22 113q0 25 4 60t15.5 72t32 73.5t53.5 65.5t80 47t112 18q52 0 88 -12t58 -32.5t32 -47.5t10 -58q0 -46 -18.5 -78t-48 -53.5t-65.5 -33.5t-71 -18.5t-64.5 -8t-45.5 -1.5q0 -19 5.5 -37.5t16.5 -32.5t29 -23t44 -9t40.5 8.5
t23.5 19t15.5 19t17.5 8.5q5 0 17.5 -2.5t25.5 -10.5t23 -22t10 -36q0 -29 -18 -50t-46.5 -34t-63.5 -19t-68 -6zM291 427q-22 0 -37.5 -12.5t-26 -31.5t-16 -42t-8.5 -44q62 1 100.5 21t38.5 57q0 20 -12.5 36t-38.5 16zM154 618q-11 0 -11 11q0 18 1.5 35t8 30.5t21.5 22
t42 8.5h272q6 0 11 -3.5t5 -10.5q0 -21 -2.5 -38t-10.5 -29t-23.5 -19t-41.5 -7h-272z" />
    <glyph glyph-name="Ebreve" unicode="&#x114;" horiz-adv-x="501" 
d="M155 0q-56 0 -80 22t-24 63q0 20 3 68.5t8 110.5t10 131t10 130t8 107t3 63q0 15 16 15h352q6 0 11 -3t5 -11l-4 -59q-2 -30 -16.5 -48.5t-59.5 -18.5h-138l-10 -141h142q6 0 11 -3t5 -11l-4 -59q-2 -30 -16.5 -48.5t-59.5 -18.5h-87l-11 -149h220q6 0 11 -3.5t5 -10.5
l-4 -59q-2 -30 -16.5 -48.5t-59.5 -18.5h-230zM294 780q-41 0 -69 9.5t-46 23.5t-26 30.5t-8 30.5q0 25 20 38t46 13q23 0 31.5 -9t14.5 -20.5t14.5 -20.5t31.5 -9t36 9t24 20.5t26 20.5t42 9q43 0 43 -31q0 -17 -11.5 -37t-34 -37t-56 -28.5t-78.5 -11.5z" />
    <glyph glyph-name="ebreve" unicode="&#x115;" horiz-adv-x="532" 
d="M272 -10q-44 0 -87.5 11t-78 38t-56.5 72t-22 113q0 25 4 60t15.5 72t32 73.5t53.5 65.5t80 47t112 18q52 0 88 -12t58 -32.5t32 -47.5t10 -58q0 -46 -18.5 -78t-48 -53.5t-65.5 -33.5t-71 -18.5t-64.5 -8t-45.5 -1.5q0 -19 5.5 -37.5t16.5 -32.5t29 -23t44 -9t40.5 8.5
t23.5 19t15.5 19t17.5 8.5q5 0 17.5 -2.5t25.5 -10.5t23 -22t10 -36q0 -29 -18 -50t-46.5 -34t-63.5 -19t-68 -6zM291 427q-22 0 -37.5 -12.5t-26 -31.5t-16 -42t-8.5 -44q62 1 100.5 21t38.5 57q0 20 -12.5 36t-38.5 16zM335 605q-41 0 -69 9.5t-46 23.5t-26 30.5t-8 30.5
q0 25 20 38t46 13q23 0 31.5 -9t14.5 -20.5t14.5 -20.5t31.5 -9t36 9t24 20.5t26 20.5t42 9q43 0 43 -31q0 -17 -11.5 -37t-34 -37t-56 -28.5t-78.5 -11.5z" />
    <glyph glyph-name="Edotaccent" unicode="&#x116;" horiz-adv-x="501" 
d="M155 0q-56 0 -80 22t-24 63q0 20 3 68.5t8 110.5t10 131t10 130t8 107t3 63q0 15 16 15h352q6 0 11 -3t5 -11l-4 -59q-2 -30 -16.5 -48.5t-59.5 -18.5h-138l-10 -141h142q6 0 11 -3t5 -11l-4 -59q-2 -30 -16.5 -48.5t-59.5 -18.5h-87l-11 -149h220q6 0 11 -3.5t5 -10.5
l-4 -59q-2 -30 -16.5 -48.5t-59.5 -18.5h-230zM213 844q0 40 29 63t78 23q43 0 62.5 -17.5t19.5 -46.5q0 -37 -27.5 -61.5t-80.5 -24.5q-81 0 -81 64z" />
    <glyph glyph-name="edotaccent" unicode="&#x117;" horiz-adv-x="532" 
d="M272 -10q-44 0 -87.5 11t-78 38t-56.5 72t-22 113q0 25 4 60t15.5 72t32 73.5t53.5 65.5t80 47t112 18q52 0 88 -12t58 -32.5t32 -47.5t10 -58q0 -46 -18.5 -78t-48 -53.5t-65.5 -33.5t-71 -18.5t-64.5 -8t-45.5 -1.5q0 -19 5.5 -37.5t16.5 -32.5t29 -23t44 -9t40.5 8.5
t23.5 19t15.5 19t17.5 8.5q5 0 17.5 -2.5t25.5 -10.5t23 -22t10 -36q0 -29 -18 -50t-46.5 -34t-63.5 -19t-68 -6zM291 427q-22 0 -37.5 -12.5t-26 -31.5t-16 -42t-8.5 -44q62 1 100.5 21t38.5 57q0 20 -12.5 36t-38.5 16zM252 669q0 40 29 63t78 23q43 0 62.5 -17.5
t19.5 -46.5q0 -37 -27.5 -61.5t-80.5 -24.5q-81 0 -81 64z" />
    <glyph glyph-name="Eogonek" unicode="&#x118;" horiz-adv-x="501" 
d="M291 0q-37 -40 -37 -73q0 -17 8 -28t18 -18.5t18 -13t8 -11.5q0 -5 -7.5 -14t-20.5 -17t-31 -14t-40 -6q-41 0 -60 20.5t-19 49.5t20 60.5t66 64.5h-59q-56 0 -80 22t-24 63q0 20 3 68.5t8 110.5t10 131t10 130t8 107t3 63q0 15 16 15h352q6 0 11 -3t5 -11l-4 -59
q-2 -30 -16.5 -48.5t-59.5 -18.5h-138l-10 -141h142q6 0 11 -3t5 -11l-4 -59q-2 -30 -16.5 -48.5t-59.5 -18.5h-87l-11 -149h220q6 0 11 -3.5t5 -10.5l-4 -59q-2 -30 -16.5 -48.5t-59.5 -18.5h-94z" />
    <glyph glyph-name="eogonek" unicode="&#x119;" horiz-adv-x="533" 
d="M468 99q0 -26 -14.5 -45.5t-38 -32.5t-53 -20t-60.5 -10q-14 -17 -21.5 -33t-7.5 -31q0 -17 8 -28t18 -18.5t18 -13t8 -11.5q0 -5 -7.5 -14t-20.5 -17t-31 -14t-40 -6q-41 0 -60 20.5t-19 49.5q0 28 17.5 57.5t58.5 60.5q-38 5 -73 19.5t-62 42t-43.5 69t-16.5 100.5
q0 25 4 60t15.5 72t32 73.5t53.5 65.5t80 47t112 18q52 0 88 -12t58 -32.5t32 -47.5t10 -58q0 -46 -18.5 -78t-48 -53.5t-65.5 -33.5t-71 -18.5t-64.5 -8t-45.5 -1.5q0 -19 5.5 -37.5t16.5 -32.5t29 -23t44 -9t40.5 8.5t23.5 19t15.5 19t17.5 8.5q5 0 17.5 -2.5t25.5 -10.5
t23 -22t10 -36zM291 427q-22 0 -37.5 -12.5t-26 -31.5t-16 -42t-8.5 -44q62 1 100.5 21t38.5 57q0 20 -12.5 36t-38.5 16z" />
    <glyph glyph-name="Ecaron" unicode="&#x11a;" horiz-adv-x="501" 
d="M155 0q-56 0 -80 22t-24 63q0 20 3 68.5t8 110.5t10 131t10 130t8 107t3 63q0 15 16 15h352q6 0 11 -3t5 -11l-4 -59q-2 -30 -16.5 -48.5t-59.5 -18.5h-138l-10 -141h142q6 0 11 -3t5 -11l-4 -59q-2 -30 -16.5 -48.5t-59.5 -18.5h-87l-11 -149h220q6 0 11 -3.5t5 -10.5
l-4 -59q-2 -30 -16.5 -48.5t-59.5 -18.5h-230zM196 964q9 0 22 -7t27.5 -18.5t30.5 -26t31 -30.5q21 16 43.5 30.5t42 26t35 18.5t24.5 7q7 0 15.5 -5.5t16 -13t13 -14.5t5.5 -10t-13 -15.5t-32.5 -31t-42.5 -39.5t-44 -40q-8 -7 -31 -11t-45 -4q-13 0 -30.5 3t-22.5 12
q-18 21 -36 42.5t-32 39.5t-23 30t-9 14t6 9t14.5 14.5t18 13.5t16.5 6z" />
    <glyph glyph-name="ecaron" unicode="&#x11b;" horiz-adv-x="532" 
d="M272 -10q-44 0 -87.5 11t-78 38t-56.5 72t-22 113q0 25 4 60t15.5 72t32 73.5t53.5 65.5t80 47t112 18q52 0 88 -12t58 -32.5t32 -47.5t10 -58q0 -46 -18.5 -78t-48 -53.5t-65.5 -33.5t-71 -18.5t-64.5 -8t-45.5 -1.5q0 -19 5.5 -37.5t16.5 -32.5t29 -23t44 -9t40.5 8.5
t23.5 19t15.5 19t17.5 8.5q5 0 17.5 -2.5t25.5 -10.5t23 -22t10 -36q0 -29 -18 -50t-46.5 -34t-63.5 -19t-68 -6zM291 427q-22 0 -37.5 -12.5t-26 -31.5t-16 -42t-8.5 -44q62 1 100.5 21t38.5 57q0 20 -12.5 36t-38.5 16zM237 819q8 0 20 -8t25.5 -20.5t27.5 -29t28 -34.5
q20 18 40.5 34.5t39 29t33 20.5t22.5 8q7 0 15.5 -5.5t16 -13t13 -14.5t5.5 -10t-12.5 -18t-32 -36t-43 -45.5t-44.5 -46.5q-6 -7 -26.5 -11t-39.5 -4q-14 0 -31 3t-22 12q-16 25 -32 49.5t-29 45t-21 34.5t-8 17t6 10t14.5 14.5t18 13t16.5 5.5z" />
    <glyph glyph-name="Gcircumflex" unicode="&#x11c;" horiz-adv-x="640" 
d="M495 0q-52 0 -74.5 21.5t-24.5 53.5q-11 -34 -46.5 -59.5t-102.5 -25.5q-39 0 -76 15.5t-66 51.5t-46.5 96t-17.5 149q0 34 4 78.5t16.5 91t36 91t62 79.5t94.5 56.5t134 21.5q51 0 91.5 -11t69 -31t44 -49t15.5 -65q0 -58 -38 -87.5t-107 -29.5q-22 0 -26.5 3.5
t-5.5 14.5q-2 18 -2.5 36t-5 33t-15.5 24t-35 9q-49 0 -78 -28t-44 -68t-19 -82.5t-4 -71.5q0 -48 6 -80.5t17.5 -53t27.5 -29t37 -8.5q38 0 64 16t31 58l6 56q3 29 8 47.5t24 18.5h55q25 0 40.5 -5.5t24 -18t11.5 -32.5t3 -49q0 -20 -1.5 -53t-4 -67t-5.5 -62.5t-5 -39.5
q-2 -9 -5 -12t-12 -3h-55zM523 780q-9 0 -22 7t-27.5 18.5t-30.5 26t-31 30.5q-21 -16 -43.5 -30.5t-42 -26t-35 -18.5t-24.5 -7q-7 0 -15.5 5.5t-16 13t-13 14.5t-5.5 10t12.5 15.5t32 30.5t43 39t44.5 41q8 7 30.5 11t45.5 4q13 0 30.5 -3t22.5 -12q18 -21 36 -42.5
t32 -39.5t23 -30t9 -14t-6 -9t-14.5 -14.5t-18 -13.5t-16.5 -6z" />
    <glyph glyph-name="gcircumflex" unicode="&#x11d;" horiz-adv-x="607" 
d="M368 118q-25 -45 -61 -66.5t-90 -21.5q-41 0 -75 13t-58 41t-37.5 70.5t-13.5 101.5q0 48 10 101.5t36.5 98.5t72.5 74.5t118 29.5q30 0 51.5 -6.5t37 -17.5t25 -26t14.5 -32q0 -1 0.5 7.5t1.5 19.5t1.5 21.5t0.5 13.5q1 10 13 10h46q52 0 75.5 -21.5t23.5 -81.5
q0 -8 -1 -36.5t-3.5 -68.5t-6.5 -88.5t-9 -97.5t-11 -94t-13 -79t-24 -66t-48 -57t-79.5 -40t-118.5 -15q-53 0 -92.5 10t-65.5 26.5t-39.5 37.5t-13.5 42q0 19 8 33t21 23t28.5 13.5t29.5 4.5q17 0 25 -10l18 -22.5t28 -22.5t56 -10q66 0 92.5 48.5t26.5 139.5zM284 163
q36 0 56.5 17t31.5 41t14 50t3 45q0 60 -18.5 85.5t-55.5 25.5t-58 -20t-31.5 -47.5t-13.5 -55t-3 -42.5q0 -50 17 -74.5t58 -24.5zM463 615q-8 0 -20 8.5t-25.5 23t-28 32.5t-27.5 38q-20 -20 -40.5 -38t-39 -32.5t-33 -23t-22.5 -8.5q-7 0 -15.5 5.5t-16 13t-13 14.5
t-5.5 10q0 4 12.5 20t32 38.5t43 48t44.5 49.5q6 7 26.5 11t39.5 4q13 0 30.5 -3t22.5 -12q16 -27 32 -53.5t29 -48.5t21 -37t8 -17t-6 -9t-14.5 -14.5t-18 -13.5t-16.5 -6z" />
    <glyph glyph-name="Gbreve" unicode="&#x11e;" horiz-adv-x="640" 
d="M495 0q-52 0 -74.5 21.5t-24.5 53.5q-11 -34 -46.5 -59.5t-102.5 -25.5q-39 0 -76 15.5t-66 51.5t-46.5 96t-17.5 149q0 34 4 78.5t16.5 91t36 91t62 79.5t94.5 56.5t134 21.5q51 0 91.5 -11t69 -31t44 -49t15.5 -65q0 -58 -38 -87.5t-107 -29.5q-22 0 -26.5 3.5
t-5.5 14.5q-2 18 -2.5 36t-5 33t-15.5 24t-35 9q-49 0 -78 -28t-44 -68t-19 -82.5t-4 -71.5q0 -48 6 -80.5t17.5 -53t27.5 -29t37 -8.5q38 0 64 16t31 58l6 56q3 29 8 47.5t24 18.5h55q25 0 40.5 -5.5t24 -18t11.5 -32.5t3 -49q0 -20 -1.5 -53t-4 -67t-5.5 -62.5t-5 -39.5
q-2 -9 -5 -12t-12 -3h-55zM400 780q-41 0 -69 9.5t-46 23.5t-26 30.5t-8 30.5q0 25 20 38t46 13q23 0 31.5 -9t14.5 -20.5t14.5 -20.5t31.5 -9t36 9t24 20.5t26 20.5t42 9q43 0 43 -31q0 -17 -11.5 -37t-34 -37t-56 -28.5t-78.5 -11.5z" />
    <glyph glyph-name="gbreve" unicode="&#x11f;" horiz-adv-x="607" 
d="M368 118q-25 -45 -61 -66.5t-90 -21.5q-41 0 -75 13t-58 41t-37.5 70.5t-13.5 101.5q0 48 10 101.5t36.5 98.5t72.5 74.5t118 29.5q30 0 51.5 -6.5t37 -17.5t25 -26t14.5 -32q0 -1 0.5 7.5t1.5 19.5t1.5 21.5t0.5 13.5q1 10 13 10h46q52 0 75.5 -21.5t23.5 -81.5
q0 -8 -1 -36.5t-3.5 -68.5t-6.5 -88.5t-9 -97.5t-11 -94t-13 -79t-24 -66t-48 -57t-79.5 -40t-118.5 -15q-53 0 -92.5 10t-65.5 26.5t-39.5 37.5t-13.5 42q0 19 8 33t21 23t28.5 13.5t29.5 4.5q17 0 25 -10l18 -22.5t28 -22.5t56 -10q66 0 92.5 48.5t26.5 139.5zM284 163
q36 0 56.5 17t31.5 41t14 50t3 45q0 60 -18.5 85.5t-55.5 25.5t-58 -20t-31.5 -47.5t-13.5 -55t-3 -42.5q0 -50 17 -74.5t58 -24.5zM329 605q-41 0 -69 9.5t-46 23.5t-26 30.5t-8 30.5q0 25 20 38t46 13q23 0 31.5 -9t14.5 -20.5t14.5 -20.5t31.5 -9t36 9t24 20.5t26 20.5
t42 9q43 0 43 -31q0 -17 -11.5 -37t-34 -37t-56 -28.5t-78.5 -11.5z" />
    <glyph glyph-name="Gdotaccent" unicode="&#x120;" horiz-adv-x="640" 
d="M495 0q-52 0 -74.5 21.5t-24.5 53.5q-11 -34 -46.5 -59.5t-102.5 -25.5q-39 0 -76 15.5t-66 51.5t-46.5 96t-17.5 149q0 34 4 78.5t16.5 91t36 91t62 79.5t94.5 56.5t134 21.5q51 0 91.5 -11t69 -31t44 -49t15.5 -65q0 -58 -38 -87.5t-107 -29.5q-22 0 -26.5 3.5
t-5.5 14.5q-2 18 -2.5 36t-5 33t-15.5 24t-35 9q-49 0 -78 -28t-44 -68t-19 -82.5t-4 -71.5q0 -48 6 -80.5t17.5 -53t27.5 -29t37 -8.5q38 0 64 16t31 58l6 56q3 29 8 47.5t24 18.5h55q25 0 40.5 -5.5t24 -18t11.5 -32.5t3 -49q0 -20 -1.5 -53t-4 -67t-5.5 -62.5t-5 -39.5
q-2 -9 -5 -12t-12 -3h-55zM319 844q0 40 29 63t78 23q43 0 62.5 -17.5t19.5 -46.5q0 -37 -27.5 -61.5t-80.5 -24.5q-81 0 -81 64z" />
    <glyph glyph-name="gdotaccent" unicode="&#x121;" horiz-adv-x="607" 
d="M368 118q-25 -45 -61 -66.5t-90 -21.5q-41 0 -75 13t-58 41t-37.5 70.5t-13.5 101.5q0 48 10 101.5t36.5 98.5t72.5 74.5t118 29.5q30 0 51.5 -6.5t37 -17.5t25 -26t14.5 -32q0 -1 0.5 7.5t1.5 19.5t1.5 21.5t0.5 13.5q1 10 13 10h46q52 0 75.5 -21.5t23.5 -81.5
q0 -8 -1 -36.5t-3.5 -68.5t-6.5 -88.5t-9 -97.5t-11 -94t-13 -79t-24 -66t-48 -57t-79.5 -40t-118.5 -15q-53 0 -92.5 10t-65.5 26.5t-39.5 37.5t-13.5 42q0 19 8 33t21 23t28.5 13.5t29.5 4.5q17 0 25 -10l18 -22.5t28 -22.5t56 -10q66 0 92.5 48.5t26.5 139.5zM284 163
q36 0 56.5 17t31.5 41t14 50t3 45q0 60 -18.5 85.5t-55.5 25.5t-58 -20t-31.5 -47.5t-13.5 -55t-3 -42.5q0 -50 17 -74.5t58 -24.5zM264 669q0 40 29 63t78 23q43 0 62.5 -17.5t19.5 -46.5q0 -37 -27.5 -61.5t-80.5 -24.5q-81 0 -81 64z" />
    <glyph glyph-name="Gcommaaccent" unicode="&#x122;" horiz-adv-x="640" 
d="M495 0q-52 0 -74.5 21.5t-24.5 53.5q-11 -34 -46.5 -59.5t-102.5 -25.5q-39 0 -76 15.5t-66 51.5t-46.5 96t-17.5 149q0 34 4 78.5t16.5 91t36 91t62 79.5t94.5 56.5t134 21.5q51 0 91.5 -11t69 -31t44 -49t15.5 -65q0 -58 -38 -87.5t-107 -29.5q-22 0 -26.5 3.5
t-5.5 14.5q-2 18 -2.5 36t-5 33t-15.5 24t-35 9q-49 0 -78 -28t-44 -68t-19 -82.5t-4 -71.5q0 -48 6 -80.5t17.5 -53t27.5 -29t37 -8.5q38 0 64 16t31 58l6 56q3 29 8 47.5t24 18.5h55q25 0 40.5 -5.5t24 -18t11.5 -32.5t3 -49q0 -20 -1.5 -53t-4 -67t-5.5 -62.5t-5 -39.5
q-2 -9 -5 -12t-12 -3h-55zM258 -131q-23 0 -31.5 11t-8.5 28q0 26 15.5 39t43.5 13q32 0 42.5 -16.5t10.5 -39.5q0 -20 -5.5 -39t-15 -33.5t-23.5 -23t-30 -8.5q-20 0 -25 10t-5 22q0 1 5 5t11 9t11 11t5 12z" />
    <glyph glyph-name="gcommaaccent" unicode="&#x123;" horiz-adv-x="607" 
d="M340 696q23 0 31.5 -11t8.5 -28q0 -26 -15.5 -39t-43.5 -13q-32 0 -42.5 16.5t-10.5 39.5q0 20 5.5 39t15 33.5t23 23t30.5 8.5q20 0 25 -10t5 -22q0 -2 -5 -5.5t-11 -8.5t-11 -11t-5 -12zM368 118q-25 -45 -61 -66.5t-90 -21.5q-41 0 -75 13t-58 41t-37.5 70.5
t-13.5 101.5q0 48 10 101.5t36.5 98.5t72.5 74.5t118 29.5q30 0 51.5 -6.5t37 -17.5t25 -26t14.5 -32q0 -1 0.5 7.5t1.5 19.5t1.5 21.5t0.5 13.5q1 10 13 10h46q52 0 75.5 -21.5t23.5 -81.5q0 -8 -1 -36.5t-3.5 -68.5t-6.5 -88.5t-9 -97.5t-11 -94t-13 -79t-24 -66t-48 -57
t-79.5 -40t-118.5 -15q-53 0 -92.5 10t-65.5 26.5t-39.5 37.5t-13.5 42q0 19 8 33t21 23t28.5 13.5t29.5 4.5q17 0 25 -10l18 -22.5t28 -22.5t56 -10q66 0 92.5 48.5t26.5 139.5zM284 163q36 0 56.5 17t31.5 41t14 50t3 45q0 60 -18.5 85.5t-55.5 25.5t-58 -20t-31.5 -47.5
t-13.5 -55t-3 -42.5q0 -50 17 -74.5t58 -24.5z" />
    <glyph glyph-name="Hcircumflex" unicode="&#x124;" horiz-adv-x="674" 
d="M515 0q-56 0 -80 22t-24 63q0 22 4 78l9 126h-178l-20 -274q-1 -8 -4 -11.5t-12 -3.5h-55q-56 0 -80 22t-24 63q0 20 3 68.5t8 110.5t10 131t10 130t8 107t3 63q0 15 16 15h55q61 0 82 -26t21 -77q0 -8 -3 -56.5t-8 -116.5h179q3 44 6.5 86t6 77t4 60.5t1.5 37.5
q0 15 16 15h55q61 0 82 -26t21 -77q0 -5 -1.5 -32t-4.5 -68t-6.5 -91.5t-7 -103.5t-7 -103.5t-6.5 -91.5t-5 -68.5t-3 -33.5q-1 -8 -4 -11.5t-12 -3.5h-55zM489 780q-9 0 -22 7t-27.5 18.5t-30.5 26t-31 30.5q-21 -16 -43.5 -30.5t-42 -26t-35 -18.5t-24.5 -7
q-7 0 -15.5 5.5t-16 13t-13 14.5t-5.5 10t12.5 15.5t32 30.5t43 39t44.5 41q8 7 30.5 11t45.5 4q13 0 30.5 -3t22.5 -12q18 -21 36 -42.5t32 -39.5t23 -30t9 -14t-6 -9t-14.5 -14.5t-18 -13.5t-16.5 -6z" />
    <glyph glyph-name="hcircumflex" unicode="&#x125;" horiz-adv-x="608" 
d="M373 124q3 33 6.5 69t6 69t4.5 59t2 38q0 26 -12.5 46.5t-48.5 20.5q-48 0 -77.5 -45t-34.5 -120q-2 -21 -5 -58.5t-6 -76t-5.5 -69t-2.5 -37.5q0 -12 -4.5 -16t-17.5 -4h-36q-31 0 -50.5 6.5t-31 18.5t-16 29.5t-4.5 40.5q0 22 3.5 61.5t9.5 109t14 177.5t17 268
q1 22 5 26q3 3 16 3h39q30 0 50 -7t32 -19t17 -27.5t5 -32.5q0 -18 -3.5 -67t-8.5 -115q30 50 66.5 69t92.5 19q42 0 73 -9t51.5 -30.5t30.5 -56t10 -85.5q0 -16 -3 -55t-7.5 -89t-9 -104.5t-7.5 -99.5q-1 -11 -2 -17t-3.5 -9t-7.5 -4t-14 -1h-32q-32 0 -52 6t-31 17
t-15.5 27.5t-4.5 37.5q0 10 0.5 19t1.5 17zM352 780q-9 0 -22 7t-27.5 18.5t-30.5 26t-31 30.5q-21 -16 -43.5 -30.5t-42 -26t-35 -18.5t-24.5 -7q-7 0 -15.5 5.5t-16 13t-13 14.5t-5.5 10t12.5 15.5t32 30.5t43 39t44.5 41q8 7 30.5 11t45.5 4q13 0 30.5 -3t22.5 -12
q18 -21 36 -42.5t32 -39.5t23 -30t9 -14t-6 -9t-14.5 -14.5t-18 -13.5t-16.5 -6z" />
    <glyph glyph-name="Hbar" unicode="&#x126;" horiz-adv-x="685" 
d="M520 0q-56 0 -80 22t-24 63q0 22 4 78l9 126h-178l-20 -274q-1 -8 -4 -11.5t-12 -3.5h-55q-56 0 -80 22t-24 63q0 20 3 67t7.5 108t9.5 128.5t10 128.5h-44q-11 0 -11 11q0 16 1 32.5t7 30t18.5 22t36.5 10.5q2 25 3 44t1 28q0 15 16 15h55q56 0 78 -21.5t24 -64.5h183
q2 25 3 43t1 28q0 15 16 15h55q56 0 78 -21.5t24 -64.5h45q6 0 11 -3.5t5 -10.5q0 -20 -2 -36t-9 -28t-19.5 -19.5t-34.5 -9.5l-36 -502q-1 -8 -4 -11.5t-12 -3.5h-55zM446 517h-179l-6 -83h179z" />
    <glyph glyph-name="hbar" unicode="&#x127;" horiz-adv-x="608" 
d="M373 124q3 33 6.5 69t6 69t4.5 59t2 38q0 26 -12.5 46.5t-48.5 20.5q-48 0 -77.5 -45t-34.5 -120q-2 -21 -5 -58.5t-6 -76t-5.5 -69t-2.5 -37.5q0 -12 -4.5 -16t-17.5 -4h-36q-31 0 -50.5 6.5t-31 18.5t-16 29.5t-4.5 40.5q0 19 2.5 51t7.5 86t11 135t14 198h-54
q-11 0 -11 11q0 17 1 34t8 30.5t21.5 22.5t41.5 9q0 10 0.5 19t1.5 20q1 22 5 26q3 3 16 3h39q52 0 75 -20t28 -48h58q6 0 11 -3.5t5 -10.5q0 -21 -2.5 -38t-10.5 -29t-23.5 -19t-41.5 -7q-2 -20 -3.5 -43.5t-3.5 -49.5q30 50 66.5 69t92.5 19q42 0 73 -9t51.5 -30.5
t30.5 -56t10 -85.5q0 -16 -3 -55t-7.5 -89t-9 -104.5t-7.5 -99.5q-1 -11 -2 -17t-3.5 -9t-7.5 -4t-14 -1h-32q-32 0 -52 6t-31 17t-15.5 27.5t-4.5 37.5q0 10 0.5 19t1.5 17z" />
    <glyph glyph-name="Itilde" unicode="&#x128;" horiz-adv-x="314" 
d="M155 0q-56 0 -80 22t-24 63q0 20 3 68.5t8 110.5t10 131t10 130t8 107t3 63q0 15 16 15h55q61 0 82 -26t21 -77q0 -5 -1.5 -32t-4.5 -68t-6.5 -91.5t-7 -103.5t-7 -103.5t-6.5 -91.5t-5 -68.5t-3 -33.5q-1 -8 -4 -11.5t-12 -3.5h-55zM268 895q21 0 37 9.5t28.5 20.5
t22.5 20.5t19 9.5q5 0 12.5 -6.5t7.5 -32.5q0 -23 -8.5 -47.5t-26 -44t-44.5 -32t-64 -12.5q-35 0 -58 10t-41 22.5t-33.5 22.5t-36.5 10t-35 -10t-25 -22.5t-19.5 -22.5t-18.5 -10q-5 0 -12.5 7t-7.5 33q0 22 7 45.5t23 43.5t41.5 33t63.5 13q33 0 55.5 -9.5t40.5 -20.5
t34.5 -20.5t37.5 -9.5z" />
    <glyph glyph-name="itilde" unicode="&#x129;" horiz-adv-x="281" 
d="M144 0q-31 0 -50.5 6.5t-31 18.5t-16 29.5t-4.5 40.5q0 15 1.5 42.5t5.5 76t9.5 123t13.5 184.5q2 22 4.5 25.5t16.5 3.5h39q31 0 50.5 -6t31 -18t16 -29t4.5 -38q0 -15 -2 -45t-5.5 -81.5t-9.5 -128t-15 -184.5q-1 -12 -5 -16t-17 -4h-36zM262 720q21 0 37 9.5
t28.5 20.5t22.5 20.5t19 9.5q5 0 12.5 -6.5t7.5 -32.5q0 -23 -8.5 -47.5t-26 -44t-44.5 -32t-64 -12.5q-35 0 -58 10t-41 22.5t-33.5 22.5t-36.5 10t-35 -10t-25 -22.5t-19.5 -22.5t-18.5 -10q-5 0 -12.5 7t-7.5 33q0 22 7 45.5t23 43.5t41.5 33t63.5 13q33 0 55.5 -9.5
t40.5 -20.5t34.5 -20.5t37.5 -9.5z" />
    <glyph glyph-name="Imacron" unicode="&#x12a;" horiz-adv-x="314" 
d="M155 0q-56 0 -80 22t-24 63q0 20 3 68.5t8 110.5t10 131t10 130t8 107t3 63q0 15 16 15h55q61 0 82 -26t21 -77q0 -5 -1.5 -32t-4.5 -68t-6.5 -91.5t-7 -103.5t-7 -103.5t-6.5 -91.5t-5 -68.5t-3 -33.5q-1 -8 -4 -11.5t-12 -3.5h-55zM25 800q-11 0 -11 11q0 17 1 34t8 31
t22 22.5t42 8.5h272q6 0 11 -3.5t5 -10.5q0 -21 -2.5 -38t-10.5 -29t-23.5 -19t-41.5 -7h-272z" />
    <glyph glyph-name="imacron" unicode="&#x12b;" horiz-adv-x="281" 
d="M144 0q-31 0 -50.5 6.5t-31 18.5t-16 29.5t-4.5 40.5q0 15 1.5 42.5t5.5 76t9.5 123t13.5 184.5q2 22 4.5 25.5t16.5 3.5h39q31 0 50.5 -6t31 -18t16 -29t4.5 -38q0 -15 -2 -45t-5.5 -81.5t-9.5 -128t-15 -184.5q-1 -12 -5 -16t-17 -4h-36zM1 618q-11 0 -11 11
q0 18 1.5 35t8 30.5t21.5 22t42 8.5h272q6 0 11 -3.5t5 -10.5q0 -21 -2.5 -38t-10.5 -29t-23.5 -19t-41.5 -7h-272z" />
    <glyph glyph-name="Ibreve" unicode="&#x12c;" horiz-adv-x="314" 
d="M155 0q-56 0 -80 22t-24 63q0 20 3 68.5t8 110.5t10 131t10 130t8 107t3 63q0 15 16 15h55q61 0 82 -26t21 -77q0 -5 -1.5 -32t-4.5 -68t-6.5 -91.5t-7 -103.5t-7 -103.5t-6.5 -91.5t-5 -68.5t-3 -33.5q-1 -8 -4 -11.5t-12 -3.5h-55zM181 780q-41 0 -69 9.5t-46 23.5
t-26 30.5t-8 30.5q0 25 20 38t46 13q23 0 31.5 -9t14.5 -20.5t14.5 -20.5t31.5 -9t36 9t24 20.5t26 20.5t42 9q43 0 43 -31q0 -17 -11.5 -37t-34 -37t-56 -28.5t-78.5 -11.5z" />
    <glyph glyph-name="ibreve" unicode="&#x12d;" horiz-adv-x="281" 
d="M144 0q-31 0 -50.5 6.5t-31 18.5t-16 29.5t-4.5 40.5q0 15 1.5 42.5t5.5 76t9.5 123t13.5 184.5q2 22 4.5 25.5t16.5 3.5h39q31 0 50.5 -6t31 -18t16 -29t4.5 -38q0 -15 -2 -45t-5.5 -81.5t-9.5 -128t-15 -184.5q-1 -12 -5 -16t-17 -4h-36zM147 605q-41 0 -69 9.5
t-46 23.5t-26 30.5t-8 30.5q0 25 20 38t46 13q23 0 31.5 -9t14.5 -20.5t14.5 -20.5t31.5 -9t36 9t24 20.5t26 20.5t42 9q43 0 43 -31q0 -17 -11.5 -37t-34 -37t-56 -28.5t-78.5 -11.5z" />
    <glyph glyph-name="Iogonek" unicode="&#x12e;" horiz-adv-x="314" 
d="M165 0q-37 -40 -37 -73q0 -17 8 -28t18 -18.5t18 -13t8 -11.5q0 -5 -7.5 -14t-20.5 -17t-31 -14t-40 -6q-41 0 -60 20.5t-19 49.5q0 32 22 65t75 68q-26 9 -37 28.5t-11 48.5q0 20 3 68.5t8 110.5t10 131t10 130t8 107t3 63q0 15 16 15h55q61 0 82 -26t21 -77
q0 -5 -1.5 -32t-4.5 -68t-6.5 -91.5t-7 -103.5t-7 -103.5t-6.5 -91.5t-5 -68.5t-3 -33.5q-1 -8 -4 -11.5t-12 -3.5h-45z" />
    <glyph glyph-name="iogonek" unicode="&#x12f;" horiz-adv-x="281" 
d="M142 0q-37 -40 -37 -73q0 -17 8 -28t18 -18.5t18 -13t8 -11.5q0 -5 -7.5 -14t-20.5 -17t-31 -14t-40 -6q-41 0 -60 20.5t-19 49.5q0 32 23.5 66t78.5 70q-23 11 -31 32t-8 52q0 15 1.5 42.5t5.5 76t9.5 123t13.5 184.5q2 22 4.5 25.5t16.5 3.5h39q31 0 50.5 -6t31 -18
t16 -29t4.5 -38q0 -15 -2 -45t-5.5 -81.5t-9.5 -128t-15 -184.5q-1 -12 -5 -16t-17 -4h-38zM73 668q0 40 29 63t78 23q43 0 62.5 -17.5t19.5 -46.5q0 -37 -27.5 -61.5t-80.5 -24.5q-81 0 -81 64z" />
    <glyph glyph-name="Idotaccent" unicode="&#x130;" horiz-adv-x="314" 
d="M155 0q-56 0 -80 22t-24 63q0 20 3 68.5t8 110.5t10 131t10 130t8 107t3 63q0 15 16 15h55q61 0 82 -26t21 -77q0 -5 -1.5 -32t-4.5 -68t-6.5 -91.5t-7 -103.5t-7 -103.5t-6.5 -91.5t-5 -68.5t-3 -33.5q-1 -8 -4 -11.5t-12 -3.5h-55zM100 844q0 40 29 63t78 23
q43 0 62.5 -17.5t19.5 -46.5q0 -37 -27.5 -61.5t-80.5 -24.5q-81 0 -81 64z" />
    <glyph glyph-name="dotlessi" unicode="&#x131;" horiz-adv-x="280" 
d="M143 0q-31 0 -50.5 6.5t-31 18.5t-16 29.5t-4.5 40.5q0 15 1.5 42.5t5.5 76t9.5 123t13.5 184.5q2 22 4.5 25.5t16.5 3.5h39q31 0 50.5 -6t31 -18t16 -29t4.5 -38q0 -15 -2 -45t-5.5 -81.5t-9.5 -128t-15 -184.5q-1 -12 -5 -16t-17 -4h-36z" />
    <glyph glyph-name="IJ" unicode="&#x132;" horiz-adv-x="766" 
d="M155 0q-56 0 -80 22t-24 63q0 20 3 68.5t8 110.5t10 131t10 130t8 107t3 63q0 15 16 15h55q61 0 82 -26t21 -77q0 -5 -1.5 -32t-4.5 -68t-6.5 -91.5t-7 -103.5t-7 -103.5t-6.5 -91.5t-5 -68.5t-3 -33.5q-1 -8 -4 -11.5t-12 -3.5h-55zM452 146q22 0 35.5 16t22.5 43
t14.5 62.5t10.5 75.5q2 18 4 42.5t4.5 63t6 96t8.5 141.5q1 14 3 19t13 5h55q34 0 53.5 -6t29.5 -15t12 -19.5t2 -20.5t-1 -46t-3 -83.5t-5.5 -99.5t-7.5 -94q-6 -57 -18.5 -116.5t-40.5 -108.5t-74.5 -80t-120.5 -31q-41 0 -73.5 10t-55 27.5t-34.5 41t-12 49.5
q0 24 9.5 43.5t25.5 32.5t36.5 20t42.5 7q6 0 8.5 -11.5t7 -26t13.5 -26t29 -11.5z" />
    <glyph glyph-name="ij" unicode="&#x133;" horiz-adv-x="567" 
d="M144 0q-31 0 -50.5 6.5t-31 18.5t-16 29.5t-4.5 40.5q0 15 1.5 42.5t5.5 76t9.5 123t13.5 184.5q2 22 4.5 25.5t16.5 3.5h39q31 0 50.5 -6t31 -18t16 -29t4.5 -38q0 -15 -2 -45t-5.5 -81.5t-9.5 -128t-15 -184.5q-1 -12 -5 -16t-17 -4h-36zM73 668q0 40 29 63t78 23
q43 0 62.5 -17.5t19.5 -46.5q0 -37 -27.5 -61.5t-80.5 -24.5q-81 0 -81 64zM359 535q0 9 4 13q2 2 18 2h36q25 0 44.5 -6.5t33 -16t20.5 -21.5t7 -24q0 -6 -1.5 -32.5t-4.5 -66t-6.5 -87t-7 -96t-7 -93.5t-5.5 -78q-5 -71 -22.5 -114.5t-42.5 -68t-56 -33t-64 -8.5
q-29 0 -58.5 5.5t-53.5 16.5t-39 28t-15 40q0 24 14.5 38t34 21t38 9t27.5 2q3 0 5.5 -5.5t6 -12t9.5 -12t17 -5.5q12 0 18.5 9.5t10.5 31.5t7 58.5t6 91.5zM349 668q0 40 29 63t78 23q43 0 62.5 -17.5t19.5 -46.5q0 -37 -27.5 -61.5t-80.5 -24.5q-81 0 -81 64z" />
    <glyph glyph-name="Jcircumflex" unicode="&#x134;" horiz-adv-x="479" 
d="M165 146q22 0 35.5 16t22.5 43t14.5 62.5t10.5 75.5q2 18 4 42.5t4.5 63t6 96t8.5 141.5q1 14 3 19t13 5h55q34 0 53.5 -6t29.5 -15t12 -19.5t2 -20.5t-1 -46t-3 -83.5t-5.5 -99.5t-7.5 -94q-6 -57 -18.5 -116.5t-40.5 -108.5t-74.5 -80t-120.5 -31q-41 0 -73.5 10
t-55 27.5t-34.5 41t-12 49.5q0 24 9.5 43.5t25.5 32.5t36.5 20t42.5 7q6 0 8.5 -11.5t7 -26t13.5 -26t29 -11.5zM476 780q-9 0 -22 7t-27.5 18.5t-30.5 26t-31 30.5q-21 -16 -43.5 -30.5t-42 -26t-35 -18.5t-24.5 -7q-7 0 -15.5 5.5t-16 13t-13 14.5t-5.5 10t12.5 15.5
t32 30.5t43 39t44.5 41q8 7 30.5 11t45.5 4q13 0 30.5 -3t22.5 -12q18 -21 36 -42.5t32 -39.5t23 -30t9 -14t-6 -9t-14.5 -14.5t-18 -13.5t-16.5 -6z" />
    <glyph glyph-name="jcircumflex" unicode="&#x135;" horiz-adv-x="279" 
d="M71 535q0 9 4 13q2 2 18 2h36q25 0 44.5 -6.5t33 -16t20.5 -21.5t7 -24q0 -6 -1.5 -32.5t-4.5 -66t-6.5 -87t-7 -96t-7 -93.5t-5.5 -78q-5 -71 -22.5 -114.5t-42.5 -68t-56 -33t-64 -8.5q-29 0 -58.5 5.5t-53.5 16.5t-39 28t-15 40q0 24 14.5 38t34 21t38 9t27.5 2
q3 0 5.5 -5.5t6 -12t9.5 -12t17 -5.5q12 0 18.5 9.5t10.5 31.5t7 58.5t6 91.5zM256 615q-8 0 -20 8.5t-25.5 23t-28 32.5t-27.5 38q-20 -20 -40.5 -38t-39 -32.5t-33 -23t-22.5 -8.5q-7 0 -15.5 5.5t-16 13t-13 14.5t-5.5 10q0 4 12.5 20t32 38.5t43 48t44.5 49.5
q6 7 26.5 11t39.5 4q13 0 30.5 -3t22.5 -12q16 -27 32 -53.5t29 -48.5t21 -37t8 -17t-6 -9t-14.5 -14.5t-18 -13.5t-16.5 -6z" />
    <glyph glyph-name="Kcommaaccent" unicode="&#x136;" horiz-adv-x="623" 
d="M598 65q0 -8 -9.5 -20.5t-26 -24.5t-38 -21t-45.5 -9q-37 0 -65 23.5t-50.5 64.5t-41.5 97.5t-39 122.5l-38 -25l-19 -258q-1 -8 -4 -11.5t-12 -3.5h-55q-57 0 -80.5 22.5t-23.5 66.5q0 14 1.5 42.5t4.5 67t6.5 84.5t7.5 94q7 96 11.5 152t6.5 88.5t3 48t1 29.5
q0 15 16 15h55q32 0 51.5 -6.5t30.5 -18.5t15 -29.5t4 -40.5t-2.5 -74.5t-7.5 -115.5q34 42 81.5 104t115.5 153q3 4 8.5 10.5t12 12.5t14 10.5t14.5 4.5q13 0 30 -13.5t32 -33t25.5 -40t10.5 -34.5q0 -29 -52 -86.5t-149 -132.5q17 -29 39 -62.5t44 -68t43 -67t37.5 -58
t26.5 -41.5t10 -18zM282 -131q-23 0 -31.5 11t-8.5 28q0 26 15.5 39t43.5 13q32 0 42.5 -16.5t10.5 -39.5q0 -20 -5.5 -39t-15 -33.5t-23.5 -23t-30 -8.5q-20 0 -25 10t-5 22q0 1 5 5t11 9t11 11t5 12z" />
    <glyph glyph-name="kcommaaccent" unicode="&#x137;" horiz-adv-x="539" 
d="M516 81q0 -5 -5 -20t-16 -31t-27.5 -28t-39.5 -12q-27 0 -53.5 18t-52.5 49t-52.5 73.5t-53.5 92.5q-4 -53 -8 -104t-8 -99q-1 -12 -5 -16t-17 -4h-36q-31 0 -51 6.5t-31 18.5t-15.5 30.5t-4.5 42.5q0 12 1 25t3 37t5.5 63t8.5 103t11.5 157.5t14.5 227.5q1 22 5 26
q3 3 16 3h39q31 0 51 -7t32 -19t16.5 -28t4.5 -33q0 -10 -1.5 -33.5t-3.5 -57t-5.5 -75.5t-6.5 -88l160 146q9 8 16.5 11t11.5 3q11 0 24 -14t24.5 -32.5t19 -38t7.5 -31.5q0 -29 -46.5 -61t-140.5 -72q42 -47 80 -86t66.5 -69t45.5 -49t17 -25zM240 -131q-23 0 -31.5 11
t-8.5 28q0 26 15.5 39t43.5 13q32 0 42.5 -16.5t10.5 -39.5q0 -20 -5.5 -39t-15 -33.5t-23.5 -23t-30 -8.5q-20 0 -25 10t-5 22q0 1 5 5t11 9t11 11t5 12z" />
    <glyph glyph-name="kgreenlandic" unicode="&#x138;" horiz-adv-x="538" 
d="M515 81q0 -5 -5 -20t-16 -31t-27.5 -28t-39.5 -12q-27 0 -53.5 18t-52.5 49.5t-52.5 74t-53.5 92.5q-5 -48 -9 -100t-7 -104q-1 -12 -5 -16t-17 -4h-36q-31 0 -51 6.5t-31 18.5t-15.5 30.5t-4.5 42.5q0 18 3.5 58.5t8.5 96.5t10.5 124.5t9.5 143.5q1 22 4 25.5t17 3.5h39
q31 0 51 -7t32 -19t16.5 -28t4.5 -33q0 -10 -1 -25.5t-3 -36.5q7 6 16 14t26.5 24t45 41l71.5 65q9 8 16.5 11t11.5 3q11 0 24 -14t24.5 -32.5t19 -38t7.5 -31.5q0 -29 -46.5 -61t-140.5 -72q42 -47 80 -86t66.5 -69t45.5 -49t17 -25z" />
    <glyph glyph-name="Lacute" unicode="&#x139;" horiz-adv-x="448" 
d="M155 0q-56 0 -80 22t-24 63q0 20 3 68.5t8 110.5t10 131t10 130t8 107t3 63q0 15 16 15h55q56 0 77.5 -21.5t21.5 -63.5q0 -5 -0.5 -9t-0.5 -9l-33 -467h180q6 0 11 -3.5t5 -10.5l-4 -59q-2 -30 -16.5 -48.5t-59.5 -18.5h-190zM179 780q-11 0 -19.5 7.5t-14.5 17.5
t-9 18.5t-3 11.5q0 7 20 28t47 43.5t53.5 40t39.5 17.5q9 0 26 -10.5t33 -24t28 -28t12 -21.5q0 -8 -13.5 -18.5t-34 -21.5t-45.5 -22t-48.5 -19.5t-43 -13.5t-28.5 -5z" />
    <glyph glyph-name="lacute" unicode="&#x13a;" horiz-adv-x="302" 
d="M157 -9q-62 0 -89 33t-27 109q0 12 1.5 30t4 46.5t6.5 70.5t8.5 102t10 141t11.5 188q1 22 5 26q3 3 16 3h39q30 0 50 -7t32 -19t17 -27.5t5 -32.5q0 -20 -2.5 -57.5t-6.5 -84.5t-8 -98t-8 -97.5t-6.5 -83.5t-2.5 -56q0 -26 9.5 -37t20.5 -15.5t20.5 -6t9.5 -6.5
q0 -22 -5 -43.5t-18 -39t-35.5 -28t-57.5 -10.5zM164 780q-11 0 -19.5 7.5t-14.5 17.5t-9 18.5t-3 11.5q0 7 20 28t47 43.5t53.5 40t39.5 17.5q9 0 26 -10.5t33 -24t28 -28t12 -21.5q0 -8 -13.5 -18.5t-34 -21.5t-45.5 -22t-48.5 -19.5t-43 -13.5t-28.5 -5z" />
    <glyph glyph-name="Lcommaaccent" unicode="&#x13b;" horiz-adv-x="448" 
d="M155 0q-56 0 -80 22t-24 63q0 20 3 68.5t8 110.5t10 131t10 130t8 107t3 63q0 15 16 15h55q56 0 77.5 -21.5t21.5 -63.5q0 -5 -0.5 -9t-0.5 -9l-33 -467h180q6 0 11 -3.5t5 -10.5l-4 -59q-2 -30 -16.5 -48.5t-59.5 -18.5h-190zM215 -131q-23 0 -31.5 11t-8.5 28
q0 26 15.5 39t43.5 13q32 0 42.5 -16.5t10.5 -39.5q0 -20 -5.5 -39t-15 -33.5t-23.5 -23t-30 -8.5q-20 0 -25 10t-5 22q0 1 5 5t11 9t11 11t5 12z" />
    <glyph glyph-name="lcommaaccent" unicode="&#x13c;" horiz-adv-x="302" 
d="M157 -9q-62 0 -89 33t-27 109q0 12 1.5 30t4 46.5t6.5 70.5t8.5 102t10 141t11.5 188q1 22 5 26q3 3 16 3h39q30 0 50 -7t32 -19t17 -27.5t5 -32.5q0 -20 -2.5 -57.5t-6.5 -84.5t-8 -98t-8 -97.5t-6.5 -83.5t-2.5 -56q0 -26 9.5 -37t20.5 -15.5t20.5 -6t9.5 -6.5
q0 -22 -5 -43.5t-18 -39t-35.5 -28t-57.5 -10.5zM131 -131q-23 0 -31.5 11t-8.5 28q0 26 15.5 39t43.5 13q32 0 42.5 -16.5t10.5 -39.5q0 -20 -5.5 -39t-15 -33.5t-23.5 -23t-30 -8.5q-20 0 -25 10t-5 22q0 1 5 5t11 9t11 11t5 12z" />
    <glyph glyph-name="Lcaron" unicode="&#x13d;" horiz-adv-x="448" 
d="M155 0q-56 0 -80 22t-24 63q0 20 3 68.5t8 110.5t10 131t10 130t8 107t3 63q0 15 16 15h55q56 0 77.5 -21.5t21.5 -63.5q0 -5 -0.5 -9t-0.5 -9l-33 -467h180q6 0 11 -3.5t5 -10.5l-4 -59q-2 -30 -16.5 -48.5t-59.5 -18.5h-190zM77 964q9 0 22 -7t27.5 -18.5t30.5 -26
t31 -30.5q21 16 43.5 30.5t42 26t35 18.5t24.5 7q7 0 15.5 -5.5t16 -13t13 -14.5t5.5 -10t-13 -15.5t-32.5 -31t-42.5 -39.5t-44 -40q-8 -7 -31 -11t-45 -4q-13 0 -30.5 3t-22.5 12q-18 21 -36 42.5t-32 39.5t-23 30t-9 14t6 9t14.5 14.5t18 13.5t16.5 6z" />
    <glyph glyph-name="lcaron" unicode="&#x13e;" horiz-adv-x="354" 
d="M337 621q-29 0 -40.5 15t-11.5 38q0 19 7.5 33.5t19.5 24t27 14t31 4.5q37 0 51 -22.5t14 -56.5q0 -29 -8.5 -56t-23.5 -48t-35 -33.5t-42 -12.5q-23 0 -30.5 12.5t-7.5 29.5q0 3 7.5 8t17 12.5t17 16.5t7.5 21zM157 -9q-62 0 -89 33t-27 109q0 12 1.5 30t4 46.5
t6.5 70.5t8.5 102t10 141t11.5 188q1 22 5 26q3 3 16 3h39q30 0 50 -7t32 -19t17 -27.5t5 -32.5q0 -20 -2.5 -57.5t-6.5 -84.5t-8 -98t-8 -97.5t-6.5 -83.5t-2.5 -56q0 -26 9.5 -37t20.5 -15.5t20.5 -6t9.5 -6.5q0 -22 -5 -43.5t-18 -39t-35.5 -28t-57.5 -10.5z" />
    <glyph glyph-name="Ldot" unicode="&#x13f;" horiz-adv-x="451" 
d="M155 0q-56 0 -80 22t-24 63q0 20 3 68.5t8 110.5t10 131t10 130t8 107t3 63q0 15 16 15h55q56 0 77.5 -21.5t21.5 -63.5q0 -5 -0.5 -9t-0.5 -9l-33 -467h180q6 0 11 -3.5t5 -10.5l-4 -59q-2 -30 -16.5 -48.5t-59.5 -18.5h-190zM276 374q0 35 24 55.5t66 20.5
q35 0 51 -15.5t16 -41.5q0 -32 -23 -53.5t-68 -21.5q-66 0 -66 56z" />
    <glyph glyph-name="ldot" unicode="&#x140;" horiz-adv-x="425" 
d="M157 -9q-62 0 -89 33t-27 109q0 12 1.5 30t4 46.5t6.5 70.5t8.5 102t10 141t11.5 188q1 22 5 26q3 3 16 3h39q30 0 50 -7t32 -19t17 -27.5t5 -32.5q0 -20 -2.5 -57.5t-6.5 -84.5t-8 -98t-8 -97.5t-6.5 -83.5t-2.5 -56q0 -26 9.5 -37t20.5 -15.5t20.5 -6t9.5 -6.5
q0 -22 -5 -43.5t-18 -39t-35.5 -28t-57.5 -10.5zM276 374q0 35 24 55.5t66 20.5q35 0 51 -15.5t16 -41.5q0 -32 -23 -53.5t-68 -21.5q-66 0 -66 56z" />
    <glyph glyph-name="Lslash" unicode="&#x141;" horiz-adv-x="464" 
d="M172 0q-56 0 -80 22t-24 63q0 20 3 70t8 114q-33 -11 -44.5 -15t-12.5 -4q-3 0 -8 8t-10 20.5t-8.5 29.5t-3.5 35q0 17 10.5 31.5t40.5 25.5q12 5 24 8.5t24 7.5q4 47 7.5 92t6 82.5t4 65t1.5 39.5q0 15 16 15h55q56 0 77.5 -21.5t21.5 -63.5q0 -5 -0.5 -9t-0.5 -9
l-9 -127q39 14 60.5 21t26.5 7q10 0 13 -8l10 -35t5.5 -23t2 -14t0.5 -8q0 -20 -11 -35t-43 -26l-75 -26l-13 -193h180q6 0 11 -3.5t5 -10.5l-4 -59q-2 -30 -16.5 -48.5t-59.5 -18.5h-190z" />
    <glyph glyph-name="lslash" unicode="&#x142;" horiz-adv-x="400" 
d="M212 -9q-62 0 -89 33t-27 109q0 10 1 23.5t3 33.5t4.5 48t5.5 66q-41 -15 -55 -19.5t-15 -4.5q-3 0 -8 8t-10 20.5t-8.5 29.5t-3.5 35q0 17 10.5 31.5t40.5 25.5l60 21q4 52 8 116.5t9 143.5q2 22 4.5 25.5t16.5 3.5h39q30 0 50 -7t32 -19t17 -27.5t5 -32.5
q0 -26 -2.5 -63t-5.5 -79q73 26 81 26q10 0 13 -8l10 -35t5.5 -23t2 -14t0.5 -8q0 -20 -11 -35t-43 -26l-72 -25q-5 -58 -8.5 -108t-3.5 -79q0 -26 9.5 -37t20.5 -15.5t20.5 -6t9.5 -6.5q0 -22 -5 -43.5t-18 -39t-35.5 -28t-57.5 -10.5z" />
    <glyph glyph-name="Nacute" unicode="&#x143;" horiz-adv-x="688" 
d="M499 0q-41 0 -61 12t-29 30q-52 107 -97.5 205t-92.5 198q1 -108 3 -215t4 -215q0 -15 -16 -15h-55q-57 0 -80.5 22.5t-23.5 66.5q0 12 1.5 40.5t4.5 67.5t6.5 85.5t7.5 94.5q6 76 10 126t6.5 84.5t3.5 59t2 48.5q0 15 16 15h80q33 0 54 -7.5t34.5 -20.5t21.5 -29.5
t15 -34.5q24 -62 42.5 -107t32.5 -79t24.5 -59t19.5 -46t18 -40.5t19 -42.5q0 59 -0.5 121.5t-1 122t-1 114.5t-0.5 99q0 9 17 9h55q33 0 52.5 -6.5t30.5 -19t14.5 -30.5t3.5 -41q0 -25 -3 -76.5t-7 -115.5t-9 -132.5t-9.5 -126.5t-8 -98.5t-4.5 -47.5q0 -8 -5.5 -12
t-12.5 -4h-82zM391 780q-11 0 -19.5 7.5t-14.5 17.5t-9 18.5t-3 11.5q0 7 20 28t47 43.5t53.5 40t39.5 17.5q9 0 26 -10.5t33 -24t28 -28t12 -21.5q0 -8 -13.5 -18.5t-34 -21.5t-45.5 -22t-48.5 -19.5t-43 -13.5t-28.5 -5z" />
    <glyph glyph-name="nacute" unicode="&#x144;" 
d="M382 88q0 22 3.5 57.5t7 75t7 76.5t3.5 62q0 26 -12.5 46.5t-48.5 20.5q-35 0 -58 -17t-38.5 -62t-25.5 -124t-19 -203q-1 -12 -5 -16t-17 -4h-36q-31 0 -50.5 6.5t-31 18.5t-16 29.5t-4.5 40.5q0 15 1.5 42.5t5.5 76t9.5 123t13.5 184.5q1 22 5 26q3 3 16 3h39
q30 0 49.5 -7t31.5 -18.5t17 -27t6 -31.5q31 53 71 73.5t100 20.5q42 0 73 -9t51.5 -30.5t30.5 -56t10 -85.5q0 -16 -2 -46t-5 -65.5t-6.5 -74l-6.5 -71.5t-5 -58t-2 -33q0 -22 -5 -26.5t-22 -4.5h-32q-32 0 -52 6t-31 17t-15.5 27.5t-4.5 37.5zM352 615q-7 0 -15.5 5
t-16.5 12.5t-13.5 16t-5.5 14.5q0 2 10 17t25 37t33 48t34 49q6 9 10 12t13 3q12 0 31 -6t37 -15t31 -19.5t13 -19.5q0 -7 -11.5 -21t-29.5 -31t-40 -35t-43 -33t-37.5 -24.5t-24.5 -9.5z" />
    <glyph glyph-name="Ncommaaccent" unicode="&#x145;" horiz-adv-x="688" 
d="M499 0q-41 0 -61 12t-29 30q-52 107 -97.5 205t-92.5 198q1 -108 3 -215t4 -215q0 -15 -16 -15h-55q-57 0 -80.5 22.5t-23.5 66.5q0 12 1.5 40.5t4.5 67.5t6.5 85.5t7.5 94.5q6 76 10 126t6.5 84.5t3.5 59t2 48.5q0 15 16 15h80q33 0 54 -7.5t34.5 -20.5t21.5 -29.5
t15 -34.5q24 -62 42.5 -107t32.5 -79t24.5 -59t19.5 -46t18 -40.5t19 -42.5q0 59 -0.5 121.5t-1 122t-1 114.5t-0.5 99q0 9 17 9h55q33 0 52.5 -6.5t30.5 -19t14.5 -30.5t3.5 -41q0 -25 -3 -76.5t-7 -115.5t-9 -132.5t-9.5 -126.5t-8 -98.5t-4.5 -47.5q0 -8 -5.5 -12
t-12.5 -4h-82zM292 -131q-23 0 -31.5 11t-8.5 28q0 26 15.5 39t43.5 13q32 0 42.5 -16.5t10.5 -39.5q0 -20 -5.5 -39t-15 -33.5t-23.5 -23t-30 -8.5q-20 0 -25 10t-5 22q0 1 5 5t11 9t11 11t5 12z" />
    <glyph glyph-name="ncommaaccent" unicode="&#x146;" 
d="M382 88q0 22 3.5 57.5t7 75t7 76.5t3.5 62q0 26 -12.5 46.5t-48.5 20.5q-35 0 -58 -17t-38.5 -62t-25.5 -124t-19 -203q-1 -12 -5 -16t-17 -4h-36q-31 0 -50.5 6.5t-31 18.5t-16 29.5t-4.5 40.5q0 15 1.5 42.5t5.5 76t9.5 123t13.5 184.5q1 22 5 26q3 3 16 3h39
q30 0 49.5 -7t31.5 -18.5t17 -27t6 -31.5q31 53 71 73.5t100 20.5q42 0 73 -9t51.5 -30.5t30.5 -56t10 -85.5q0 -16 -2 -46t-5 -65.5t-6.5 -74l-6.5 -71.5t-5 -58t-2 -33q0 -22 -5 -26.5t-22 -4.5h-32q-32 0 -52 6t-31 17t-15.5 27.5t-4.5 37.5zM276 -131q-23 0 -31.5 11
t-8.5 28q0 26 15.5 39t43.5 13q32 0 42.5 -16.5t10.5 -39.5q0 -20 -5.5 -39t-15 -33.5t-23.5 -23t-30 -8.5q-20 0 -25 10t-5 22q0 1 5 5t11 9t11 11t5 12z" />
    <glyph glyph-name="Ncaron" unicode="&#x147;" horiz-adv-x="688" 
d="M499 0q-41 0 -61 12t-29 30q-52 107 -97.5 205t-92.5 198q1 -108 3 -215t4 -215q0 -15 -16 -15h-55q-57 0 -80.5 22.5t-23.5 66.5q0 12 1.5 40.5t4.5 67.5t6.5 85.5t7.5 94.5q6 76 10 126t6.5 84.5t3.5 59t2 48.5q0 15 16 15h80q33 0 54 -7.5t34.5 -20.5t21.5 -29.5
t15 -34.5q24 -62 42.5 -107t32.5 -79t24.5 -59t19.5 -46t18 -40.5t19 -42.5q0 59 -0.5 121.5t-1 122t-1 114.5t-0.5 99q0 9 17 9h55q33 0 52.5 -6.5t30.5 -19t14.5 -30.5t3.5 -41q0 -25 -3 -76.5t-7 -115.5t-9 -132.5t-9.5 -126.5t-8 -98.5t-4.5 -47.5q0 -8 -5.5 -12
t-12.5 -4h-82zM289 964q9 0 22 -7t27.5 -18.5t30.5 -26t31 -30.5q21 16 43.5 30.5t42 26t35 18.5t24.5 7q7 0 15.5 -5.5t16 -13t13 -14.5t5.5 -10t-13 -15.5t-32.5 -31t-42.5 -39.5t-44 -40q-8 -7 -31 -11t-45 -4q-13 0 -30.5 3t-22.5 12q-18 21 -36 42.5t-32 39.5t-23 30
t-9 14t6 9t14.5 14.5t18 13.5t16.5 6z" />
    <glyph glyph-name="ncaron" unicode="&#x148;" 
d="M382 88q0 22 3.5 57.5t7 75t7 76.5t3.5 62q0 26 -12.5 46.5t-48.5 20.5q-35 0 -58 -17t-38.5 -62t-25.5 -124t-19 -203q-1 -12 -5 -16t-17 -4h-36q-31 0 -50.5 6.5t-31 18.5t-16 29.5t-4.5 40.5q0 15 1.5 42.5t5.5 76t9.5 123t13.5 184.5q1 22 5 26q3 3 16 3h39
q30 0 49.5 -7t31.5 -18.5t17 -27t6 -31.5q31 53 71 73.5t100 20.5q42 0 73 -9t51.5 -30.5t30.5 -56t10 -85.5q0 -16 -2 -46t-5 -65.5t-6.5 -74l-6.5 -71.5t-5 -58t-2 -33q0 -22 -5 -26.5t-22 -4.5h-32q-32 0 -52 6t-31 17t-15.5 27.5t-4.5 37.5zM234 819q8 0 20 -8
t25.5 -20.5t27.5 -29t28 -34.5q20 18 40.5 34.5t39 29t33 20.5t22.5 8q7 0 15.5 -5.5t16 -13t13 -14.5t5.5 -10t-12.5 -18t-32 -36t-43 -45.5t-44.5 -46.5q-6 -7 -26.5 -11t-39.5 -4q-14 0 -31 3t-22 12q-16 25 -32 49.5t-29 45t-21 34.5t-8 17t6 10t14.5 14.5t18 13
t16.5 5.5z" />
    <glyph glyph-name="napostrophe" unicode="&#x149;" 
d="M382 88q0 22 3.5 57.5t7 75t7 76.5t3.5 62q0 26 -12.5 46.5t-48.5 20.5q-35 0 -58 -17t-38.5 -62t-25.5 -124t-19 -203q-1 -12 -5 -16t-17 -4h-36q-31 0 -50.5 6.5t-31 18.5t-16 29.5t-4.5 40.5q0 15 1.5 42.5t5.5 76t9.5 123t13.5 184.5q1 22 5 26q3 3 16 3h39
q30 0 49.5 -7t31.5 -18.5t17 -27t6 -31.5q31 53 71 73.5t100 20.5q42 0 73 -9t51.5 -30.5t30.5 -56t10 -85.5q0 -16 -2 -46t-5 -65.5t-6.5 -74l-6.5 -71.5t-5 -58t-2 -33q0 -22 -5 -26.5t-22 -4.5h-32q-32 0 -52 6t-31 17t-15.5 27.5t-4.5 37.5zM152 712q-14 0 -24 6t-16 15
t-9 20.5t-3 22.5q0 19 7.5 33.5t20.5 24t29 14t33 4.5q37 0 51 -22.5t14 -56.5q0 -35 -10 -67.5t-27.5 -57.5t-41 -40t-50.5 -15q-23 0 -30.5 12t-7.5 30q0 4 10 11.5t22 18t22 22.5t10 25z" />
    <glyph glyph-name="Eng" unicode="&#x14a;" horiz-adv-x="689" 
d="M401 -70q16 0 23 18.5t12 66.5q-53 110 -111.5 220t-105.5 210q1 -108 3 -215t4 -215q0 -15 -16 -15h-55q-57 0 -80.5 22.5t-23.5 66.5q0 12 1.5 40.5t4.5 67.5t6.5 85.5t7.5 94.5q6 76 10 126t6.5 84.5t3.5 59t2 48.5q0 15 16 15h80q33 0 54 -7.5t34.5 -20.5t21.5 -29.5
t15 -34.5q37 -93 60.5 -151t40 -97t29 -66.5t26.5 -59.5q0 59 -0.5 121.5t-1 122t-1 114.5t-0.5 99q0 2 2 5.5t15 3.5h55q33 0 52.5 -6.5t30.5 -19t14.5 -30.5t3.5 -41q0 -26 -2.5 -76t-6.5 -111.5t-9 -127t-10 -124t-8.5 -102.5t-5.5 -61q-6 -63 -23.5 -103.5t-42.5 -63
t-55 -31t-62 -8.5q-29 0 -58.5 5.5t-53.5 16.5t-39 28t-15 40q0 24 14.5 38t34 21t38 9t27.5 2q3 0 5.5 -5.5t6 -12t9.5 -12t17 -5.5z" />
    <glyph glyph-name="eng" unicode="&#x14b;" horiz-adv-x="622" 
d="M344 -70q36 0 47 104.5t11 320.5q0 15 -1.5 28t-7.5 22.5t-17 15t-30 5.5q-57 0 -88 -48.5t-38 -129.5l-18 -228q-2 -20 -22 -20h-36q-31 0 -50.5 6.5t-31 18.5t-16 29.5t-4.5 40.5q0 15 1.5 42.5t5.5 76t9.5 123t13.5 184.5q2 18 6 23.5t15 5.5h39q30 0 49.5 -7
t31.5 -18.5t17 -27t6 -31.5q32 55 72 74.5t100 19.5q43 0 74 -9.5t51 -31t29.5 -57.5t9.5 -89t-8 -149.5t-20 -230.5q-5 -53 -21 -89t-40.5 -58t-56 -31.5t-68.5 -9.5q-29 0 -58 5.5t-52.5 16.5t-38.5 28t-15 40q0 24 14.5 38t34 21t38 9t27.5 2q3 0 5.5 -5.5t6 -12t9.5 -12
t15 -5.5z" />
    <glyph glyph-name="Omacron" unicode="&#x14c;" horiz-adv-x="711" 
d="M405 721q73 0 125 -20.5t85 -60t48 -96t15 -128.5q0 -40 -5.5 -87t-20 -94.5t-39.5 -91.5t-64.5 -78t-94.5 -54.5t-130 -20.5q-83 0 -137.5 25t-87 67.5t-46 100.5t-13.5 124q0 78 18 152.5t60.5 132.5t112.5 93.5t174 35.5zM384 566q-35 0 -60.5 -12.5t-43 -33.5
t-28 -47t-16.5 -53.5t-8 -53t-2 -45.5q0 -91 30.5 -133t86.5 -42q46 0 75 29.5t45.5 71t22.5 86t6 75.5q0 73 -25 115.5t-83 42.5zM256 800q-11 0 -11 11q0 17 1 34t8 31t22 22.5t42 8.5h272q6 0 11 -3.5t5 -10.5q0 -21 -2.5 -38t-10.5 -29t-23.5 -19t-41.5 -7h-272z" />
    <glyph glyph-name="omacron" unicode="&#x14d;" horiz-adv-x="598" 
d="M265 -10q-69 0 -114.5 19.5t-72.5 53.5t-38 79.5t-11 97.5q0 60 14.5 117.5t49.5 102.5t92.5 72.5t143.5 27.5q126 0 180.5 -61.5t54.5 -172.5q0 -31 -4.5 -68.5t-17 -74.5t-34 -72t-54.5 -62t-79.5 -43t-109.5 -16zM312 427q-38 0 -60.5 -19.5t-34 -47t-15 -58
t-3.5 -51.5q0 -66 21 -97t60 -31q35 0 57.5 22t35 53t17 65t4.5 57q0 50 -18.5 78.5t-63.5 28.5zM170 618q-11 0 -11 11q0 18 1.5 35t8 30.5t21.5 22t42 8.5h272q6 0 11 -3.5t5 -10.5q0 -21 -2.5 -38t-10.5 -29t-23.5 -19t-41.5 -7h-272z" />
    <glyph glyph-name="Obreve" unicode="&#x14e;" horiz-adv-x="711" 
d="M405 721q73 0 125 -20.5t85 -60t48 -96t15 -128.5q0 -40 -5.5 -87t-20 -94.5t-39.5 -91.5t-64.5 -78t-94.5 -54.5t-130 -20.5q-83 0 -137.5 25t-87 67.5t-46 100.5t-13.5 124q0 78 18 152.5t60.5 132.5t112.5 93.5t174 35.5zM384 566q-35 0 -60.5 -12.5t-43 -33.5
t-28 -47t-16.5 -53.5t-8 -53t-2 -45.5q0 -91 30.5 -133t86.5 -42q46 0 75 29.5t45.5 71t22.5 86t6 75.5q0 73 -25 115.5t-83 42.5zM412 780q-41 0 -69 9.5t-46 23.5t-26 30.5t-8 30.5q0 25 20 38t46 13q23 0 31.5 -9t14.5 -20.5t14.5 -20.5t31.5 -9t36 9t24 20.5t26 20.5
t42 9q43 0 43 -31q0 -17 -11.5 -37t-34 -37t-56 -28.5t-78.5 -11.5z" />
    <glyph glyph-name="obreve" unicode="&#x14f;" horiz-adv-x="598" 
d="M265 -10q-69 0 -114.5 19.5t-72.5 53.5t-38 79.5t-11 97.5q0 60 14.5 117.5t49.5 102.5t92.5 72.5t143.5 27.5q126 0 180.5 -61.5t54.5 -172.5q0 -31 -4.5 -68.5t-17 -74.5t-34 -72t-54.5 -62t-79.5 -43t-109.5 -16zM312 427q-38 0 -60.5 -19.5t-34 -47t-15 -58
t-3.5 -51.5q0 -66 21 -97t60 -31q35 0 57.5 22t35 53t17 65t4.5 57q0 50 -18.5 78.5t-63.5 28.5zM339 605q-41 0 -69 9.5t-46 23.5t-26 30.5t-8 30.5q0 25 20 38t46 13q23 0 31.5 -9t14.5 -20.5t14.5 -20.5t31.5 -9t36 9t24 20.5t26 20.5t42 9q43 0 43 -31q0 -17 -11.5 -37
t-34 -37t-56 -28.5t-78.5 -11.5z" />
    <glyph glyph-name="Ohungarumlaut" unicode="&#x150;" horiz-adv-x="711" 
d="M405 721q73 0 125 -20.5t85 -60t48 -96t15 -128.5q0 -40 -5.5 -87t-20 -94.5t-39.5 -91.5t-64.5 -78t-94.5 -54.5t-130 -20.5q-83 0 -137.5 25t-87 67.5t-46 100.5t-13.5 124q0 78 18 152.5t60.5 132.5t112.5 93.5t174 35.5zM384 566q-35 0 -60.5 -12.5t-43 -33.5
t-28 -47t-16.5 -53.5t-8 -53t-2 -45.5q0 -91 30.5 -133t86.5 -42q46 0 75 29.5t45.5 71t22.5 86t6 75.5q0 73 -25 115.5t-83 42.5zM249 780q-11 0 -19.5 7.5t-14.5 17.5t-9 18.5t-3 11.5q0 7 20 28t47 43.5t53.5 40t39.5 17.5q9 0 26 -10.5t33 -24t28 -28t12 -21.5
q0 -8 -13.5 -18.5t-34 -21.5t-45.5 -22t-48.5 -19.5t-43 -13.5t-28.5 -5zM508 780q-11 0 -19.5 7.5t-14.5 17.5t-9 18.5t-3 11.5q0 7 20 28t47 43.5t53.5 40t39.5 17.5q9 0 26 -10.5t33 -24t28 -28t12 -21.5q0 -8 -13.5 -18.5t-34 -21.5t-45.5 -22t-48.5 -19.5t-43 -13.5
t-28.5 -5z" />
    <glyph glyph-name="ohungarumlaut" unicode="&#x151;" horiz-adv-x="598" 
d="M265 -10q-69 0 -114.5 19.5t-72.5 53.5t-38 79.5t-11 97.5q0 60 14.5 117.5t49.5 102.5t92.5 72.5t143.5 27.5q126 0 180.5 -61.5t54.5 -172.5q0 -31 -4.5 -68.5t-17 -74.5t-34 -72t-54.5 -62t-79.5 -43t-109.5 -16zM312 427q-38 0 -60.5 -19.5t-34 -47t-15 -58
t-3.5 -51.5q0 -66 21 -97t60 -31q35 0 57.5 22t35 53t17 65t4.5 57q0 50 -18.5 78.5t-63.5 28.5zM208 615q-7 0 -15.5 5t-16.5 12.5t-13.5 16t-5.5 14.5q0 2 10 17t25 37t33 48t34 49q6 9 10 12t13 3q12 0 31 -6t37 -15t31 -19.5t13 -19.5q0 -7 -11.5 -21t-29.5 -31t-40 -35
t-43 -33t-37.5 -24.5t-24.5 -9.5zM465 615q-7 0 -15.5 5t-16.5 12.5t-13.5 16t-5.5 14.5q0 2 10 17t25 37t33 48t34 49q6 9 10 12t13 3q12 0 31 -6t37 -15t31 -19.5t13 -19.5q0 -7 -11.5 -21t-29.5 -31t-40 -35t-43 -33t-37.5 -24.5t-24.5 -9.5z" />
    <glyph glyph-name="OE" unicode="&#x152;" horiz-adv-x="921" 
d="M575 0q-31 0 -50 17t-27 49q-32 -45 -79.5 -60.5t-101.5 -15.5q-80 0 -133.5 25.5t-85.5 69t-45.5 101t-13.5 121.5q0 78 19 152.5t60.5 132.5t108 93.5t162.5 35.5q55 0 82.5 -11.5t43.5 -29.5q2 12 10 21t23 9h333q6 0 11 -3t5 -11l-4 -59q-2 -30 -16.5 -48.5
t-59.5 -18.5h-138l-10 -141h142q6 0 11 -3t5 -11l-4 -59q-2 -30 -16.5 -48.5t-59.5 -18.5h-87l-11 -149h220q6 0 11 -3.5t5 -10.5l-4 -59q-2 -30 -16.5 -48.5t-59.5 -18.5h-230zM380 566q-51 0 -81.5 -27t-47 -66t-21.5 -81t-5 -72q0 -91 31 -132.5t83 -41.5q48 0 77.5 29.5
t46 71t22.5 87t6 77.5q0 72 -25.5 113.5t-85.5 41.5z" />
    <glyph glyph-name="oe" unicode="&#x153;" horiz-adv-x="893" 
d="M265 -10q-69 0 -114.5 19.5t-72.5 53t-38 79t-11 97.5q0 61 15 118.5t49.5 102.5t90 72.5t137.5 27.5q34 0 60 -4.5t45.5 -13t35 -21.5t30.5 -30q32 30 81.5 49.5t118.5 19.5q49 0 83.5 -12t56.5 -32.5t32 -48t10 -58.5q0 -46 -19 -78.5t-49.5 -54t-67 -33.5t-71 -17.5
t-63.5 -7t-43 -1.5q2 -19 7.5 -37.5t16.5 -32.5t28 -23t43 -9t40.5 8.5t23.5 19t15.5 19t17.5 8.5q5 0 17.5 -2.5t25.5 -10.5t23 -22t10 -36q0 -29 -18 -50t-46.5 -34t-63.5 -19t-69 -6q-48 0 -94.5 20t-76.5 57q-27 -34 -80 -55.5t-116 -21.5zM312 427q-38 0 -60.5 -19.5
t-34 -47t-15 -58t-3.5 -51.5q0 -66 21 -97t60 -31q35 0 57.5 22t35 53t17 65t4.5 57q0 50 -18.5 78.5t-63.5 28.5zM652 427q-22 0 -37.5 -12.5t-26 -31.5t-16 -42t-8.5 -44q62 1 100.5 21t38.5 57q0 20 -12.5 36t-38.5 16z" />
    <glyph glyph-name="Racute" unicode="&#x154;" horiz-adv-x="617" 
d="M155 0q-57 0 -80.5 22.5t-23.5 66.5q0 12 1.5 40.5t4.5 67.5t6.5 85.5t7.5 94.5q8 101 11.5 164l5.5 99q3 45 6 57.5t13 12.5q31 0 63.5 1.5t62.5 3.5t56.5 3.5t47.5 1.5q64 0 110 -16t74.5 -45t42 -70t13.5 -92q0 -78 -31 -139t-99 -93l84 -120q23 -34 35 -52.5
t12 -27.5q0 -7 -8.5 -19.5t-25 -25t-40 -21.5t-52.5 -9q-32 0 -55.5 21t-42 55.5t-32 79.5t-25.5 94q-36 2 -59 7q-3 -44 -6 -84t-5 -71.5t-4 -52t-2 -24.5q-1 -8 -4 -11.5t-12 -3.5h-50zM317 570q-12 0 -27 -1.5t-32 -3.5q-2 -35 -4.5 -83.5t-6.5 -103.5q35 -8 61 -8
q31 0 50.5 12t30.5 29.5t14.5 37.5t3.5 36q0 41 -20 63t-70 22zM342 780q-11 0 -19.5 7.5t-14.5 17.5t-9 18.5t-3 11.5q0 7 20 28t47 43.5t53.5 40t39.5 17.5q9 0 26 -10.5t33 -24t28 -28t12 -21.5q0 -8 -13.5 -18.5t-34 -21.5t-45.5 -22t-48.5 -19.5t-43 -13.5t-28.5 -5z
" />
    <glyph glyph-name="racute" unicode="&#x155;" horiz-adv-x="479" 
d="M364 311q-6 0 -13.5 0.5t-14.5 2t-12 4t-5 6.5q0 13 1 24t1 23q0 22 -6 36t-24 14q-28 0 -46.5 -36.5t-23.5 -109.5q-2 -32 -5.5 -72.5t-6.5 -78t-5 -66.5t-2 -38q0 -10 -7 -15t-15 -5h-36q-31 0 -50.5 6.5t-31 18.5t-16 29.5t-4.5 40.5q0 15 1.5 42.5t5.5 76t9.5 123
t13.5 184.5q2 29 21 29h39q28 0 47 -6t31 -16.5t17.5 -24.5t7.5 -29q12 23 28.5 39.5t34.5 27t37 15t35 4.5q19 0 38.5 -7t35.5 -21t25.5 -36t9.5 -52q0 -27 -8 -51t-23 -42.5t-36.5 -29t-47.5 -10.5zM273 615q-7 0 -15.5 5t-16.5 12.5t-13.5 16t-5.5 14.5q0 2 10 17t25 37
t33 48t34 49q6 9 10 12t13 3q12 0 31 -6t37 -15t31 -19.5t13 -19.5q0 -7 -11.5 -21t-29.5 -31t-40 -35t-43 -33t-37.5 -24.5t-24.5 -9.5z" />
    <glyph glyph-name="Rcommaaccent" unicode="&#x156;" horiz-adv-x="617" 
d="M155 0q-57 0 -80.5 22.5t-23.5 66.5q0 12 1.5 40.5t4.5 67.5t6.5 85.5t7.5 94.5q8 101 11.5 164l5.5 99q3 45 6 57.5t13 12.5q31 0 63.5 1.5t62.5 3.5t56.5 3.5t47.5 1.5q64 0 110 -16t74.5 -45t42 -70t13.5 -92q0 -78 -31 -139t-99 -93l84 -120q23 -34 35 -52.5
t12 -27.5q0 -7 -8.5 -19.5t-25 -25t-40 -21.5t-52.5 -9q-32 0 -55.5 21t-42 55.5t-32 79.5t-25.5 94q-36 2 -59 7q-3 -44 -6 -84t-5 -71.5t-4 -52t-2 -24.5q-1 -8 -4 -11.5t-12 -3.5h-50zM317 570q-12 0 -27 -1.5t-32 -3.5q-2 -35 -4.5 -83.5t-6.5 -103.5q35 -8 61 -8
q31 0 50.5 12t30.5 29.5t14.5 37.5t3.5 36q0 41 -20 63t-70 22zM273 -131q-23 0 -31.5 11t-8.5 28q0 26 15.5 39t43.5 13q32 0 42.5 -16.5t10.5 -39.5q0 -20 -5.5 -39t-15 -33.5t-23.5 -23t-30 -8.5q-20 0 -25 10t-5 22q0 1 5 5t11 9t11 11t5 12z" />
    <glyph glyph-name="rcommaaccent" unicode="&#x157;" horiz-adv-x="479" 
d="M364 311q-6 0 -13.5 0.5t-14.5 2t-12 4t-5 6.5q0 13 1 24t1 23q0 22 -6 36t-24 14q-28 0 -46.5 -36.5t-23.5 -109.5q-2 -32 -5.5 -72.5t-6.5 -78t-5 -66.5t-2 -38q0 -10 -7 -15t-15 -5h-36q-31 0 -50.5 6.5t-31 18.5t-16 29.5t-4.5 40.5q0 15 1.5 42.5t5.5 76t9.5 123
t13.5 184.5q2 29 21 29h39q28 0 47 -6t31 -16.5t17.5 -24.5t7.5 -29q12 23 28.5 39.5t34.5 27t37 15t35 4.5q19 0 38.5 -7t35.5 -21t25.5 -36t9.5 -52q0 -27 -8 -51t-23 -42.5t-36.5 -29t-47.5 -10.5zM108 -131q-23 0 -31.5 11t-8.5 28q0 26 15.5 39t43.5 13
q32 0 42.5 -16.5t10.5 -39.5q0 -20 -5.5 -39t-15 -33.5t-23.5 -23t-30 -8.5q-20 0 -25 10t-5 22q0 1 5 5t11 9t11 11t5 12z" />
    <glyph glyph-name="Rcaron" unicode="&#x158;" horiz-adv-x="617" 
d="M155 0q-57 0 -80.5 22.5t-23.5 66.5q0 12 1.5 40.5t4.5 67.5t6.5 85.5t7.5 94.5q8 101 11.5 164l5.5 99q3 45 6 57.5t13 12.5q31 0 63.5 1.5t62.5 3.5t56.5 3.5t47.5 1.5q64 0 110 -16t74.5 -45t42 -70t13.5 -92q0 -78 -31 -139t-99 -93l84 -120q23 -34 35 -52.5
t12 -27.5q0 -7 -8.5 -19.5t-25 -25t-40 -21.5t-52.5 -9q-32 0 -55.5 21t-42 55.5t-32 79.5t-25.5 94q-36 2 -59 7q-3 -44 -6 -84t-5 -71.5t-4 -52t-2 -24.5q-1 -8 -4 -11.5t-12 -3.5h-50zM317 570q-12 0 -27 -1.5t-32 -3.5q-2 -35 -4.5 -83.5t-6.5 -103.5q35 -8 61 -8
q31 0 50.5 12t30.5 29.5t14.5 37.5t3.5 36q0 41 -20 63t-70 22zM240 964q9 0 22 -7t27.5 -18.5t30.5 -26t31 -30.5q21 16 43.5 30.5t42 26t35 18.5t24.5 7q7 0 15.5 -5.5t16 -13t13 -14.5t5.5 -10t-13 -15.5t-32.5 -31t-42.5 -39.5t-44 -40q-8 -7 -31 -11t-45 -4
q-13 0 -30.5 3t-22.5 12q-18 21 -36 42.5t-32 39.5t-23 30t-9 14t6 9t14.5 14.5t18 13.5t16.5 6z" />
    <glyph glyph-name="rcaron" unicode="&#x159;" horiz-adv-x="479" 
d="M364 311q-6 0 -13.5 0.5t-14.5 2t-12 4t-5 6.5q0 13 1 24t1 23q0 22 -6 36t-24 14q-28 0 -46.5 -36.5t-23.5 -109.5q-2 -32 -5.5 -72.5t-6.5 -78t-5 -66.5t-2 -38q0 -10 -7 -15t-15 -5h-36q-31 0 -50.5 6.5t-31 18.5t-16 29.5t-4.5 40.5q0 15 1.5 42.5t5.5 76t9.5 123
t13.5 184.5q2 29 21 29h39q28 0 47 -6t31 -16.5t17.5 -24.5t7.5 -29q12 23 28.5 39.5t34.5 27t37 15t35 4.5q19 0 38.5 -7t35.5 -21t25.5 -36t9.5 -52q0 -27 -8 -51t-23 -42.5t-36.5 -29t-47.5 -10.5zM169 819q8 0 20 -8t25.5 -20.5t27.5 -29t28 -34.5q20 18 40.5 34.5
t39 29t33 20.5t22.5 8q7 0 15.5 -5.5t16 -13t13 -14.5t5.5 -10t-12.5 -18t-32 -36t-43 -45.5t-44.5 -46.5q-6 -7 -26.5 -11t-39.5 -4q-14 0 -31 3t-22 12q-16 25 -32 49.5t-29 45t-21 34.5t-8 17t6 10t14.5 14.5t18 13t16.5 5.5z" />
    <glyph glyph-name="Sacute" unicode="&#x15a;" horiz-adv-x="541" 
d="M326 720q94 0 139.5 -41t45.5 -107q0 -56 -31 -85.5t-89 -29.5q-18 0 -23 3.5t-5 14.5q0 10 -1.5 26t-7.5 31t-19 25.5t-36 10.5q-32 0 -57 -19.5t-25 -50.5q0 -27 20.5 -44t51.5 -31.5t67.5 -29.5t67.5 -39.5t51.5 -61t20.5 -92.5q0 -44 -14.5 -82.5t-43 -67t-72 -44.5
t-101.5 -16q-50 0 -92.5 11t-74 27.5t-49.5 36t-18 35.5q0 66 7.5 95t27.5 29q14 0 29.5 -12t35.5 -27t46.5 -27t61.5 -12q14 0 27.5 2.5t24 8.5t17 16t6.5 24q0 25 -19 40t-48 27.5t-62.5 26t-62.5 37t-48 60.5t-19 95q0 65 24.5 110t63 73.5t87 41t96.5 12.5zM318 780
q-11 0 -19.5 7.5t-14.5 17.5t-9 18.5t-3 11.5q0 7 20 28t47 43.5t53.5 40t39.5 17.5q9 0 26 -10.5t33 -24t28 -28t12 -21.5q0 -8 -13.5 -18.5t-34 -21.5t-45.5 -22t-48.5 -19.5t-43 -13.5t-28.5 -5z" />
    <glyph glyph-name="sacute" unicode="&#x15b;" horiz-adv-x="470" 
d="M274 560q85 0 125 -33.5t40 -85.5q0 -44 -27.5 -67t-79.5 -23q-14 0 -19 3t-5 11q0 9 -1.5 20.5t-7 22t-17 17.5t-32.5 7q-28 0 -45 -13.5t-17 -33.5q0 -21 17.5 -33.5t44 -23.5t57.5 -22.5t57.5 -30.5t44 -47.5t17.5 -73.5q0 -72 -51 -118t-153 -46q-28 0 -64.5 4.5
t-69.5 14t-55.5 25.5t-22.5 40q0 9 3.5 22t11 25t18 20.5t25.5 8.5q12 0 22 -6t23.5 -12.5t33.5 -12.5t53 -6q25 0 44.5 6t19.5 27q0 19 -16 30.5t-40.5 21.5t-53 21.5t-53 30.5t-40.5 48.5t-16 76.5q0 51 20.5 86.5t53 57.5t73.5 31.5t82 9.5zM285 615q-7 0 -15.5 5
t-16.5 12.5t-13.5 16t-5.5 14.5q0 2 10 17t25 37t33 48t34 49q6 9 10 12t13 3q12 0 31 -6t37 -15t31 -19.5t13 -19.5q0 -7 -11.5 -21t-29.5 -31t-40 -35t-43 -33t-37.5 -24.5t-24.5 -9.5z" />
    <glyph glyph-name="Scircumflex" unicode="&#x15c;" horiz-adv-x="541" 
d="M326 720q94 0 139.5 -41t45.5 -107q0 -56 -31 -85.5t-89 -29.5q-18 0 -23 3.5t-5 14.5q0 10 -1.5 26t-7.5 31t-19 25.5t-36 10.5q-32 0 -57 -19.5t-25 -50.5q0 -27 20.5 -44t51.5 -31.5t67.5 -29.5t67.5 -39.5t51.5 -61t20.5 -92.5q0 -44 -14.5 -82.5t-43 -67t-72 -44.5
t-101.5 -16q-50 0 -92.5 11t-74 27.5t-49.5 36t-18 35.5q0 66 7.5 95t27.5 29q14 0 29.5 -12t35.5 -27t46.5 -27t61.5 -12q14 0 27.5 2.5t24 8.5t17 16t6.5 24q0 25 -19 40t-48 27.5t-62.5 26t-62.5 37t-48 60.5t-19 95q0 65 24.5 110t63 73.5t87 41t96.5 12.5zM437 780
q-9 0 -22 7t-27.5 18.5t-30.5 26t-31 30.5q-21 -16 -43.5 -30.5t-42 -26t-35 -18.5t-24.5 -7q-7 0 -15.5 5.5t-16 13t-13 14.5t-5.5 10t12.5 15.5t32 30.5t43 39t44.5 41q8 7 30.5 11t45.5 4q13 0 30.5 -3t22.5 -12q18 -21 36 -42.5t32 -39.5t23 -30t9 -14t-6 -9
t-14.5 -14.5t-18 -13.5t-16.5 -6z" />
    <glyph glyph-name="scircumflex" unicode="&#x15d;" horiz-adv-x="470" 
d="M274 560q85 0 125 -33.5t40 -85.5q0 -44 -27.5 -67t-79.5 -23q-14 0 -19 3t-5 11q0 9 -1.5 20.5t-7 22t-17 17.5t-32.5 7q-28 0 -45 -13.5t-17 -33.5q0 -21 17.5 -33.5t44 -23.5t57.5 -22.5t57.5 -30.5t44 -47.5t17.5 -73.5q0 -72 -51 -118t-153 -46q-28 0 -64.5 4.5
t-69.5 14t-55.5 25.5t-22.5 40q0 9 3.5 22t11 25t18 20.5t25.5 8.5q12 0 22 -6t23.5 -12.5t33.5 -12.5t53 -6q25 0 44.5 6t19.5 27q0 19 -16 30.5t-40.5 21.5t-53 21.5t-53 30.5t-40.5 48.5t-16 76.5q0 51 20.5 86.5t53 57.5t73.5 31.5t82 9.5zM398 615q-8 0 -20 8.5
t-25.5 23t-28 32.5t-27.5 38q-20 -20 -40.5 -38t-39 -32.5t-33 -23t-22.5 -8.5q-7 0 -15.5 5.5t-16 13t-13 14.5t-5.5 10q0 4 12.5 20t32 38.5t43 48t44.5 49.5q6 7 26.5 11t39.5 4q13 0 30.5 -3t22.5 -12q16 -27 32 -53.5t29 -48.5t21 -37t8 -17t-6 -9t-14.5 -14.5
t-18 -13.5t-16.5 -6z" />
    <glyph glyph-name="uni015E" unicode="&#x15e;" horiz-adv-x="542" 
d="M327 720q94 0 139.5 -41t45.5 -107q0 -56 -31 -85.5t-89 -29.5q-18 0 -23 3.5t-5 14.5q0 10 -1.5 26t-7.5 31t-19 25.5t-36 10.5q-32 0 -57 -19.5t-25 -50.5q0 -27 20.5 -44t51.5 -31.5t67.5 -29.5t67.5 -39.5t51.5 -61t20.5 -92.5q0 -42 -13 -78.5t-38.5 -64.5
t-64 -45.5t-90.5 -20.5l-4 -31q45 0 70.5 -14.5t25.5 -50.5q0 -42 -34 -68.5t-88 -26.5q-11 0 -26.5 1.5t-29 7t-23 15t-9.5 25.5q0 13 5.5 27.5t13.5 14.5q4 0 8.5 -4t11 -9.5t16 -9.5t22.5 -4q14 0 24 5t10 16q0 12 -11.5 19t-26 11.5t-26 8t-11.5 6.5q0 10 4 28t9 35
q-42 4 -76.5 16t-60 27.5t-39.5 32.5t-14 31q0 66 7.5 95t27.5 29q14 0 29.5 -12t35.5 -27t46.5 -27t61.5 -12q14 0 27.5 2.5t24 8.5t17 16t6.5 24q0 25 -19 40t-48 27.5t-62.5 26t-62.5 37t-48 60.5t-19 95q0 65 24.5 110t63 73.5t87 41t96.5 12.5z" />
    <glyph glyph-name="uni015F" unicode="&#x15f;" horiz-adv-x="471" 
d="M275 560q85 0 125 -33.5t40 -85.5q0 -44 -27.5 -67t-79.5 -23q-14 0 -19 3t-5 11q0 9 -1.5 20.5t-7 22t-17 17.5t-32.5 7q-28 0 -45 -13.5t-17 -33.5q0 -21 17.5 -33.5t44 -23.5t57.5 -22.5t57.5 -30.5t44 -47.5t17.5 -73.5q0 -67 -43.5 -111.5t-131.5 -51.5l-4 -31
q45 0 70.5 -14.5t25.5 -50.5q0 -42 -34 -68.5t-88 -26.5q-11 0 -26.5 1.5t-29 7t-23 15t-9.5 25.5q0 13 5.5 27.5t13.5 14.5q4 0 8.5 -4t11 -9.5t16 -9.5t22.5 -4q14 0 24 5t10 16q0 12 -11.5 19t-26 11.5t-26 8t-11.5 6.5q0 10 4 27.5t9 34.5q-28 2 -58.5 8t-55.5 15.5
t-41.5 24t-16.5 34.5q0 9 3.5 22t11 25t18 20.5t25.5 8.5q12 0 22 -6t23.5 -12.5t33.5 -12.5t53 -6q25 0 44.5 6t19.5 27q0 19 -16 30.5t-40.5 21.5t-53 21.5t-53 30.5t-40.5 48.5t-16 76.5q0 51 20.5 86.5t53 57.5t73.5 31.5t82 9.5z" />
    <glyph glyph-name="Scaron" unicode="&#x160;" horiz-adv-x="541" 
d="M326 720q94 0 139.5 -41t45.5 -107q0 -56 -31 -85.5t-89 -29.5q-18 0 -23 3.5t-5 14.5q0 10 -1.5 26t-7.5 31t-19 25.5t-36 10.5q-32 0 -57 -19.5t-25 -50.5q0 -27 20.5 -44t51.5 -31.5t67.5 -29.5t67.5 -39.5t51.5 -61t20.5 -92.5q0 -44 -14.5 -82.5t-43 -67t-72 -44.5
t-101.5 -16q-50 0 -92.5 11t-74 27.5t-49.5 36t-18 35.5q0 66 7.5 95t27.5 29q14 0 29.5 -12t35.5 -27t46.5 -27t61.5 -12q14 0 27.5 2.5t24 8.5t17 16t6.5 24q0 25 -19 40t-48 27.5t-62.5 26t-62.5 37t-48 60.5t-19 95q0 65 24.5 110t63 73.5t87 41t96.5 12.5zM216 964
q9 0 22 -7t27.5 -18.5t30.5 -26t31 -30.5q21 16 43.5 30.5t42 26t35 18.5t24.5 7q7 0 15.5 -5.5t16 -13t13 -14.5t5.5 -10t-13 -15.5t-32.5 -31t-42.5 -39.5t-44 -40q-8 -7 -31 -11t-45 -4q-13 0 -30.5 3t-22.5 12q-18 21 -36 42.5t-32 39.5t-23 30t-9 14t6 9t14.5 14.5
t18 13.5t16.5 6z" />
    <glyph glyph-name="scaron" unicode="&#x161;" horiz-adv-x="470" 
d="M274 560q85 0 125 -33.5t40 -85.5q0 -44 -27.5 -67t-79.5 -23q-14 0 -19 3t-5 11q0 9 -1.5 20.5t-7 22t-17 17.5t-32.5 7q-28 0 -45 -13.5t-17 -33.5q0 -21 17.5 -33.5t44 -23.5t57.5 -22.5t57.5 -30.5t44 -47.5t17.5 -73.5q0 -72 -51 -118t-153 -46q-28 0 -64.5 4.5
t-69.5 14t-55.5 25.5t-22.5 40q0 9 3.5 22t11 25t18 20.5t25.5 8.5q12 0 22 -6t23.5 -12.5t33.5 -12.5t53 -6q25 0 44.5 6t19.5 27q0 19 -16 30.5t-40.5 21.5t-53 21.5t-53 30.5t-40.5 48.5t-16 76.5q0 51 20.5 86.5t53 57.5t73.5 31.5t82 9.5zM188 819q8 0 20 -8
t25.5 -20.5t27.5 -29t28 -34.5q20 18 40.5 34.5t39 29t33 20.5t22.5 8q7 0 15.5 -5.5t16 -13t13 -14.5t5.5 -10t-12.5 -18t-32 -36t-43 -45.5t-44.5 -46.5q-6 -7 -26.5 -11t-39.5 -4q-14 0 -31 3t-22 12q-16 25 -32 49.5t-29 45t-21 34.5t-8 17t6 10t14.5 14.5t18 13
t16.5 5.5z" />
    <glyph glyph-name="uni0162" unicode="&#x162;" horiz-adv-x="544" 
d="M375 570l-38 -555q-1 -15 -11 -15h-36l-5 -40q45 0 70.5 -14.5t25.5 -50.5q0 -42 -34 -68.5t-88 -26.5q-11 0 -26.5 1.5t-29 7t-23 15t-9.5 25.5q0 13 5.5 27.5t13.5 14.5q4 0 8.5 -4t11 -9.5t16 -9.5t22.5 -4q14 0 24 5t10 16q0 12 -11.5 19t-26 11.5t-26 8t-11.5 6.5
q0 11 5.5 33.5t12.5 41.5q-31 8 -44.5 28.5t-13.5 51.5q0 15 1.5 45t4.5 70.5t6.5 88t7.5 96t7.5 96.5t6.5 89h-160q-11 0 -11 14l3 56q1 13 4.5 25.5t11.5 22.5t20.5 16t30.5 6h447q6 0 11 -3t5 -11l-4 -59q-2 -30 -16.5 -48.5t-59.5 -18.5h-108z" />
    <glyph glyph-name="uni0163" unicode="&#x163;" horiz-adv-x="400" 
d="M256 415q-3 -38 -6.5 -75t-6.5 -70t-4.5 -59t-1.5 -40q0 -26 6 -34.5t20 -8.5q11 0 19 4t15 9t12.5 9t12.5 4t13 -8t6 -37q0 -54 -29 -85.5t-100 -33.5l-4 -30q45 0 70.5 -14.5t25.5 -50.5q0 -42 -34 -68.5t-88 -26.5q-11 0 -26.5 1.5t-29 7t-23 15t-9.5 25.5
q0 13 5.5 27.5t13.5 14.5q4 0 8.5 -4t11 -9.5t16 -9.5t22.5 -4q14 0 24 5t10 16q0 12 -11.5 19t-26 11.5t-26 8t-11.5 6.5q0 11 4.5 30.5t10.5 38.5q-78 24 -78 127q0 15 1.5 35.5t4.5 53.5t7.5 81t9.5 119h-53q-8 0 -9.5 3.5t-1.5 10.5l3 51q1 13 3.5 25.5t10 22.5t21.5 16
t37 6q7 18 16 43t18 48.5t17.5 39.5t15.5 16h29q42 0 58 -26t16 -62q0 -20 -3 -59h105q16 0 16 -14l-4 -54q-2 -30 -16.5 -48.5t-59.5 -18.5h-53z" />
    <glyph glyph-name="Tcaron" unicode="&#x164;" horiz-adv-x="544" 
d="M375 570l-38 -555q-1 -15 -11 -15h-55q-56 0 -80 22t-24 63q0 15 1.5 45t4.5 70.5t6.5 88t7.5 96t7.5 96.5t6.5 89h-160q-11 0 -11 14l3 56q1 13 4.5 25.5t11.5 22.5t20.5 16t30.5 6h447q6 0 11 -3t5 -11l-4 -59q-2 -30 -16.5 -48.5t-59.5 -18.5h-108zM196 964q9 0 22 -7
t27.5 -18.5t30.5 -26t31 -30.5q21 16 43.5 30.5t42 26t35 18.5t24.5 7q7 0 15.5 -5.5t16 -13t13 -14.5t5.5 -10t-13 -15.5t-32.5 -31t-42.5 -39.5t-44 -40q-8 -7 -31 -11t-45 -4q-13 0 -30.5 3t-22.5 12q-18 21 -36 42.5t-32 39.5t-23 30t-9 14t6 9t14.5 14.5t18 13.5
t16.5 6z" />
    <glyph glyph-name="tcaron" unicode="&#x165;" horiz-adv-x="484" 
d="M463 621q-29 0 -40.5 15t-11.5 38q0 19 7.5 33.5t19.5 24t27 14t31 4.5q37 0 51 -22.5t14 -56.5q0 -29 -8.5 -56t-23.5 -48t-35 -33.5t-42 -12.5q-23 0 -30.5 12.5t-7.5 29.5q0 3 7.5 8t17 12.5t17 16.5t7.5 21zM256 415q-3 -38 -6.5 -75t-6.5 -70t-4.5 -59t-1.5 -40
q0 -26 6 -34.5t20 -8.5q11 0 19 4t15 9t12.5 9t12.5 4t13 -8t6 -37q0 -55 -30 -87t-103 -32q-72 0 -106.5 33.5t-34.5 102.5q0 15 1.5 35.5t4.5 53.5t7.5 81t9.5 119h-53q-8 0 -9.5 3.5t-1.5 10.5l3 51q1 13 3.5 25.5t10 22.5t21.5 16t37 6q7 18 16 43t18 48.5t17.5 39.5
t15.5 16h29q42 0 58 -26t16 -62q0 -20 -3 -59h105q16 0 16 -14l-4 -54q-2 -30 -16.5 -48.5t-59.5 -18.5h-53z" />
    <glyph glyph-name="Tbar" unicode="&#x166;" horiz-adv-x="567" 
d="M388 570l-6 -90h131q6 0 11 -3.5t5 -10.5q0 -21 -2.5 -38t-10.5 -29t-23.5 -19t-41.5 -7h-77l-24 -358q-1 -15 -11 -15h-55q-56 0 -80 22t-24 63q0 14 1.5 43t4.5 67.5t6 84t6 93.5h-137q-11 0 -11 11q0 16 1 33.5t8 31t22 22.5t42 9h84q2 23 3.5 46t3.5 44h-160
q-11 0 -11 14l3 56q1 13 4.5 25.5t11.5 22.5t20.5 16t30.5 6h447q6 0 11 -3t5 -11l-4 -59q-2 -30 -16.5 -48.5t-59.5 -18.5h-108z" />
    <glyph glyph-name="tbar" unicode="&#x167;" horiz-adv-x="404" 
d="M243 241q-3 -47 -3 -70q0 -26 6 -34.5t20 -8.5q11 0 19 4t15 9t12.5 9t12.5 4t13 -8t6 -37q0 -55 -30 -87t-103 -32q-72 0 -106.5 33.5t-34.5 102.5q0 18 2 44t7 71h-54q-11 0 -11 11q0 18 1.5 35t8.5 30.5t22 22t42 8.5l5 67h-53q-8 0 -9.5 3.5t-1.5 10.5l3 51
q1 13 3.5 25.5t10 22.5t21.5 16t37 6q7 18 16 43t18 48.5t17.5 39.5t15.5 16h29q42 0 58 -26t16 -62q0 -20 -3 -59h105q16 0 16 -14l-4 -54q-2 -30 -16.5 -48.5t-59.5 -18.5h-53l-7 -67h107q6 0 11 -3.5t5 -10.5q0 -21 -2.5 -38t-10.5 -29t-23.5 -19t-41.5 -7h-54z" />
    <glyph glyph-name="Utilde" unicode="&#x168;" horiz-adv-x="659" 
d="M603 326q-3 -30 -9 -66.5t-18.5 -74t-33.5 -72.5t-54 -62.5t-79.5 -44t-110.5 -16.5q-65 0 -111 18.5t-75 51t-42 75.5t-13 92q0 22 2 59.5t5.5 81.5t7.5 91.5t7.5 90.5t6.5 77.5t4 52.5q1 19 5 24.5t12 5.5h55q61 0 82 -26t21 -77q0 -3 -1.5 -26.5t-4 -57.5t-5 -74
t-5 -76t-4 -63t-1.5 -36q0 -17 1.5 -39t8 -42t21 -33.5t41.5 -13.5q34 0 55.5 23t33 55t16 65t6.5 54q4 51 8.5 105t8 101t5.5 82t2 48q0 20 3 25.5t13 5.5h55q34 0 53.5 -6t29.5 -16t12.5 -23t2.5 -27q0 -13 -1.5 -49t-3.5 -82t-5 -95t-7 -86zM454 895q21 0 37 9.5
t28.5 20.5t22.5 20.5t19 9.5q5 0 12.5 -6.5t7.5 -32.5q0 -23 -8.5 -47.5t-26 -44t-44.5 -32t-64 -12.5q-35 0 -58 10t-41 22.5t-33.5 22.5t-36.5 10t-35 -10t-25 -22.5t-19.5 -22.5t-18.5 -10q-5 0 -12.5 7t-7.5 33q0 22 7 45.5t23 43.5t41.5 33t63.5 13q33 0 55.5 -9.5
t40.5 -20.5t34.5 -20.5t37.5 -9.5z" />
    <glyph glyph-name="utilde" unicode="&#x169;" horiz-adv-x="600" 
d="M232 465q0 -21 -3.5 -59t-7 -79t-7 -77t-3.5 -52q0 -35 17.5 -54.5t48.5 -19.5q27 0 45.5 21.5t30 56t18.5 78.5t10.5 89t6 87.5t5.5 73.5q1 8 6 14t16 6h36q31 0 50.5 -6.5t31 -18.5t16 -29.5t4.5 -40.5q0 -15 -1.5 -42.5t-5.5 -76t-9.5 -123t-13.5 -184.5
q-2 -21 -4.5 -25t-16.5 -4h-39q-30 0 -49.5 7t-31.5 18t-17 26t-6 31q-15 -26 -33.5 -44t-38.5 -28.5t-41 -15t-41 -4.5q-38 0 -68 12.5t-50.5 33.5t-31.5 50t-11 62q0 13 1.5 42.5t4 66.5t5.5 78.5t5.5 78.5t5 65t3.5 40q2 18 8 24.5t20 6.5h32q31 0 51 -6t31.5 -17
t16 -26.5t4.5 -35.5zM413 720q21 0 37 9.5t28.5 20.5t22.5 20.5t19 9.5q5 0 12.5 -6.5t7.5 -32.5q0 -23 -8.5 -47.5t-26 -44t-44.5 -32t-64 -12.5q-35 0 -58 10t-41 22.5t-33.5 22.5t-36.5 10t-35 -10t-25 -22.5t-19.5 -22.5t-18.5 -10q-5 0 -12.5 7t-7.5 33q0 22 7 45.5
t23 43.5t41.5 33t63.5 13q33 0 55.5 -9.5t40.5 -20.5t34.5 -20.5t37.5 -9.5z" />
    <glyph glyph-name="Umacron" unicode="&#x16a;" horiz-adv-x="659" 
d="M603 326q-3 -30 -9 -66.5t-18.5 -74t-33.5 -72.5t-54 -62.5t-79.5 -44t-110.5 -16.5q-65 0 -111 18.5t-75 51t-42 75.5t-13 92q0 22 2 59.5t5.5 81.5t7.5 91.5t7.5 90.5t6.5 77.5t4 52.5q1 19 5 24.5t12 5.5h55q61 0 82 -26t21 -77q0 -3 -1.5 -26.5t-4 -57.5t-5 -74
t-5 -76t-4 -63t-1.5 -36q0 -17 1.5 -39t8 -42t21 -33.5t41.5 -13.5q34 0 55.5 23t33 55t16 65t6.5 54q4 51 8.5 105t8 101t5.5 82t2 48q0 20 3 25.5t13 5.5h55q34 0 53.5 -6t29.5 -16t12.5 -23t2.5 -27q0 -13 -1.5 -49t-3.5 -82t-5 -95t-7 -86zM211 800q-11 0 -11 11
q0 17 1 34t8 31t22 22.5t42 8.5h272q6 0 11 -3.5t5 -10.5q0 -21 -2.5 -38t-10.5 -29t-23.5 -19t-41.5 -7h-272z" />
    <glyph glyph-name="umacron" unicode="&#x16b;" horiz-adv-x="600" 
d="M232 465q0 -21 -3.5 -59t-7 -79t-7 -77t-3.5 -52q0 -35 17.5 -54.5t48.5 -19.5q27 0 45.5 21.5t30 56t18.5 78.5t10.5 89t6 87.5t5.5 73.5q1 8 6 14t16 6h36q31 0 50.5 -6.5t31 -18.5t16 -29.5t4.5 -40.5q0 -15 -1.5 -42.5t-5.5 -76t-9.5 -123t-13.5 -184.5
q-2 -21 -4.5 -25t-16.5 -4h-39q-30 0 -49.5 7t-31.5 18t-17 26t-6 31q-15 -26 -33.5 -44t-38.5 -28.5t-41 -15t-41 -4.5q-38 0 -68 12.5t-50.5 33.5t-31.5 50t-11 62q0 13 1.5 42.5t4 66.5t5.5 78.5t5.5 78.5t5 65t3.5 40q2 18 8 24.5t20 6.5h32q31 0 51 -6t31.5 -17
t16 -26.5t4.5 -35.5zM158 618q-11 0 -11 11q0 18 1.5 35t8 30.5t21.5 22t42 8.5h272q6 0 11 -3.5t5 -10.5q0 -21 -2.5 -38t-10.5 -29t-23.5 -19t-41.5 -7h-272z" />
    <glyph glyph-name="Ubreve" unicode="&#x16c;" horiz-adv-x="659" 
d="M603 326q-3 -30 -9 -66.5t-18.5 -74t-33.5 -72.5t-54 -62.5t-79.5 -44t-110.5 -16.5q-65 0 -111 18.5t-75 51t-42 75.5t-13 92q0 22 2 59.5t5.5 81.5t7.5 91.5t7.5 90.5t6.5 77.5t4 52.5q1 19 5 24.5t12 5.5h55q61 0 82 -26t21 -77q0 -3 -1.5 -26.5t-4 -57.5t-5 -74
t-5 -76t-4 -63t-1.5 -36q0 -17 1.5 -39t8 -42t21 -33.5t41.5 -13.5q34 0 55.5 23t33 55t16 65t6.5 54q4 51 8.5 105t8 101t5.5 82t2 48q0 20 3 25.5t13 5.5h55q34 0 53.5 -6t29.5 -16t12.5 -23t2.5 -27q0 -13 -1.5 -49t-3.5 -82t-5 -95t-7 -86zM367 780q-41 0 -69 9.5
t-46 23.5t-26 30.5t-8 30.5q0 25 20 38t46 13q23 0 31.5 -9t14.5 -20.5t14.5 -20.5t31.5 -9t36 9t24 20.5t26 20.5t42 9q43 0 43 -31q0 -17 -11.5 -37t-34 -37t-56 -28.5t-78.5 -11.5z" />
    <glyph glyph-name="ubreve" unicode="&#x16d;" horiz-adv-x="600" 
d="M232 465q0 -21 -3.5 -59t-7 -79t-7 -77t-3.5 -52q0 -35 17.5 -54.5t48.5 -19.5q27 0 45.5 21.5t30 56t18.5 78.5t10.5 89t6 87.5t5.5 73.5q1 8 6 14t16 6h36q31 0 50.5 -6.5t31 -18.5t16 -29.5t4.5 -40.5q0 -15 -1.5 -42.5t-5.5 -76t-9.5 -123t-13.5 -184.5
q-2 -21 -4.5 -25t-16.5 -4h-39q-30 0 -49.5 7t-31.5 18t-17 26t-6 31q-15 -26 -33.5 -44t-38.5 -28.5t-41 -15t-41 -4.5q-38 0 -68 12.5t-50.5 33.5t-31.5 50t-11 62q0 13 1.5 42.5t4 66.5t5.5 78.5t5.5 78.5t5 65t3.5 40q2 18 8 24.5t20 6.5h32q31 0 51 -6t31.5 -17
t16 -26.5t4.5 -35.5zM316 605q-41 0 -69 9.5t-46 23.5t-26 30.5t-8 30.5q0 25 20 38t46 13q23 0 31.5 -9t14.5 -20.5t14.5 -20.5t31.5 -9t36 9t24 20.5t26 20.5t42 9q43 0 43 -31q0 -17 -11.5 -37t-34 -37t-56 -28.5t-78.5 -11.5z" />
    <glyph glyph-name="Uring" unicode="&#x16e;" horiz-adv-x="659" 
d="M603 326q-3 -30 -9 -66.5t-18.5 -74t-33.5 -72.5t-54 -62.5t-79.5 -44t-110.5 -16.5q-65 0 -111 18.5t-75 51t-42 75.5t-13 92q0 22 2 59.5t5.5 81.5t7.5 91.5t7.5 90.5t6.5 77.5t4 52.5q1 19 5 24.5t12 5.5h55q61 0 82 -26t21 -77q0 -3 -1.5 -26.5t-4 -57.5t-5 -74
t-5 -76t-4 -63t-1.5 -36q0 -17 1.5 -39t8 -42t21 -33.5t41.5 -13.5q34 0 55.5 23t33 55t16 65t6.5 54q4 51 8.5 105t8 101t5.5 82t2 48q0 20 3 25.5t13 5.5h55q34 0 53.5 -6t29.5 -16t12.5 -23t2.5 -27q0 -13 -1.5 -49t-3.5 -82t-5 -95t-7 -86zM379 931q43 0 64.5 -18.5
t21.5 -46.5q0 -11 -4 -26t-15 -28.5t-30 -22.5t-49 -9q-47 0 -66 21t-19 47q0 15 5.5 30t17.5 26.5t30 19t44 7.5zM375 882q-14 0 -20 -9t-6 -20q0 -10 5 -17.5t17 -7.5q16 0 21 11.5t5 19.5q0 10 -5.5 16.5t-16.5 6.5z" />
    <glyph glyph-name="uring" unicode="&#x16f;" horiz-adv-x="600" 
d="M232 465q0 -21 -3.5 -59t-7 -79t-7 -77t-3.5 -52q0 -35 17.5 -54.5t48.5 -19.5q27 0 45.5 21.5t30 56t18.5 78.5t10.5 89t6 87.5t5.5 73.5q1 8 6 14t16 6h36q31 0 50.5 -6.5t31 -18.5t16 -29.5t4.5 -40.5q0 -15 -1.5 -42.5t-5.5 -76t-9.5 -123t-13.5 -184.5
q-2 -21 -4.5 -25t-16.5 -4h-39q-30 0 -49.5 7t-31.5 18t-17 26t-6 31q-15 -26 -33.5 -44t-38.5 -28.5t-41 -15t-41 -4.5q-38 0 -68 12.5t-50.5 33.5t-31.5 50t-11 62q0 13 1.5 42.5t4 66.5t5.5 78.5t5.5 78.5t5 65t3.5 40q2 18 8 24.5t20 6.5h32q31 0 51 -6t31.5 -17
t16 -26.5t4.5 -35.5zM329 756q43 0 64.5 -18.5t21.5 -46.5q0 -11 -4 -26t-15 -28.5t-30 -22.5t-49 -9q-47 0 -66 21t-19 47q0 15 5.5 30t17.5 26.5t30 19t44 7.5zM325 707q-14 0 -20 -9t-6 -20q0 -10 5 -17.5t17 -7.5q16 0 21 11.5t5 19.5q0 10 -5.5 16.5t-16.5 6.5z" />
    <glyph glyph-name="Uhungarumlaut" unicode="&#x170;" horiz-adv-x="659" 
d="M603 326q-3 -30 -9 -66.5t-18.5 -74t-33.5 -72.5t-54 -62.5t-79.5 -44t-110.5 -16.5q-65 0 -111 18.5t-75 51t-42 75.5t-13 92q0 22 2 59.5t5.5 81.5t7.5 91.5t7.5 90.5t6.5 77.5t4 52.5q1 19 5 24.5t12 5.5h55q61 0 82 -26t21 -77q0 -3 -1.5 -26.5t-4 -57.5t-5 -74
t-5 -76t-4 -63t-1.5 -36q0 -17 1.5 -39t8 -42t21 -33.5t41.5 -13.5q34 0 55.5 23t33 55t16 65t6.5 54q4 51 8.5 105t8 101t5.5 82t2 48q0 20 3 25.5t13 5.5h55q34 0 53.5 -6t29.5 -16t12.5 -23t2.5 -27q0 -13 -1.5 -49t-3.5 -82t-5 -95t-7 -86zM179 780q-11 0 -19.5 7.5
t-14.5 17.5t-9 18.5t-3 11.5q0 7 20 28t47 43.5t53.5 40t39.5 17.5q9 0 26 -10.5t33 -24t28 -28t12 -21.5q0 -8 -13.5 -18.5t-34 -21.5t-45.5 -22t-48.5 -19.5t-43 -13.5t-28.5 -5zM438 780q-11 0 -19.5 7.5t-14.5 17.5t-9 18.5t-3 11.5q0 7 20 28t47 43.5t53.5 40
t39.5 17.5q9 0 26 -10.5t33 -24t28 -28t12 -21.5q0 -8 -13.5 -18.5t-34 -21.5t-45.5 -22t-48.5 -19.5t-43 -13.5t-28.5 -5z" />
    <glyph glyph-name="uhungarumlaut" unicode="&#x171;" horiz-adv-x="600" 
d="M232 465q0 -21 -3.5 -59t-7 -79t-7 -77t-3.5 -52q0 -35 17.5 -54.5t48.5 -19.5q27 0 45.5 21.5t30 56t18.5 78.5t10.5 89t6 87.5t5.5 73.5q1 8 6 14t16 6h36q31 0 50.5 -6.5t31 -18.5t16 -29.5t4.5 -40.5q0 -15 -1.5 -42.5t-5.5 -76t-9.5 -123t-13.5 -184.5
q-2 -21 -4.5 -25t-16.5 -4h-39q-30 0 -49.5 7t-31.5 18t-17 26t-6 31q-15 -26 -33.5 -44t-38.5 -28.5t-41 -15t-41 -4.5q-38 0 -68 12.5t-50.5 33.5t-31.5 50t-11 62q0 13 1.5 42.5t4 66.5t5.5 78.5t5.5 78.5t5 65t3.5 40q2 18 8 24.5t20 6.5h32q31 0 51 -6t31.5 -17
t16 -26.5t4.5 -35.5zM185 615q-7 0 -15.5 5t-16.5 12.5t-13.5 16t-5.5 14.5q0 2 10 17t25 37t33 48t34 49q6 9 10 12t13 3q12 0 31 -6t37 -15t31 -19.5t13 -19.5q0 -7 -11.5 -21t-29.5 -31t-40 -35t-43 -33t-37.5 -24.5t-24.5 -9.5zM442 615q-7 0 -15.5 5t-16.5 12.5
t-13.5 16t-5.5 14.5q0 2 10 17t25 37t33 48t34 49q6 9 10 12t13 3q12 0 31 -6t37 -15t31 -19.5t13 -19.5q0 -7 -11.5 -21t-29.5 -31t-40 -35t-43 -33t-37.5 -24.5t-24.5 -9.5z" />
    <glyph glyph-name="Uogonek" unicode="&#x172;" horiz-adv-x="660" 
d="M603 326q-3 -29 -8.5 -63.5t-17 -70.5t-30.5 -70t-48.5 -61.5t-71 -46t-97.5 -22.5q-29 -35 -29 -65q0 -17 8 -28t18 -18.5t18 -13t8 -11.5q0 -5 -7.5 -14t-20.5 -17t-31 -14t-40 -6q-41 0 -60 20.5t-19 49.5q0 28 17.5 57.5t58.5 60.5q-52 6 -89 27t-60 52t-34 70.5
t-11 84.5q0 22 2 59.5t5.5 81.5t7.5 91.5t7.5 90.5t6.5 77.5t4 52.5q1 19 5 24.5t12 5.5h55q61 0 82 -26t21 -77q0 -3 -1.5 -26.5t-4 -57.5t-5 -74t-5 -76t-4 -63t-1.5 -36q0 -17 1.5 -39t8 -42t21 -33.5t41.5 -13.5q34 0 55.5 23t33 55t16 65t6.5 54q4 51 8.5 105t8 101
t5.5 82t2 48q0 20 3 25.5t13 5.5h55q34 0 53.5 -6t29.5 -16t12.5 -23t2.5 -27q0 -13 -1.5 -49t-3.5 -82t-5 -95t-7 -86z" />
    <glyph glyph-name="uogonek" unicode="&#x173;" horiz-adv-x="600" 
d="M232 465q0 -21 -3.5 -59t-7 -79t-7 -77t-3.5 -52q0 -35 17.5 -54.5t48.5 -19.5q27 0 45.5 21.5t30 56t18.5 78.5t10.5 89t6 87.5t5.5 73.5q1 8 6 14t16 6h36q31 0 50.5 -6.5t31 -18.5t16 -29.5t4.5 -40.5q0 -15 -1.5 -42.5t-5.5 -76t-9.5 -123t-13.5 -184.5
q-1 -11 -2 -16.5t-4 -8.5t-10 -3.5t-19 -0.5q-37 -40 -37 -73q0 -17 8 -28t18 -18.5t18 -13t8 -11.5q0 -5 -7.5 -14t-20.5 -17t-31 -14t-40 -6q-41 0 -60 20.5t-19 49.5q0 31 21 63.5t72 66.5q-33 9 -45 30t-14 47q-15 -26 -33.5 -44t-38.5 -28.5t-41 -15t-41 -4.5
q-38 0 -68 12.5t-50.5 33.5t-31.5 50t-11 62q0 13 1.5 42.5t4 66.5t5.5 78.5t5.5 78.5t5 65t3.5 40q2 18 8 24.5t20 6.5h32q31 0 51 -6t31.5 -17t16 -26.5t4.5 -35.5z" />
    <glyph glyph-name="Wcircumflex" unicode="&#x174;" horiz-adv-x="946" 
d="M668 149q10 53 18 92.5t14 73.5t11.5 67.5t12 75t15 95t20.5 128.5q3 19 10 24.5t35 5.5q11 0 33 -1.5t44 -9t38.5 -23t16.5 -43.5q0 -16 -6 -49.5t-16.5 -77t-24 -94.5t-27.5 -103t-28.5 -101t-27 -88.5t-22.5 -66.5t-14 -35q-6 -11 -17 -15t-22 -4h-95q-26 0 -43.5 10
t-29 26t-18 36t-8.5 41l-50 449l-13.5 -99t-16 -112t-16.5 -112t-16 -100.5t-15 -77.5t-12 -42q-5 -11 -16 -15t-23 -4h-95q-25 0 -41.5 9.5t-27.5 25.5t-18 36.5t-12 41.5q-41 163 -66.5 268t-40.5 168.5t-20.5 93t-5.5 42.5q0 17 10.5 22t44.5 5q42 0 70.5 -6t46.5 -18.5
t27.5 -33t12.5 -49.5q0 -4 1 -11.5t2.5 -24.5t5 -46.5t9 -78.5t14 -121.5t20.5 -173.5q11 61 17.5 98.5t11.5 66t9 55t9.5 66t13 99.5l19.5 156q1 7 8.5 11t18.5 6t24.5 2.5t25.5 0.5q40 0 68 -4.5t46.5 -15.5t29.5 -29.5t18 -45.5q3 -13 7 -35.5t9.5 -71.5t14 -134.5
t22.5 -224.5zM631 780q-9 0 -22 7t-27.5 18.5t-30.5 26t-31 30.5q-21 -16 -43.5 -30.5t-42 -26t-35 -18.5t-24.5 -7q-7 0 -15.5 5.5t-16 13t-13 14.5t-5.5 10t12.5 15.5t32 30.5t43 39t44.5 41q8 7 30.5 11t45.5 4q13 0 30.5 -3t22.5 -12q18 -21 36 -42.5t32 -39.5t23 -30
t9 -14t-6 -9t-14.5 -14.5t-18 -13.5t-16.5 -6z" />
    <glyph glyph-name="wcircumflex" unicode="&#x175;" horiz-adv-x="839" 
d="M577 107q13 73 22.5 127.5t16 94.5t11 69t8 51.5t6 40t5.5 36.5q2 11 10.5 17t32.5 6q13 0 36.5 -1.5t46.5 -7.5t39.5 -18.5t16.5 -34.5q0 -16 -9 -47.5t-23 -72.5t-32 -87.5t-36.5 -92t-35.5 -86.5t-29 -71q-8 -18 -15.5 -24t-26.5 -6h-59q-28 0 -46 7t-29 19t-17 27.5
t-9 33.5q-10 51 -21 137t-20 203q-5 -22 -11.5 -59t-14 -80t-15.5 -88t-15 -83.5t-13 -66t-10 -35.5q-5 -10 -12.5 -12.5t-21.5 -2.5h-70q-26 0 -44.5 7.5t-32 19.5t-22 27.5t-12.5 32.5q-55 214 -82.5 323t-27.5 117q0 9 9 16t23 7q43 0 74 -3.5t51.5 -12.5t31.5 -25
t14 -42q1 -14 4 -57t6.5 -97.5t7 -110.5t6.5 -95q12 62 19.5 99t12.5 62t8.5 44t8.5 45t11.5 65t18.5 104q4 24 53 24q31 0 58 -2t48 -9.5t36 -22t21 -39.5q2 -7 3.5 -14t3.5 -20t4.5 -36t6 -62t8.5 -97t13 -141zM541 615q-8 0 -20 8.5t-25.5 23t-28 32.5t-27.5 38
q-20 -20 -40.5 -38t-39 -32.5t-33 -23t-22.5 -8.5q-7 0 -15.5 5.5t-16 13t-13 14.5t-5.5 10q0 4 12.5 20t32 38.5t43 48t44.5 49.5q6 7 26.5 11t39.5 4q13 0 30.5 -3t22.5 -12q16 -27 32 -53.5t29 -48.5t21 -37t8 -17t-6 -9t-14.5 -14.5t-18 -13.5t-16.5 -6z" />
    <glyph glyph-name="Ycircumflex" unicode="&#x176;" horiz-adv-x="609" 
d="M296 0q-60 0 -82 23.5t-22 72.5q0 17 2 55t9 118q-8 15 -14 26t-12 23t-13 28t-18 40q-17 37 -38.5 86t-41.5 94.5t-33.5 80.5t-13.5 44q0 21 67 21q42 0 67.5 -8.5t41.5 -23t24 -34t15 -41.5q9 -29 13 -43t6.5 -23t5.5 -17.5t8.5 -26.5t15.5 -50t28 -88q29 61 46.5 99
t30.5 70.5t24.5 67t29.5 87.5q6 19 12.5 24.5t20.5 5.5q5 0 27.5 -1.5t47 -7.5t44.5 -19t20 -35q0 -17 -11.5 -48t-30 -69.5t-43 -81.5t-50.5 -84t-51.5 -75.5t-46.5 -56.5q-1 -24 -2.5 -57t-4 -65.5t-4.5 -59t-3 -36.5q-1 -8 -4 -11.5t-12 -3.5h-55zM449 780q-9 0 -22 7
t-27.5 18.5t-30.5 26t-31 30.5q-21 -16 -43.5 -30.5t-42 -26t-35 -18.5t-24.5 -7q-7 0 -15.5 5.5t-16 13t-13 14.5t-5.5 10t12.5 15.5t32 30.5t43 39t44.5 41q8 7 30.5 11t45.5 4q13 0 30.5 -3t22.5 -12q18 -21 36 -42.5t32 -39.5t23 -30t9 -14t-6 -9t-14.5 -14.5t-18 -13.5
t-16.5 -6z" />
    <glyph glyph-name="ycircumflex" unicode="&#x177;" horiz-adv-x="610" 
d="M232 458q0 -23 -3 -54.5t-6.5 -63t-6.5 -59t-3 -42.5q0 -38 18.5 -56.5t45.5 -18.5q47 0 75 49t35 130l16 187q1 11 7.5 15.5t14.5 4.5h36q21 0 39.5 -3.5t32.5 -13t22 -25.5t8 -41q0 -10 -1.5 -37.5t-5 -79t-9.5 -130t-14 -191.5q-5 -66 -29.5 -109.5t-61.5 -69
t-83 -35.5t-94 -10q-51 0 -93.5 9t-73.5 25t-48.5 37t-17.5 45q0 19 8.5 33t22.5 23t32.5 13.5t38.5 4.5q10 0 14.5 -10t14 -22.5t30.5 -22.5t63 -10q37 0 60 18t35.5 46t16.5 61t4 63q-16 -28 -35.5 -45.5t-40.5 -27t-42 -12.5t-40 -3q-37 0 -67.5 10t-52.5 32.5t-34 58.5
t-12 87q0 19 2 50.5t5 71t6.5 85.5t7.5 94q2 31 28 31h32q32 0 52 -6t31.5 -17.5t15.5 -29t4 -39.5zM433 615q-8 0 -20 8.5t-25.5 23t-28 32.5t-27.5 38q-20 -20 -40.5 -38t-39 -32.5t-33 -23t-22.5 -8.5q-7 0 -15.5 5.5t-16 13t-13 14.5t-5.5 10q0 4 12.5 20t32 38.5t43 48
t44.5 49.5q6 7 26.5 11t39.5 4q13 0 30.5 -3t22.5 -12q16 -27 32 -53.5t29 -48.5t21 -37t8 -17t-6 -9t-14.5 -14.5t-18 -13.5t-16.5 -6z" />
    <glyph glyph-name="Ydieresis" unicode="&#x178;" horiz-adv-x="609" 
d="M296 0q-60 0 -82 23.5t-22 72.5q0 17 2 55t9 118q-8 15 -14 26t-12 23t-13 28t-18 40q-17 37 -38.5 86t-41.5 94.5t-33.5 80.5t-13.5 44q0 21 67 21q42 0 67.5 -8.5t41.5 -23t24 -34t15 -41.5q9 -29 13 -43t6.5 -23t5.5 -17.5t8.5 -26.5t15.5 -50t28 -88q29 61 46.5 99
t30.5 70.5t24.5 67t29.5 87.5q6 19 12.5 24.5t20.5 5.5q5 0 27.5 -1.5t47 -7.5t44.5 -19t20 -35q0 -17 -11.5 -48t-30 -69.5t-43 -81.5t-50.5 -84t-51.5 -75.5t-46.5 -56.5q-1 -24 -2.5 -57t-4 -65.5t-4.5 -59t-3 -36.5q-1 -8 -4 -11.5t-12 -3.5h-55zM132 838q0 36 24 57
t65 21q36 0 52.5 -16t16.5 -42q0 -33 -23 -55.5t-67 -22.5q-68 0 -68 58zM360 838q0 36 24 57t65 21q36 0 52.5 -16t16.5 -42q0 -33 -23 -55.5t-67 -22.5q-68 0 -68 58z" />
    <glyph glyph-name="Zacute" unicode="&#x179;" horiz-adv-x="554" 
d="M18 0q-11 0 -11 11l3 54q1 9 3 22.5t9 22.5q17 31 41 67t58 88t79.5 125.5t105.5 179.5h-228q-8 0 -9.5 3t-1.5 11l3 56q1 13 3.5 25.5t10 22.5t21.5 16t37 6h382q6 0 11 -3t5 -11l-4 -54q-2 -26 -12 -43q-3 -5 -29 -47.5t-66 -107.5t-89.5 -145t-99.5 -159h254
q6 0 11 -3t5 -11l-4 -59q-2 -30 -16.5 -48.5t-59.5 -18.5h-412zM326 780q-11 0 -19.5 7.5t-14.5 17.5t-9 18.5t-3 11.5q0 7 20 28t47 43.5t53.5 40t39.5 17.5q9 0 26 -10.5t33 -24t28 -28t12 -21.5q0 -8 -13.5 -18.5t-34 -21.5t-45.5 -22t-48.5 -19.5t-43 -13.5t-28.5 -5z
" />
    </font>
</defs>
</svg>
